<svg width="84" height="26" viewBox="0 0 84 26" fill="none" xmlns="http://www.w3.org/2000/svg">
<g clip-path="url(#clip0_4_1535)">
<path fill-rule="evenodd" clip-rule="evenodd" d="M51.8001 19.6599C46.9671 23.2329 39.9381 25.1369 33.8751 25.1369C25.7878 25.1771 17.9761 22.2006 11.9661 16.7889C11.5271 16.3789 11.9071 15.8219 12.4661 16.1449C18.2861 19.4942 24.8022 21.4511 31.5044 21.8626C38.2066 22.2741 44.9132 21.129 51.0991 18.5169C51.9171 18.1959 52.5911 19.0779 51.8001 19.6599Z" fill="#6A7A99"/>
<path fill-rule="evenodd" clip-rule="evenodd" d="M53.8211 17.3461C53.2061 16.5551 49.7211 16.9651 48.1681 17.1701C47.6991 17.2291 47.6111 16.819 48.0511 16.526C50.8341 14.564 55.3731 15.1491 55.9011 15.7941C56.4291 16.4391 55.7551 21.0081 53.1481 23.1751C52.7381 23.4971 52.3571 23.321 52.5331 22.882C53.1181 21.418 54.4361 18.1661 53.8211 17.3461Z" fill="#6A7A99"/>
<path fill-rule="evenodd" clip-rule="evenodd" d="M48.2561 2.75982V0.859822C48.2528 0.79736 48.2627 0.734906 48.285 0.676503C48.3074 0.6181 48.3419 0.565062 48.3861 0.520833C48.4303 0.476603 48.4834 0.442156 48.5418 0.419759C48.6002 0.397361 48.6626 0.387514 48.7251 0.390828H57.2161C57.3444 0.387577 57.4687 0.434948 57.5623 0.522725C57.6559 0.610501 57.7111 0.731615 57.7161 0.859822V2.47081C57.7161 2.73481 57.4821 3.08583 57.0721 3.67083L52.6791 9.93883C54.3532 9.84865 56.0215 10.2011 57.5161 10.9608C57.6458 11.035 57.7543 11.1414 57.8312 11.2695C57.908 11.3977 57.9507 11.5434 57.9551 11.6928V13.7138C57.9551 14.0068 57.6621 14.3288 57.3401 14.1528C55.9542 13.4355 54.4156 13.0635 52.855 13.0686C51.2945 13.0736 49.7583 13.4555 48.3771 14.1818C48.3072 14.2068 48.2323 14.2146 48.1587 14.2044C48.0852 14.1941 48.0152 14.1663 47.9548 14.1231C47.8944 14.08 47.8453 14.0229 47.8117 13.9567C47.7782 13.8904 47.7611 13.8171 47.7621 13.7428V11.8068C47.7333 11.3542 47.8458 10.9037 48.0841 10.5178L53.1841 3.22481H48.7611C48.6328 3.22806 48.5084 3.18069 48.4149 3.09292C48.3213 3.00514 48.266 2.88403 48.2611 2.75582L48.2561 2.75982ZM17.2971 14.5598H14.7161C14.6006 14.5483 14.4921 14.499 14.4073 14.4197C14.3226 14.3403 14.2663 14.2353 14.2471 14.1208V0.885823C14.2521 0.757616 14.3073 0.636502 14.4009 0.548726C14.4945 0.460949 14.6188 0.413578 14.7471 0.416829H17.1471C17.2659 0.418445 17.3798 0.464324 17.4666 0.545522C17.5533 0.626719 17.6067 0.737383 17.6161 0.855824V2.58382H17.6751C17.9031 1.86951 18.3524 1.24618 18.9579 0.803883C19.5634 0.361588 20.2938 0.123219 21.0436 0.123219C21.7934 0.123219 22.5239 0.361588 23.1294 0.803883C23.7348 1.24618 24.184 1.86951 24.4121 2.58382C24.6691 1.84738 25.1539 1.21193 25.7964 0.769612C26.4388 0.327293 27.2054 0.101105 27.9851 0.12383C28.5639 0.112153 29.137 0.239013 29.6568 0.493855C30.1766 0.748697 30.6279 1.12413 30.9731 1.58883C31.7931 2.70183 31.6171 4.31282 31.6171 5.74782V14.1248C31.6121 14.253 31.5569 14.3741 31.4633 14.4619C31.3697 14.5497 31.2454 14.5971 31.1171 14.5938H28.5691C28.4471 14.5865 28.332 14.5347 28.2456 14.4483C28.1592 14.3619 28.1075 14.2468 28.1001 14.1248V7.09581C28.1394 6.26546 28.1196 5.43338 28.0411 4.60582C27.9874 4.25354 27.7975 3.93643 27.5122 3.72283C27.227 3.50923 26.8693 3.41623 26.5161 3.46383C26.1799 3.47353 25.8539 3.58129 25.5781 3.77388C25.3024 3.96648 25.0889 4.23549 24.9641 4.54781C24.7519 5.37943 24.6729 6.23945 24.7301 7.09581V14.1248C24.7252 14.253 24.6699 14.3741 24.5763 14.4619C24.4827 14.5497 24.3584 14.5971 24.2301 14.5938H21.6531C21.5311 14.5865 21.416 14.5347 21.3296 14.4483C21.2432 14.3619 21.1915 14.2468 21.1841 14.1248V7.09581C21.1841 5.63081 21.4181 3.43483 19.6021 3.43483C17.7571 3.43483 17.8151 5.54381 17.8151 7.09581V14.1248C17.7967 14.25 17.7328 14.3641 17.6355 14.4451C17.5383 14.5261 17.4146 14.5684 17.2881 14.5638L17.2971 14.5598ZM65.0391 0.119832C68.8761 0.119832 70.9561 3.39983 70.9561 7.58883C70.9561 11.6308 68.6711 14.8528 65.0391 14.8528C61.2901 14.8528 59.2391 11.5728 59.2391 7.47182C59.2101 3.34182 61.2891 0.119832 65.0391 0.119832ZM65.0391 2.84383C63.1391 2.84383 63.0181 5.45082 63.0181 7.06182C63.0181 8.67282 62.9891 12.1288 65.0101 12.1288C67.0021 12.1288 67.1191 9.34582 67.1191 7.64782C67.1551 6.46418 67.0269 5.28127 66.7381 4.13283C66.6581 3.74928 66.4417 3.4077 66.1291 3.17144C65.8166 2.93517 65.4289 2.82021 65.0381 2.84783L65.0391 2.84383ZM75.9051 14.5598H73.3281C73.2061 14.5525 73.091 14.5007 73.0046 14.4143C72.9182 14.3279 72.8665 14.2128 72.8591 14.0908V0.826833C72.8753 0.705581 72.9349 0.59428 73.0268 0.51357C73.1187 0.43286 73.2368 0.38818 73.3591 0.387807H75.7591C75.8681 0.391451 75.973 0.430682 76.0577 0.499471C76.1423 0.568259 76.2022 0.662842 76.2281 0.768819V2.78981H76.2871C77.0191 0.973815 78.0151 0.124806 79.8021 0.124806C80.3967 0.0977921 80.988 0.226839 81.5172 0.499104C82.0465 0.77137 82.4953 1.17738 82.8191 1.67681C83.4931 2.73181 83.4931 4.51781 83.4931 5.80681V14.1548C83.4754 14.273 83.4144 14.3803 83.3221 14.4561C83.2297 14.5319 83.1124 14.5706 82.9931 14.5648H80.4161C80.3048 14.5543 80.1996 14.5091 80.1155 14.4355C80.0313 14.3619 79.9724 14.2637 79.9471 14.1548V6.94982C79.9471 5.48582 80.1231 3.37682 78.3361 3.37682C78.0125 3.39192 77.7 3.49914 77.4353 3.68587C77.1707 3.8726 76.9648 4.13104 76.8421 4.43081C76.5288 5.23202 76.389 6.0906 76.4321 6.94982V14.0968C76.4159 14.2255 76.3535 14.344 76.2566 14.4303C76.1597 14.5165 76.0348 14.5647 75.9051 14.5658V14.5598ZM41.4901 8.23281C41.5858 9.17601 41.4237 10.1275 41.0211 10.9858C40.8577 11.325 40.6051 11.6134 40.2903 11.8198C39.9754 12.0263 39.6103 12.1432 39.2341 12.1578C38.2341 12.1578 37.6521 11.3958 37.6521 10.2828C37.6521 8.08283 39.6141 7.67583 41.4891 7.67583L41.4901 8.23281ZM44.0971 14.5328C44.0136 14.6057 43.9094 14.6506 43.7991 14.6612C43.6888 14.6718 43.5779 14.6475 43.4821 14.5918C42.8855 14.109 42.3796 13.5239 41.9881 12.8638C41.4774 13.4882 40.8267 13.9834 40.0888 14.3091C39.3509 14.6349 38.5466 14.7821 37.7411 14.7388C37.2126 14.7698 36.6836 14.6861 36.1905 14.4933C35.6975 14.3005 35.252 14.0032 34.8846 13.6219C34.5173 13.2407 34.2369 12.7844 34.0626 12.2845C33.8884 11.7845 33.8244 11.2528 33.8751 10.7258C33.8447 9.82502 34.0928 8.93677 34.5854 8.182C35.078 7.42723 35.7913 6.84264 36.6281 6.50783C38.2002 5.98641 39.8358 5.68093 41.4901 5.59981V5.27782C41.5777 4.63459 41.4652 3.97999 41.1681 3.40282C40.9997 3.18448 40.7817 3.00942 40.5321 2.8922C40.2826 2.77498 40.0086 2.71897 39.7331 2.72881C39.2564 2.68721 38.781 2.82239 38.3974 3.10857C38.0139 3.39476 37.749 3.81196 37.6531 4.28081C37.5941 4.51481 37.4531 4.74981 37.2141 4.74981L34.7241 4.48583C34.664 4.47738 34.6062 4.45687 34.5541 4.42553C34.5021 4.39419 34.457 4.35267 34.4214 4.30346C34.3858 4.25424 34.3605 4.19834 34.3471 4.13912C34.3336 4.0799 34.3323 4.01858 34.3431 3.95882C34.9291 0.912821 37.6531 0.00481113 40.1131 0.00481113C41.5268 -0.0556416 42.9139 0.402797 44.0131 1.29381C45.2721 2.46581 45.1551 4.04681 45.1551 5.74581V9.75881C45.1715 10.6505 45.5157 11.5049 46.1221 12.1588C46.2981 12.3928 46.3271 12.6858 46.1221 12.8328C45.5611 13.2748 44.6221 14.0948 44.0971 14.5328ZM7.6611 8.23281C7.75684 9.17601 7.59473 10.1275 7.19209 10.9858C7.02874 11.325 6.77609 11.6134 6.46126 11.8198C6.14643 12.0263 5.78132 12.1432 5.40511 12.1578C4.40511 12.1578 3.82311 11.3958 3.82311 10.2828C3.82311 8.08283 5.7851 7.67583 7.6601 7.67583L7.6611 8.23281ZM10.2391 14.5328C10.1556 14.6057 10.0514 14.6506 9.94109 14.6612C9.83077 14.6718 9.71991 14.6475 9.6241 14.5918C9.02753 14.109 8.52164 13.5239 8.1301 12.8638C7.6194 13.4882 6.9687 13.9834 6.23079 14.3091C5.49288 14.6349 4.68856 14.7821 3.8831 14.7388C3.35458 14.7698 2.82561 14.6861 2.33254 14.4933C1.83946 14.3005 1.39396 14.0032 1.02664 13.6219C0.659329 13.2407 0.378903 12.7844 0.204637 12.2845C0.0303719 11.7845 -0.0335986 11.2528 0.0171068 10.7258C-0.0132572 9.82502 0.23475 8.93677 0.727373 8.182C1.22 7.42723 1.93328 6.84264 2.7701 6.50783C4.34217 5.98641 5.97779 5.68093 7.6321 5.59981V5.27782C7.71965 4.63459 7.60725 3.97999 7.31011 3.40282C7.14173 3.18448 6.9237 3.00942 6.67414 2.8922C6.42457 2.77498 6.15064 2.71897 5.87509 2.72881C5.39836 2.68721 4.92298 2.82239 4.53943 3.10857C4.15588 3.39476 3.89097 3.81196 3.79511 4.28081C3.73611 4.51481 3.5901 4.74981 3.3561 4.74981L0.866106 4.48583C0.805969 4.47738 0.748155 4.45687 0.696138 4.42553C0.644122 4.39419 0.598966 4.35267 0.563387 4.30346C0.527807 4.25424 0.502529 4.19834 0.489076 4.13912C0.475624 4.0799 0.474269 4.01858 0.485094 3.95882C1.07109 0.912821 3.7951 0.00481113 6.2551 0.00481113C7.66881 -0.0556416 9.05587 0.402797 10.1551 1.29381C11.4141 2.46581 11.2971 4.04681 11.2971 5.74581V9.75881C11.3136 10.6504 11.6578 11.5048 12.2641 12.1588C12.4401 12.3928 12.4691 12.6858 12.2641 12.8328C11.7071 13.2718 10.7701 14.0918 10.2431 14.5328H10.2391Z" fill="#6A7A99"/>
</g>
<defs>
<clipPath id="clip0_4_1535">
<rect width="83.493" height="25.138" fill="white"/>
</clipPath>
</defs>
</svg>
