<svg width="100" height="94" viewBox="0 0 100 94" fill="none" xmlns="http://www.w3.org/2000/svg">
<path d="M17.035 93.5161C40.515 93.7926 62.6544 93.8333 82.8687 93.6926C95.3548 93.6036 98.7314 89.3801 99.2627 77.5549C100.06 59.9484 100.211 42.0779 99.7158 24.4417C99.4908 16.376 97.0392 12.2478 85.8328 12.6572L65.7591 13.3978C56.8481 13.7275 55.1902 12.4572 51.2761 7.13836C47.1714 1.56016 45.0198 -0.272678 34.4618 0.0320141L13.3131 0.63046C5.14738 0.863275 1.89421 3.08987 1.61921 13.34L1.25201 27.1824C1.07076 27.423 1.03482 27.7449 1.22858 28.0355L0.0254354 73.2892C-0.429258 90.2535 5.30363 93.377 17.035 93.5161ZM50.0808 8.01962C54.3418 13.8072 56.5012 15.2307 65.8154 14.8822L85.8891 14.1416C96.3111 13.7588 98.033 17.3526 98.2314 24.4823C98.2533 25.2355 98.2549 25.9949 98.2736 26.748L2.75047 26.7621L2.77391 25.8995L4.96456 23.7089L6.00989 24.7542C6.15364 24.898 6.38958 24.8995 6.5349 24.7542C6.68021 24.6089 6.68021 24.3745 6.5349 24.2292L5.48957 23.1823L9.44275 19.2291C9.58806 19.0838 9.58806 18.8495 9.44275 18.7041C9.29743 18.5588 9.06306 18.5588 8.91774 18.7041L7.17553 20.4464L5.48957 18.762L9.10368 15.1478C9.249 15.0025 9.249 14.7681 9.10368 14.6228C8.95837 14.4775 8.72399 14.4775 8.57867 14.6228L7.34116 15.8604L4.69737 13.215L7.42397 10.4868L8.69899 11.7619C8.84274 11.9056 9.07868 11.9072 9.224 11.7619C9.36931 11.6165 9.36931 11.3822 9.224 11.2369L7.94898 9.96183L8.28648 9.62433C8.4318 9.47902 8.4318 9.24464 8.28648 9.09932C8.14117 8.95401 7.90679 8.95401 7.76148 9.09932L7.42397 9.43683L5.73957 7.75243L8.15523 5.33677L9.63181 6.81335C9.77557 6.95711 10.0115 6.95867 10.1568 6.81335C10.3021 6.66804 10.3021 6.43366 10.1568 6.28835L8.68024 4.81177L9.86775 3.62581C10.0131 3.4805 10.0131 3.24612 9.86775 3.10081C9.72244 2.95549 9.48806 2.95549 9.34275 3.10081L8.15523 4.28676L7.08647 3.21799C8.23179 2.63049 9.57244 2.3633 11.0537 2.23673C11.0615 2.24454 11.0584 2.25704 11.0662 2.26486L12.7897 3.98832L11.5834 5.19615C11.4381 5.34146 11.4381 5.57584 11.5834 5.72115C11.7272 5.8649 11.9631 5.86647 12.1084 5.72115L13.3147 4.51332L15.0616 6.26022C15.2053 6.40397 15.4413 6.40554 15.5866 6.26022C15.7319 6.11491 15.7319 5.88053 15.5866 5.73522L13.8397 3.98832L15.7803 2.04767L17.7788 1.99142L19.9523 4.16488L19.2554 4.86177C19.1101 5.00708 19.1101 5.24146 19.2554 5.38677C19.3991 5.53053 19.6351 5.53209 19.7804 5.38677L20.4773 4.68989L22.7461 6.95867C22.8898 7.10242 23.1257 7.10398 23.2711 6.95867C23.4164 6.81335 23.4164 6.57898 23.2711 6.43366L21.0023 4.16488L23.2492 1.91798C23.2711 1.8961 23.2679 1.86173 23.2836 1.83516L24.0289 1.81329C24.0461 1.86641 24.0508 1.92423 24.0929 1.96641L26.082 3.95707L24.593 5.44615C24.4476 5.59146 24.4476 5.82584 24.593 5.97116C24.7367 6.11491 24.9726 6.11647 25.118 5.97116L26.607 4.48207L28.1383 6.01334C28.2821 6.1571 28.518 6.15866 28.6633 6.01334C28.8086 5.86803 28.8086 5.63365 28.6633 5.48834L27.1336 3.95707L29.0571 2.0336C29.0743 2.06642 29.0711 2.10548 29.0977 2.13361L31.004 4.03988L30.5149 4.52739C30.3696 4.6727 30.3696 4.90708 30.5149 5.05239C30.6618 5.19927 30.8962 5.19615 31.0399 5.05239L31.5274 4.56489L33.3509 6.38835C33.4946 6.5321 33.7306 6.53366 33.8759 6.38835C34.0212 6.24303 34.0212 6.00866 33.8759 5.86334L32.0524 4.03988L33.529 2.5633C33.6743 2.41798 33.6743 2.18361 33.529 2.03829C33.3837 1.89454 33.1493 1.89298 33.004 2.03829L31.5274 3.51331L29.668 1.65391L34.079 1.52891C34.0759 1.62735 34.1103 1.72422 34.1837 1.79923L36.2556 3.87113L35.5165 4.60864C35.3712 4.75395 35.3712 4.98833 35.5165 5.13364C35.6634 5.28052 35.8978 5.2774 36.0415 5.13364L36.7806 4.39614L38.7885 6.40397C38.9322 6.54773 39.1681 6.54929 39.3135 6.40397C39.4588 6.25866 39.4588 6.02428 39.3135 5.87897L37.3056 3.87113L39.24 1.93829C39.3494 1.82891 39.3494 1.67422 39.2916 1.53985C39.3947 1.5461 39.4978 1.55703 39.601 1.56485C39.5822 1.67891 39.5994 1.79454 39.6869 1.88204L41.8838 4.07894L41.1869 4.77583C41.0416 4.92114 41.0416 5.15552 41.1869 5.30083C41.3307 5.44459 41.5666 5.44615 41.7119 5.30083L42.4088 4.60395L43.8995 6.0946C44.0432 6.23835 44.2792 6.23991 44.4245 6.0946C44.5698 5.94928 44.5698 5.7149 44.4245 5.56959L42.9385 4.08207L44.1448 2.8758C44.2323 2.7883 44.2495 2.67111 44.2307 2.55705C46.8276 3.6305 48.4183 5.76022 50.0808 8.01962ZM3.95986 7.02273L4.68956 7.75243L4.24424 8.19931C4.09893 8.34463 4.09893 8.579 4.24424 8.72432C4.38799 8.86807 4.62393 8.86963 4.76925 8.72432L5.21457 8.27744L6.89896 9.96183L4.17237 12.69L3.17704 11.6947C3.27079 10.0415 3.47392 8.43213 3.95986 7.02273ZM3.64736 13.215L3.09579 13.7666L3.10673 13.3791C3.11298 13.1525 3.12391 12.9259 3.13173 12.6994L3.64736 13.215ZM3.32548 20.401C3.46923 20.5448 3.70517 20.5463 3.85049 20.401L4.96456 19.287L6.65052 20.9714L4.96456 22.6573L2.91454 20.6057L3.00204 17.3229L4.43956 18.7604L3.32548 19.8745C3.18017 20.0198 3.18017 20.2557 3.32548 20.401ZM3.0286 16.301L3.06766 14.826C3.07704 14.8181 3.0911 14.8213 3.10048 14.8119L4.17237 13.74L6.81615 16.3838L4.96456 18.2354L3.0286 16.301ZM4.43956 23.1823L2.80203 24.8198L2.88641 21.6307L4.43956 23.1823ZM18.8007 1.96329L22.2523 1.86641L20.4773 3.64144L18.8007 1.96329ZM24.9648 1.78829L28.3477 1.69297L26.6086 3.43206L24.9648 1.78829ZM40.4963 1.63829C41.5729 1.76485 42.6338 1.9836 43.6666 2.33048C43.5088 2.44923 42.5651 3.4055 42.4151 3.5555L40.4963 1.63829ZM38.6322 1.49922L36.7822 3.34768L34.9447 1.51016C36.3369 1.4711 37.2666 1.44453 38.6322 1.49922ZM13.3553 2.11642L14.6991 2.07892L13.3147 3.46331L12.0225 2.17111C12.4584 2.14767 12.9006 2.12892 13.3553 2.11642ZM6.42865 3.61019L7.63022 4.81177L5.21457 7.22742L4.26768 6.27897C4.8755 4.93052 5.56301 4.19926 6.42865 3.61019ZM1.51139 73.3283L2.70985 28.2527C2.73953 28.2465 2.78016 28.2418 2.7911 28.2355H98.3018C98.6768 44.617 98.5189 61.1625 97.7814 77.4877C97.2642 88.866 94.2173 92.127 82.8578 92.2051C61.5825 92.3551 39.4385 92.2942 17.0522 92.0301C6.14114 91.902 1.07857 89.441 1.51139 73.3283Z" fill="#1A064F"/>
<path d="M19.6194 80.3378C23.035 80.4893 25.2007 80.419 44.2916 79.7893C46.8963 79.7206 48.626 78.844 49.1276 75.7877C49.787 71.8174 47.201 67.5954 43.3603 66.3782C40.7697 65.5579 36.954 66.0313 35.9883 63.4172C38.0196 61.8219 39.9103 59.1625 40.615 53.4405C40.9978 50.3311 40.8587 47.8858 40.1806 45.7467C38.2478 39.5857 32.118 37.6216 28.3898 40.6435C26.8289 41.9013 24.2194 39.7529 22.071 45.0936C20.0116 50.2014 20.7006 56.4343 23.8226 60.9703C24.5413 62.0188 25.346 62.886 26.2132 63.5813C24.1882 68.1829 17.5834 65.7454 13.5474 70.647C11.799 72.7689 11.5568 75.8315 12.9865 77.7737C14.5365 79.869 17.3475 80.244 19.6194 80.3378ZM17.9631 78.7034L19.1162 77.5502L20.1209 78.5549L20.0772 78.5987C20.0053 78.6706 19.9709 78.7643 19.9694 78.8581C19.8741 78.855 19.7772 78.8581 19.6819 78.8549C19.1319 78.8299 18.5475 78.7846 17.9631 78.7034ZM21.2272 78.8721C21.2522 78.7628 21.2382 78.6549 21.1631 78.5628L22.721 77.0049L23.9976 78.2815L23.6819 78.5971C23.5976 78.6815 23.5772 78.7924 23.5913 78.9018C22.8007 78.9081 22.0147 78.8878 21.2272 78.8721ZM27.8273 78.4612C27.7273 78.5612 27.7226 78.6956 27.7585 78.8221C27.0179 78.844 26.271 78.8612 25.521 78.8768C25.5085 78.8049 25.4929 78.7299 25.4366 78.6737L25.046 78.2831L26.5601 76.769L28.0398 78.2487L27.8273 78.4612ZM24.6132 78.8987C24.5507 78.9003 24.4898 78.9018 24.4257 78.9034L24.521 78.8081L24.6132 78.8987ZM28.5758 78.8018C28.5632 78.8018 28.5507 78.8018 28.5382 78.8034L28.5836 78.7581C28.6132 78.7799 28.6476 78.7878 28.682 78.7987L28.5758 78.8018ZM29.1101 78.7846L28.9242 78.7909C28.9695 78.7721 29.0195 78.7721 29.0554 78.7362C29.1867 78.6049 29.182 78.4081 29.0773 78.2628L30.5039 76.8362L32.0086 78.3409C31.9414 78.4549 31.9414 78.5784 32.0055 78.694C31.0414 78.7221 30.0742 78.755 29.1101 78.7846ZM37.5493 74.2283L39.054 75.733L37.1665 77.6206L35.4477 75.9033L37.479 73.8721C37.4446 73.9955 37.4509 74.1299 37.5493 74.2283ZM41.3462 74.4893L42.8603 76.0033L41.6181 77.2456L40.104 75.7315L41.3462 74.4893ZM41.0931 77.7721L40.8118 78.0534C40.7118 78.1534 40.7056 78.2893 40.7447 78.4159C39.7118 78.4487 38.6806 78.4815 37.6477 78.5143C37.7118 78.4065 37.7134 78.2893 37.6602 78.1784L39.579 76.2596L41.0931 77.7721ZM41.6181 78.2971L41.7056 78.3846C41.6462 78.3862 41.5853 78.3878 41.5259 78.3909L41.6181 78.2971ZM36.6415 78.1456L36.2274 78.5596C35.1118 78.5956 33.9961 78.6315 32.8805 78.6659C32.9539 78.5846 32.9789 78.4846 32.968 78.3831L34.9227 76.4284L36.6415 78.1456ZM44.2478 78.3049C43.74 78.3221 43.2322 78.3362 42.7228 78.3534L42.1431 77.7737L43.3853 76.5315L45.0775 78.2237C45.0978 78.244 45.1291 78.2393 45.1525 78.2549C44.851 78.2846 44.5432 78.2971 44.2478 78.3049ZM43.9119 76.0049L45.5963 74.3205L46.4885 75.2127C46.5182 75.2424 46.5619 75.2408 46.5979 75.258L44.8822 76.9737L43.9119 76.0049ZM47.6635 75.5455C47.4573 76.8065 46.8869 77.8971 45.6244 78.1753C45.7338 78.0299 45.7369 77.8284 45.6057 77.6971L45.4104 77.5018L47.6869 75.2252C47.6713 75.3315 47.6807 75.4377 47.6635 75.5455ZM47.7354 74.458C47.6026 74.4049 47.4526 74.4049 47.3447 74.5143L47.0604 74.7986C47.0432 74.7627 47.0447 74.719 47.0151 74.6893L46.1229 73.7971L46.5994 73.3205C46.7447 73.1752 46.7447 72.9408 46.5994 72.7955C46.2682 72.4642 45.9354 72.933 45.5979 73.2721L44.6947 72.3689L45.4275 71.6361L45.7775 71.9861C45.9213 72.1299 46.1572 72.1314 46.3025 71.9861C46.4479 71.8408 46.4479 71.6064 46.3025 71.4611L45.9525 71.1111L46.4947 70.5689C47.2666 71.7189 47.7244 73.0752 47.7354 74.458ZM46.0494 69.9611L45.426 70.5845L44.5228 69.683L45.1525 69.0533C45.4775 69.3283 45.776 69.633 46.0494 69.9611ZM31.6633 62.0344L30.4258 63.2719C30.2851 63.4126 30.2555 63.6532 30.4711 63.8157C30.3226 63.8032 30.1711 63.8047 30.0242 63.7797C30.3726 63.7063 30.3992 63.3594 30.2164 63.1751L29.1367 62.0969L30.432 60.8016L31.6633 62.0344ZM30.957 60.2781L32.6352 58.6L33.8664 59.8313L32.1883 61.5094L30.957 60.2781ZM29.7836 63.7422C29.2258 63.6188 28.682 63.3829 28.1523 63.0844L28.6117 62.625C28.7601 62.7719 29.6008 63.6407 29.7836 63.7422ZM32.1883 62.561L33.0477 63.4204C32.3117 63.7047 31.5664 63.8547 30.8352 63.8469C31.0258 63.7579 32.032 62.7172 32.1883 62.561ZM33.6946 63.1469C33.6852 63.0657 33.6633 62.9844 33.6008 62.9219L32.7133 62.0344L34.3915 60.3563L35.7305 61.6953C35.0305 62.3829 34.429 62.7766 33.6946 63.1469ZM36.2274 61.1422L34.9165 59.8328L36.1165 58.6328L36.8305 59.3484C36.9743 59.4922 37.2102 59.4938 37.3556 59.3484C37.5009 59.2031 37.5009 58.9687 37.3556 58.8234L35.5555 57.0218L37.0102 55.5671L37.5337 56.0906C37.6774 56.2343 37.9118 56.2375 38.0587 56.0906C38.204 55.9453 38.204 55.7109 38.0587 55.5656L37.5352 55.0421L38.7868 53.7906C38.8509 53.7265 38.8759 53.6421 38.8837 53.5577C38.9665 53.5546 39.0462 53.5218 39.1118 53.464C38.5712 57.6219 37.4306 59.7266 36.2274 61.1422ZM39.1618 53.0109C39.1462 52.9859 39.1509 52.953 39.129 52.9312L37.8556 51.6577L38.8946 50.6171C39.0462 50.7686 39.14 50.889 39.3181 50.9749C39.2962 51.6155 39.2446 52.2937 39.1618 53.0109ZM39.3165 49.5764C39.19 49.4921 39.0368 49.4921 38.9118 49.5811L38.4306 49.0999L39.2009 48.3295C39.2509 48.7342 39.2978 49.1421 39.3165 49.5764ZM25.0476 60.1266C22.1991 55.989 21.5725 50.3061 23.4507 45.6483C24.7835 42.3279 26.0398 42.6951 27.5664 42.6092C28.7804 42.5513 28.9758 41.8982 29.9086 41.3779C33.1414 39.5513 37.9352 41.6154 39.0759 47.4748C38.8868 47.5592 38.0618 48.4202 37.9024 48.578C37.5462 48.2436 37.0493 48.7686 37.3868 49.1077L37.6415 49.3624L38.3696 50.0889L37.3009 51.1577C37.1618 51.0858 36.9946 51.0811 36.8759 51.1999C36.7509 51.3249 36.7555 51.5108 36.8462 51.6546C36.754 51.7983 36.7493 51.9827 36.8759 52.1093C37.0368 52.2702 37.1618 52.2233 37.3009 52.1515L38.3681 53.2202C38.3321 53.2374 38.2899 53.2359 38.2603 53.264L37.0087 54.5156L36.3134 53.8202C36.168 53.6749 35.9337 53.6749 35.7883 53.8202C35.643 53.9656 35.643 54.1999 35.7883 54.3452L36.4837 55.0406L35.029 56.4953L34.7805 56.2468C34.6352 56.1015 34.4008 56.1015 34.2555 56.2468C34.1102 56.3922 34.1102 56.6265 34.2555 56.7718L35.5899 58.1062L34.3899 59.3063L33.1586 58.075L33.3602 57.8734C33.5055 57.7281 33.5055 57.4937 33.3602 57.3484C33.2149 57.2031 32.9805 57.2031 32.8352 57.3484L32.6336 57.55L32.3539 57.2703C32.2086 57.125 31.9742 57.125 31.8289 57.2703C31.6836 57.4156 31.6836 57.65 31.8289 57.7953L32.1086 58.0765L30.4305 59.7547L29.9258 59.25C29.7805 59.1047 29.5461 59.1047 29.4008 59.25C29.2554 59.3953 29.2554 59.6297 29.4008 59.775L29.9055 60.2797L28.6117 61.5735L27.8211 60.7828C27.6757 60.6375 27.4414 60.6375 27.296 60.7828C27.1507 60.9282 27.1507 61.1625 27.296 61.3078L28.0882 62.1L27.4929 62.6954C26.6038 62.0594 25.782 61.1985 25.0476 60.1266ZM14.6928 71.5892C18.2881 67.2298 25.0804 69.5439 27.4617 64.436C29.8508 65.7579 32.4477 65.5845 34.7383 64.2907C36.3196 67.5064 40.5212 67.036 42.9119 67.7954C43.4994 67.9814 44.0353 68.2767 44.54 68.6158L43.8713 69.2845C43.7619 69.3939 43.7619 69.5486 43.8181 69.683C43.7619 69.8173 43.7603 69.972 43.8713 70.0814L44.901 71.1111L44.1306 71.8814C43.9963 71.8267 43.8463 71.8267 43.7369 71.9361C43.5916 72.0814 43.5916 72.3158 43.7369 72.4611L43.8228 72.5471C43.84 72.5861 43.8385 72.6314 43.8713 72.6642C43.9041 72.6971 43.9494 72.6955 43.9885 72.7127L45.0713 73.7955L43.3869 75.4799L41.8728 73.9658L42.7916 73.0471C42.9369 72.9017 42.9369 72.6674 42.7916 72.5221C42.6462 72.3767 42.4119 72.3767 42.2666 72.5221L41.2962 73.4924C41.1744 73.4627 41.0462 73.4721 40.9509 73.5674C40.8556 73.6627 40.8462 73.7908 40.8759 73.9127L39.5806 75.208L38.0759 73.7033C37.9774 73.6049 37.8446 73.5986 37.7196 73.633L37.8493 73.5033C37.9946 73.358 37.9946 73.1236 37.8493 72.9783C37.704 72.833 37.4696 72.833 37.3243 72.9783L34.9243 75.3783L33.8602 74.3158C33.7149 74.1705 33.4805 74.1705 33.3352 74.3158C33.1899 74.4611 33.1899 74.6955 33.3352 74.8408L34.3977 75.9033L32.5102 77.7909L31.0305 76.3112L33.6743 73.6674C33.8196 73.5221 33.8196 73.2877 33.6743 73.1424C33.5289 72.9971 33.2946 72.9971 33.1492 73.1424L30.5055 75.7862L29.9867 75.2674C29.8414 75.1221 29.607 75.1221 29.4617 75.2674C29.3164 75.4127 29.3164 75.6471 29.4617 75.7924L29.9805 76.3112L28.5679 77.7237L27.0882 76.244L29.3445 73.9877C29.4898 73.8424 29.4898 73.608 29.3445 73.4627C29.1992 73.3174 28.9648 73.3174 28.8195 73.4627L26.5632 75.719L26.3835 75.5393C26.2382 75.394 26.0038 75.394 25.8585 75.5393C25.7132 75.6846 25.7132 75.919 25.8585 76.0643L26.0382 76.244L24.5241 77.7581L23.2476 76.4815L24.8866 74.8424C25.032 74.6971 25.032 74.4627 24.8866 74.3174C24.7413 74.1721 24.5069 74.1721 24.3616 74.3174L22.6991 75.9799C22.5569 75.8955 22.3788 75.8924 22.2569 76.0143C22.135 76.1362 22.1382 76.3143 22.2225 76.4565L20.6506 78.0284L19.6459 77.0237L21.0444 75.6252C21.1897 75.4799 21.1897 75.2455 21.0444 75.1002C20.8991 74.9549 20.6647 74.9549 20.5194 75.1002L19.1209 76.4987L19.0428 76.4205C18.8975 76.2752 18.6631 76.2752 18.5178 76.4205C18.3725 76.5659 18.3725 76.8002 18.5178 76.9455L18.5959 77.0237L17.66 77.9596L16.7318 77.033C16.585 76.8877 16.3506 76.8893 16.2068 77.033C16.0615 77.1784 16.0615 77.4127 16.2068 77.5581L17.135 78.4846L17.0818 78.5378C15.9271 78.2737 14.8568 77.7971 14.1849 76.8893C13.0005 75.2862 13.563 72.9611 14.6928 71.5892Z" fill="#1A064F"/>
<path d="M56.7466 49.0858C58.4903 50.3452 58.6669 49.9952 83.2063 49.7718C84.1907 49.7624 85.4141 49.7515 86.4657 49.1405C87.6251 48.4671 88.3892 46.8921 87.6782 45.6217C86.9313 44.2842 85.1532 44.2436 84.3954 44.2248C60.4107 43.667 59.7857 43.4061 57.1794 44.4248C55.1247 45.2327 54.8387 47.7108 56.7466 49.0858ZM57.7216 45.8108C60.0013 44.917 60.731 45.1608 84.3594 45.7124C85.1454 45.7311 86.0845 45.8202 86.3813 46.3483C86.6485 46.8264 86.2454 47.5514 85.7188 47.8577C85.0095 48.2718 84.0454 48.2796 83.1938 48.2874C60.9904 48.4905 59.0419 48.9124 57.6169 47.8827C57.1497 47.5468 56.9044 47.0921 56.9575 46.6671C57.0044 46.2936 57.2825 45.9811 57.7216 45.8108Z" fill="#1A064F"/>
<path d="M60.4293 61.0157C60.5747 61.0157 60.7153 61.0157 60.8497 61.0141L83.2046 60.811C84.189 60.8016 85.4125 60.7922 86.4641 60.1797C88.4985 58.9969 88.9922 55.375 84.3937 55.264L63.47 54.7765C60.595 54.7062 55.848 54.6453 55.484 57.5187C55.2949 59.0031 56.4199 61.0157 60.4293 61.0157ZM61.9419 56.2375C62.4403 56.2375 62.9403 56.2484 63.4356 56.2609L84.3609 56.7484C85.1469 56.7672 86.0859 56.8562 86.3828 57.3844C86.65 57.8609 86.2469 58.5875 85.7203 58.8938C85.0109 59.3078 84.0468 59.3156 83.1953 59.3234L60.8387 59.5266C59.5559 59.536 58.4262 59.5 57.6184 58.9188C57.1512 58.5828 56.9059 58.1281 56.959 57.7031C57.1246 56.3578 60.5918 56.2375 61.9419 56.2375Z" fill="#1A064F"/>
<path d="M59.2013 71.4717C59.3044 71.4717 59.4044 71.4717 59.4982 71.4701L75.3187 71.267C76.0312 71.2576 77.0047 71.2451 77.8297 70.567C79.3438 69.3216 79.6 65.831 76.1687 65.72L61.3654 65.2325C58.8341 65.1481 55.8653 65.3216 55.4981 67.8341C55.27 69.3732 56.1778 71.4717 59.2013 71.4717ZM56.9669 68.0482C57.181 66.57 59.9513 66.6716 61.4373 66.72L76.1187 67.2029C76.9625 67.231 77.2016 67.4247 77.3297 67.7513C77.5438 68.2951 77.2625 69.1076 76.8859 69.4185C76.4937 69.7404 75.9812 69.7716 75.3 69.7795C59.7076 69.981 56.5653 70.781 56.9669 68.0482Z" fill="#1A064F"/>
<path d="M17.1272 73.3956C19.3976 69.633 26.6586 71.758 28.3696 66.9767C28.4399 66.783 28.3383 66.5705 28.1446 66.5017C27.9555 66.4345 27.7383 66.5314 27.6696 66.7252C26.1399 70.9955 18.971 68.8939 16.4913 73.0127C16.3851 73.1877 16.4413 73.4174 16.6179 73.5221C16.7929 73.6284 17.021 73.5737 17.1272 73.3956Z" fill="#1A064F"/>
</svg>
