<svg width="75" height="42" viewBox="0 0 75 42" fill="none" xmlns="http://www.w3.org/2000/svg">
<path d="M24.7291 37.4411H21.7201V25.5171H24.7291V37.4411Z" fill="#6A7A99"/>
<path d="M48.9911 28.9341C48.2143 28.5126 47.344 28.293 46.4602 28.2959C46.0308 28.2723 45.6012 28.3377 45.1982 28.4878C44.7952 28.6378 44.4275 28.8693 44.1181 29.168C43.8088 29.4666 43.5645 29.8261 43.4005 30.2236C43.2365 30.6211 43.1563 31.0481 43.1651 31.478C43.1561 31.908 43.236 32.3352 43.3998 32.7329C43.5636 33.1306 43.8078 33.4902 44.1172 33.7891C44.4266 34.0879 44.7944 34.3197 45.1976 34.4697C45.6008 34.6198 46.0306 34.685 46.4602 34.6611C47.3433 34.6631 48.2129 34.4453 48.9911 34.0278V37.228C48.1023 37.5005 47.1788 37.6431 46.2492 37.6518C45.4197 37.6902 44.5911 37.5581 43.8147 37.2637C43.0383 36.9692 42.3306 36.5187 41.7351 35.9399C41.1396 35.3613 40.669 34.667 40.3523 33.8994C40.0357 33.1318 39.8797 32.3073 39.8941 31.477C39.8806 30.6472 40.0371 29.8232 40.3541 29.0561C40.6711 28.2891 41.1418 27.5953 41.7371 27.0171C42.3326 26.439 43.0401 25.9891 43.8161 25.6948C44.5921 25.4006 45.4201 25.2682 46.2492 25.3061C47.1797 25.3087 48.1043 25.453 48.9911 25.7349V28.9341ZM17.5841 28.9341C16.8087 28.5118 15.939 28.2924 15.0561 28.2969C14.6264 28.2725 14.1963 28.3376 13.7927 28.4873C13.3892 28.637 13.021 28.8683 12.7111 29.167C12.4011 29.4657 12.1563 29.8253 11.9919 30.2231C11.8276 30.621 11.7473 31.0486 11.7561 31.479C11.7472 31.9095 11.8274 32.3373 11.9915 32.7353C12.1557 33.1334 12.4004 33.493 12.7102 33.792C13.0201 34.0908 13.3885 34.3224 13.7923 34.4722C14.196 34.6219 14.6262 34.6866 15.0561 34.6621C15.9384 34.6651 16.8074 34.4472 17.5841 34.0288V37.229C16.6946 37.5029 15.7699 37.6455 14.8391 37.6528C14.01 37.6912 13.1817 37.5591 12.4056 37.2646C11.6295 36.9702 10.9222 36.5197 10.3272 35.9409C9.73221 35.362 9.26221 34.6675 8.94625 33.8999C8.6303 33.1323 8.47506 32.308 8.49014 31.478C8.47639 30.6486 8.63262 29.8253 8.94924 29.0586C9.26587 28.2919 9.73617 27.598 10.3311 27.02C10.9261 26.442 11.6331 25.9922 12.4085 25.6977C13.184 25.4033 14.0115 25.2706 14.8401 25.3081C15.7712 25.3092 16.6967 25.453 17.5841 25.7349V28.9341ZM58.4571 28.3418C58.0452 28.3379 57.6368 28.4166 57.2558 28.5732C56.8749 28.7299 56.5292 28.9614 56.2392 29.2539C55.9492 29.5463 55.7207 29.8937 55.5673 30.2759C55.414 30.658 55.3388 31.0673 55.3462 31.479C55.3384 31.891 55.4133 32.3001 55.5666 32.6826C55.7198 33.0651 55.9481 33.4133 56.2381 33.706C56.5282 33.9988 56.874 34.2304 57.2552 34.3872C57.6363 34.544 58.045 34.623 58.4571 34.6191C58.8692 34.6229 59.278 34.544 59.6591 34.3872C60.0402 34.2304 60.3861 33.9988 60.6762 33.706C60.9664 33.4134 61.195 33.0656 61.3485 32.6831C61.5021 32.3006 61.5775 31.8911 61.5702 31.479C61.5765 31.0668 61.5001 30.6575 61.3455 30.2754C61.1909 29.8932 60.9612 29.5458 60.6701 29.2539C60.38 28.9615 60.0343 28.7304 59.6534 28.5737C59.2725 28.4171 58.864 28.338 58.4522 28.3418H58.4571ZM64.7522 31.478C64.7597 32.3016 64.601 33.1185 64.2855 33.8794C63.9701 34.6402 63.5043 35.3296 62.9162 35.9062C62.328 36.4829 61.6294 36.935 60.8624 37.2353C60.0953 37.5357 59.2756 37.6778 58.4522 37.6538C57.6288 37.6779 56.8091 37.536 56.042 37.2358C55.275 36.9356 54.5764 36.4837 53.9881 35.9072C53.3998 35.3305 52.9339 34.6409 52.6184 33.8799C52.303 33.1188 52.1444 32.3018 52.1521 31.478C52.1451 30.6546 52.3042 29.8381 52.62 29.0776C52.9358 28.3171 53.4019 27.6284 53.9901 27.0522C54.5784 26.476 55.2768 26.0241 56.0437 25.7241C56.8105 25.4241 57.63 25.282 58.4532 25.3061C59.2761 25.2824 60.0954 25.4249 60.8621 25.7251C61.6287 26.0253 62.327 26.477 62.9151 27.0532C63.5032 27.6294 63.969 28.3178 64.2848 29.0781C64.6006 29.8384 64.7599 30.6548 64.7531 31.478H64.7522ZM36.1352 28.228C35.3678 28.0166 34.5786 27.895 33.7832 27.8652C32.5772 27.8652 31.9221 28.2648 31.9221 28.8418C31.9221 29.5688 32.8062 29.822 33.3012 29.978L34.1311 30.2422C34.9194 30.4088 35.6287 30.8361 36.1444 31.4551C36.6602 32.0741 36.9525 32.8484 36.9741 33.6538C36.9741 36.6538 34.3401 37.6538 32.0371 37.6538C30.9472 37.6437 29.8603 37.5349 28.7901 37.3281V34.582C29.7143 34.8508 30.6691 34.9998 31.6311 35.0259C33.1311 35.0259 33.8161 34.5881 33.8161 33.9131C33.8161 33.3131 33.2161 32.9601 32.4741 32.7261C32.2931 32.6651 32.0181 32.5801 31.8321 32.5181C30.1561 31.9881 28.7591 31.0028 28.7591 29.0298C28.7591 26.7998 30.4292 25.3022 33.2022 25.3022C34.1911 25.3156 35.1753 25.4427 36.1352 25.6811V28.2261V28.228Z" fill="#6A7A99"/>
<path d="M5.2981 12.7031C5.29704 12.3078 5.13907 11.9289 4.85895 11.6499C4.57883 11.3709 4.19943 11.2148 3.80408 11.2153C3.40897 11.2151 3.02991 11.3712 2.74988 11.6499C2.46984 11.9286 2.31171 12.307 2.31012 12.7021V15.833C2.32103 16.2225 2.483 16.5926 2.76184 16.8647C3.04068 17.1369 3.41446 17.2896 3.80408 17.291C4.19415 17.2911 4.56879 17.1387 4.84796 16.8662C5.12713 16.5938 5.2887 16.223 5.2981 15.833V12.7031ZM13.5031 8.59522C13.5031 8.19898 13.3457 7.81875 13.0655 7.53857C12.7853 7.2584 12.4053 7.10107 12.0091 7.10107C11.6129 7.10107 11.2329 7.2584 10.9527 7.53857C10.6725 7.81875 10.5151 8.19898 10.5151 8.59522V15.833C10.5151 16.2292 10.6725 16.6095 10.9527 16.8896C11.2329 17.1698 11.6129 17.3271 12.0091 17.3271C12.4053 17.3271 12.7853 17.1698 13.0655 16.8896C13.3457 16.6095 13.5031 16.2292 13.5031 15.833V8.59424V8.59522ZM21.7091 2.97314C21.708 2.57787 21.5503 2.19905 21.2704 1.91992C20.9905 1.64079 20.6113 1.48437 20.2161 1.48438C19.8204 1.48411 19.4409 1.64055 19.1608 1.91992C18.8806 2.19929 18.7229 2.5785 18.7221 2.97412V18.8071C18.7318 19.1969 18.8934 19.5676 19.1725 19.8398C19.4517 20.1121 19.8262 20.2643 20.2161 20.2642C20.606 20.2643 20.9805 20.1121 21.2596 19.8398C21.5388 19.5676 21.7004 19.1969 21.7101 18.8071L21.7091 2.97314ZM29.9141 8.59522C29.9141 8.19898 29.7567 7.81875 29.4765 7.53857C29.1963 7.2584 28.8163 7.10107 28.4201 7.10107C28.0239 7.10107 27.6438 7.2584 27.3636 7.53857C27.0835 7.81875 26.9261 8.19898 26.9261 8.59522V15.833C26.9261 16.2292 27.0835 16.6095 27.3636 16.8896C27.6438 17.1698 28.0239 17.3271 28.4201 17.3271C28.8163 17.3271 29.1963 17.1698 29.4765 16.8896C29.7567 16.6095 29.9141 16.2292 29.9141 15.833V8.59424V8.59522ZM38.1141 12.7031C38.1143 12.3089 37.9581 11.9309 37.6796 11.6519C37.4012 11.3728 37.0233 11.2159 36.6291 11.2153C36.2338 11.2145 35.8544 11.3706 35.5743 11.6494C35.2941 11.9283 35.1361 12.3069 35.1351 12.7021V15.833C35.1351 16.2279 35.292 16.607 35.5712 16.8862C35.8505 17.1655 36.2292 17.3223 36.6241 17.3223C37.0181 17.3209 37.3956 17.1634 37.6738 16.8843C37.9519 16.6052 38.1081 16.2271 38.1081 15.833L38.1141 12.7031ZM46.3231 8.59522C46.3135 8.20666 46.1523 7.83737 45.8741 7.56592C45.596 7.29447 45.2228 7.14223 44.8341 7.14209C44.4454 7.14223 44.0722 7.29447 43.794 7.56592C43.5158 7.83737 43.3547 8.20666 43.3451 8.59522V15.833C43.3451 16.2279 43.5019 16.607 43.7812 16.8862C44.0604 17.1655 44.4392 17.3223 44.8341 17.3223C45.229 17.3223 45.6077 17.1655 45.887 16.8862C46.1662 16.607 46.3231 16.2279 46.3231 15.833V8.59424V8.59522ZM54.5341 2.97314C54.5339 2.57841 54.3768 2.19992 54.0976 1.9209C53.8184 1.64187 53.4398 1.48535 53.0451 1.48535C52.6504 1.48535 52.2718 1.64187 51.9926 1.9209C51.7133 2.19992 51.5564 2.57841 51.5561 2.97314V18.8071C51.5443 19.0759 51.6054 19.3428 51.7331 19.5796C51.8607 19.8164 52.0501 20.0145 52.2811 20.1523C52.5121 20.29 52.7761 20.3623 53.0451 20.3623C53.3141 20.3623 53.578 20.29 53.8091 20.1523C54.0402 20.0144 54.2297 19.8161 54.3574 19.5791C54.485 19.3421 54.5461 19.0751 54.5341 18.8062V2.97314ZM62.7431 8.59522C62.7424 8.39802 62.7028 8.20288 62.6266 8.021C62.5505 7.83911 62.4391 7.67398 62.2991 7.53516C62.1588 7.3968 61.9926 7.2875 61.8101 7.21338C61.6275 7.13926 61.4321 7.10162 61.2351 7.10303C60.8401 7.10329 60.4613 7.26064 60.1821 7.54004C59.9029 7.81944 59.7461 8.19826 59.7461 8.59326V15.832C59.7456 16.028 59.7838 16.2221 59.8584 16.4033C59.933 16.5845 60.0427 16.7494 60.1811 16.8882C60.4605 17.1681 60.8396 17.3256 61.2351 17.3262C61.4324 17.3279 61.6281 17.2906 61.8109 17.2163C61.9937 17.142 62.16 17.032 62.3001 16.8931C62.4404 16.7543 62.5518 16.5893 62.6278 16.4072C62.7038 16.2251 62.743 16.0294 62.7431 15.832V8.59326V8.59522ZM70.9371 12.7031C70.9371 12.3077 70.78 11.9285 70.5004 11.6489C70.2207 11.3693 69.8415 11.2119 69.4461 11.2119C69.0507 11.2119 68.6714 11.3693 68.3918 11.6489C68.1122 11.9285 67.9551 12.3077 67.9551 12.7031V15.833C67.9547 16.0291 67.993 16.2235 68.0677 16.4048C68.1424 16.5861 68.2522 16.7508 68.3907 16.8896C68.5292 17.0285 68.6937 17.1386 68.8748 17.2139C69.0559 17.2891 69.25 17.328 69.4461 17.3281C69.642 17.3279 69.836 17.2891 70.0169 17.2139C70.1978 17.1386 70.3621 17.0284 70.5005 16.8896C70.6388 16.7509 70.7486 16.5864 70.8233 16.4053C70.898 16.2242 70.9364 16.0299 70.9361 15.834V12.7041L70.9371 12.7031Z" fill="#6A7A99"/>
<path d="M69.2131 35.8711V36.0581H68.6811V37.4414H68.4621V36.0591H67.9282V35.8711H69.2131ZM69.3242 35.8711H69.6661L70.136 37.1592H70.1441L70.5991 35.8721H70.9351V37.4414H70.7111V36.1543H70.7031L70.2271 37.4414H70.0201L69.5551 36.1543H69.5451V37.4414H69.3261L69.3242 35.8711Z" fill="#6A7A99"/>
</svg>
