<svg width="100" height="97" viewBox="0 0 100 97" fill="none" xmlns="http://www.w3.org/2000/svg">
<path d="M95.7049 65.2436L93.3874 62.9261L92.7121 63.6014C92.5586 63.7549 92.3284 63.7549 92.1749 63.6014C92.0214 63.4479 92.0214 63.2023 92.1749 63.0642L92.8502 62.3889L91.6991 61.2532C91.5456 61.0997 91.5456 60.8541 91.6991 60.7006C91.8526 60.5472 92.0981 60.5472 92.2516 60.7006L93.3874 61.8364L94.9682 60.2709L93.5869 58.8896C93.4334 58.7361 93.4334 58.4905 93.5869 58.3524C93.7404 58.1989 93.9859 58.1989 94.1241 58.3524L97.0401 61.2532C97.1936 61.4066 97.1936 61.6522 97.0401 61.8057C96.8867 61.9438 96.6411 61.9438 96.503 61.8057L95.5054 60.8081L93.9245 62.3889L96.2421 64.7064C96.3955 64.8599 96.3955 65.1055 96.2421 65.2436C96.1039 65.3971 95.8584 65.3971 95.7049 65.2436Z" fill="#1A064F"/>
<path d="M89.1514 46.6884C89.535 46.6577 89.9187 47.0107 89.9494 47.4251C89.9648 47.8548 89.6271 48.2078 89.1974 48.2232L68.4625 48.9599H68.4471C68.0327 48.9599 67.6951 48.6376 67.6797 48.2232C67.6644 47.8088 67.9867 47.4404 68.4164 47.4251L89.1514 46.6884Z" fill="#1A064F"/>
<path d="M73.0054 37.8017L72.3301 37.111L71.6394 37.8017C71.9771 37.8017 72.3301 37.7863 72.6677 37.7863C72.7752 37.7863 72.898 37.8017 73.0054 37.8017ZM89.0592 34.8702C89.0592 34.64 89.0592 34.3944 89.0592 34.1489L88.6909 34.5172L89.0592 34.8702ZM86.711 37.6942C86.7724 37.771 86.8031 37.8477 86.8185 37.9398C87.5552 37.9244 88.2919 37.9398 89.0592 37.9091C89.0592 37.1417 89.0592 36.359 89.0592 35.5455C88.9058 35.6376 88.7676 35.6683 88.5988 35.5148L88.1537 35.0697L86.1125 37.0956L86.711 37.6942ZM86.6189 33.5349L84.5777 35.5762L85.5753 36.5585L87.6012 34.5172L86.6189 33.5349ZM82.3215 37.9398C83.488 37.9705 84.6851 37.9551 85.8822 37.9551L85.5753 37.6328L85.4525 37.7556C85.3144 37.8937 85.0688 37.8937 84.9153 37.7556C84.7618 37.6021 84.7618 37.3566 84.9153 37.2031L85.0228 37.0956L84.0405 36.1134L82.2908 37.8477C82.3062 37.8784 82.3215 37.9091 82.3215 37.9398ZM82.0299 34.1028L80.3263 35.8064L81.7997 37.2645L83.5033 35.5609L82.0299 34.1028ZM79.7891 36.3436L78.2697 37.8784H78.899C79.7124 37.9091 80.5412 37.9091 81.37 37.9244L79.7891 36.3436ZM76.8731 37.8477L76.4433 37.4026L76.0136 37.8323C76.3052 37.8323 76.5968 37.8323 76.8731 37.8477ZM89.8727 39.4285C82.9201 39.7201 77.0265 39.2136 70.074 39.3671L69.9665 39.4746C69.8898 39.5513 69.7977 39.582 69.6903 39.582C69.5982 39.582 69.5061 39.5513 69.4294 39.4746C69.3987 39.4439 69.3987 39.4132 69.3833 39.3825C68.9075 39.3978 68.4471 39.3978 67.9713 39.4132C67.5723 39.4592 67.1732 39.1062 67.1732 38.6458C67.1732 34.8702 67.0044 32.3992 67.0044 28.6236C67.0044 28.1939 67.3574 27.8562 67.7718 27.8562L89.7959 27.7642C90.2257 27.7642 90.5633 28.1018 90.5633 28.5316C90.6094 31.7239 90.5633 35.5148 90.6094 38.6458C90.6094 39.0602 90.2871 39.4132 89.8727 39.4285ZM76.9805 36.8654L77.5791 37.464L79.252 35.8064L78.7915 35.3613C78.7301 35.3 78.7148 35.2232 78.6994 35.1311L76.9805 36.8654ZM76.4433 36.3129L78.6994 34.0568C78.8376 33.9033 79.0831 33.9033 79.2366 34.0568C79.3901 34.2103 79.3901 34.4405 79.2366 34.594L79.1138 34.7167C79.1906 34.7321 79.2827 34.7474 79.3441 34.8088L79.7891 35.2693L81.7537 33.2894H81.769L82.7513 32.3071C82.8894 32.1536 83.135 32.1536 83.2885 32.3071C83.4419 32.4606 83.4419 32.6908 83.2885 32.8443L82.5825 33.5656L84.0405 35.0237L86.0818 32.9824L85.7748 32.6908C85.6213 32.5373 85.6213 32.2918 85.7748 32.1383C85.9283 31.9848 86.1738 31.9848 86.312 32.1383L86.6496 32.4759C86.8031 32.4146 86.9719 32.3992 87.0794 32.522C87.2022 32.6448 87.2022 32.8136 87.1254 32.9517L88.1537 33.98L88.5528 33.581C88.6909 33.4429 88.9058 33.4429 89.0592 33.5656C89.0592 32.1229 89.0592 30.6803 89.0439 29.2989L68.5392 29.3757C68.5699 32.5066 68.6773 34.7321 68.6927 37.8477C68.9689 37.8477 69.2452 37.8477 69.5214 37.8323L68.9382 37.2645C68.8001 37.1263 68.8001 36.8808 68.9382 36.7273C69.0917 36.5738 69.3373 36.5738 69.4907 36.7273L70.5497 37.7863L71.7776 36.5738L71.6241 36.405C71.4706 36.2515 71.4706 36.0213 71.6241 35.8678C71.7776 35.7143 72.0078 35.7143 72.1613 35.8678L72.3301 36.0213L73.957 34.3944C74.1104 34.2409 74.356 34.2409 74.5095 34.3944C74.6476 34.5326 74.6476 34.7781 74.5095 34.9316L72.8673 36.5738L74.1104 37.8017H74.9392L75.8908 36.8501L74.6783 35.6376C74.5402 35.4995 74.5402 35.2539 74.6783 35.1004C74.8318 34.947 75.0774 34.947 75.2308 35.1004L76.4433 36.3129Z" fill="#1A064F"/>
<path d="M89.1666 42.1299C89.5503 42.1913 89.934 42.4675 89.9494 42.8973C89.9494 43.3117 89.5964 43.6647 89.182 43.6647L68.447 43.7874H68.4317C68.0173 43.7874 67.6797 43.4498 67.6643 43.0354C67.6643 42.6057 68.002 42.2527 68.4317 42.2527L89.1666 42.1299Z" fill="#1A064F"/>
<path d="M61.4025 42.1299C61.8322 42.1299 62.1699 42.4675 62.1699 42.8973C62.1699 43.3117 61.8322 43.6647 61.4025 43.6647L40.6675 43.7874C40.2378 43.7874 39.9001 43.4498 39.9001 43.0354C39.9001 42.6057 40.2378 42.2527 40.6675 42.2527L61.4025 42.1299Z" fill="#1A064F"/>
<path d="M47.6355 59.3037C49.6921 59.3037 51.7026 60.2553 52.3473 62.2965C52.7616 63.6318 52.424 65.1819 51.4417 66.3177C51.3036 66.4712 51.1655 66.6093 51.0273 66.7474C48.5103 69.0496 44.2436 68.3436 42.6781 65.3968C41.9414 63.9848 42.1256 62.4347 43.2153 61.1455C44.2282 59.9483 45.9472 59.3037 47.6355 59.3037ZM44.0441 64.6755C45.1952 66.8548 48.5717 67.2999 50.2753 65.3201C50.7357 64.7829 50.9813 64.0922 50.9813 63.4323C50.9813 63.2021 50.9506 62.9718 50.8892 62.757C50.1218 60.3013 45.9165 60.332 44.3971 62.1431C43.5222 63.156 43.7218 64.0769 44.0441 64.6755Z" fill="#1A064F"/>
<path d="M44.7962 36.8347L43.8139 37.8017C44.1669 37.8017 44.5352 37.7863 44.8882 37.7863C45.1799 37.7863 45.4715 37.8017 45.7631 37.8017L44.7962 36.8347ZM55.7392 37.5407L55.3248 37.9551C55.6164 37.9551 55.8773 37.9705 56.1689 37.9705L55.7392 37.5407ZM52.071 37.0036L52.7463 37.6635C52.8077 37.7403 52.8384 37.8323 52.8538 37.9091C53.3296 37.9244 53.8053 37.9398 54.2965 37.9398C54.3118 37.9244 54.3118 37.8937 54.3272 37.8784L55.202 37.0036L53.6365 35.4381L52.071 37.0036ZM51.5339 37.5407L51.1962 37.8937H51.8869L51.5339 37.5407ZM50.1525 36.1594L49.3545 36.9575L50.0758 37.6789C50.1219 37.7249 50.1372 37.7863 50.1525 37.8477L50.9967 37.0036L50.1525 36.1594ZM48.8173 37.4947L48.4796 37.8323C48.7099 37.8323 48.9247 37.8323 49.1549 37.8477L48.8173 37.4947ZM61.2644 35.653L58.9776 37.9398C59.745 37.9244 60.497 37.9398 61.2951 37.9091C61.2797 37.1724 61.2797 36.405 61.2797 35.6223C61.2797 35.6376 61.2797 35.6376 61.2644 35.653ZM62.0932 39.4132C55.1406 39.7048 49.2317 39.2137 42.2638 39.3671C41.9415 39.6894 41.6498 40.0885 41.3275 39.7662C41.2201 39.6587 41.2201 39.5206 41.2508 39.3978C40.8978 39.3978 40.5448 39.3978 40.1918 39.4132C39.8081 39.4592 39.3937 39.1062 39.3937 38.6458C39.3937 34.8856 39.2402 32.5527 39.2402 28.6236C39.2402 28.1939 39.5779 27.8562 39.9923 27.8562L62.0318 27.7642C62.4462 27.7642 62.7838 28.1018 62.7992 28.5162C62.8452 31.7239 62.7838 35.5148 62.8299 38.6458C62.8452 39.0602 62.5076 39.3978 62.0932 39.4132ZM57.5656 35.745L56.2917 37.0036L57.0284 37.7403C57.0898 37.8017 57.1051 37.8784 57.1205 37.9551C57.5502 37.9551 58.0106 37.9551 58.4404 37.9398C58.2869 37.7863 58.2869 37.5561 58.4404 37.4026L58.8701 36.9575C58.8241 36.9422 58.778 36.9422 58.732 36.8961L57.5656 35.745ZM55.7392 36.4664L57.013 35.1925L55.6624 33.8266C55.5396 33.7191 55.5089 33.5503 55.5857 33.3968C55.601 33.3661 55.6317 33.3201 55.6624 33.2894C55.8159 33.1359 56.0461 33.1359 56.1996 33.2894L57.5502 34.64L58.8241 33.3815C58.9776 33.228 59.2231 33.228 59.3613 33.3815C59.5147 33.5196 59.5147 33.7652 59.3613 33.9186L58.1027 35.1925L59.2692 36.359C59.3152 36.405 59.3152 36.451 59.3306 36.4971L60.7272 35.1004C60.8653 34.9776 61.0649 34.9776 61.2183 35.0851L58.9008 32.7676L58.3023 33.3508C58.1488 33.5043 57.9186 33.5043 57.7651 33.3508C57.6116 33.1973 57.6116 32.9671 57.7651 32.8136L58.379 32.1843C58.3176 32.0462 58.3176 31.8774 58.4404 31.7546C58.5478 31.6318 58.7166 31.6472 58.8701 31.7086L59.9598 30.6189C60.1133 30.4654 60.3589 30.4654 60.497 30.6189C60.6505 30.7723 60.6505 31.0026 60.497 31.156L59.438 32.215L61.2797 34.0568C61.2797 32.4299 61.2797 30.7877 61.2644 29.2989L40.775 29.3757C40.7904 32.5066 40.9131 34.7321 40.9131 37.863C41.082 37.8477 41.2508 37.8477 41.4043 37.8477C41.2661 37.6942 41.2661 37.4486 41.4043 37.3105C41.5578 37.157 41.8033 37.157 41.9568 37.3105L42.4786 37.8323H42.7088L44.305 36.2362C44.259 36.1134 44.2743 35.9753 44.3664 35.8678C44.4738 35.7757 44.612 35.7604 44.7348 35.7911L45.6403 34.9009C45.7938 34.7474 46.024 34.7474 46.1775 34.9009C46.3309 35.039 46.3309 35.2846 46.1775 35.4381L45.3333 36.2822L46.73 37.6942C46.776 37.7249 46.7607 37.771 46.7914 37.817H47.4053L48.2648 36.9575L46.9602 35.653C46.8067 35.4995 46.8067 35.2539 46.9602 35.1004C47.1137 34.947 47.3439 34.9623 47.4974 35.1004L48.8019 36.405L49.6 35.6223L49.247 35.2693C49.0935 35.1158 49.0935 34.8702 49.247 34.7167C49.4005 34.5786 49.6461 34.5786 49.7995 34.7167L50.1372 35.0697L51.8101 33.4122C51.9636 33.2587 52.1938 33.2587 52.3473 33.4122C52.5008 33.5656 52.5008 33.7959 52.3473 33.9493L50.6897 35.6223L51.5339 36.4664L53.0993 34.9009L52.7924 34.594C52.6389 34.4405 52.6389 34.2103 52.7924 34.0568C52.9459 33.9033 53.1761 33.9033 53.3296 34.0568L53.6365 34.3484L54.8797 33.1052C55.0332 32.9517 55.2787 32.9517 55.4322 33.1052C55.5089 33.1819 55.555 33.274 55.555 33.3815C55.555 33.4736 55.5089 33.581 55.4322 33.6424L54.1737 34.9009L55.7392 36.4664Z" fill="#1A064F"/>
<path d="M61.3718 46.6884C61.8015 46.6577 62.1545 47.0107 62.1699 47.4251C62.1852 47.8548 61.8476 48.2078 61.4332 48.2232L40.6983 48.9599C40.6829 48.9599 40.6829 48.9599 40.6676 48.9599C40.2532 48.9599 39.9155 48.6376 39.9002 48.2232C39.8848 47.8088 40.2225 47.4404 40.6369 47.4251L61.3718 46.6884Z" fill="#1A064F"/>
<path d="M33.6535 48.2232L12.9186 48.9599C12.9186 48.9599 12.9032 48.9599 12.8879 48.9599C12.4735 48.9599 12.1358 48.6376 12.1205 48.2232C12.1052 47.8088 12.4428 47.4404 12.8725 47.4251L33.6075 46.6884C34.0065 46.6577 34.3749 47.0107 34.3902 47.4251C34.4056 47.8548 34.0833 48.2078 33.6535 48.2232Z" fill="#1A064F"/>
<path d="M17.4002 12.9536H19.5796L19.6103 12.1401C19.6103 11.9253 19.7791 11.7564 19.994 11.7564C20.2088 11.7718 20.3777 11.9406 20.3777 12.1555L20.347 12.9382L23.7695 12.9229L23.8002 12.0327C23.8002 11.8332 23.9691 11.6643 24.1839 11.6643C24.3988 11.6643 24.5676 11.8485 24.5676 12.0634L24.5369 12.9229L30.3998 12.8922L30.4151 12.1401C30.4305 11.9253 30.5993 11.7718 30.7988 11.7718H30.8142C31.0291 11.7718 31.1979 11.956 31.1825 12.1555L31.1672 12.8922L33.8377 12.8768L33.6996 12.0327C33.6535 11.8178 33.807 11.6183 34.0065 11.5876C34.2368 11.5569 34.4209 11.695 34.4516 11.9099L34.6051 12.8768L37.9202 12.8615L37.8742 11.9713C37.8589 11.7718 38.0277 11.5876 38.2425 11.5723C38.4881 11.5569 38.6262 11.7257 38.6416 11.9406L38.6876 12.8461H40.7289C40.9438 12.8461 41.1126 13.015 41.1279 13.2298C41.1279 13.4447 40.9591 13.6135 40.7442 13.6135L38.7337 13.6289L38.8411 15.4706C38.8411 15.6855 38.6876 15.8697 38.4728 15.885C38.4574 15.885 38.4574 15.885 38.4574 15.885C38.2425 15.885 38.0737 15.7162 38.0737 15.5167L37.9663 13.6289L34.7279 13.6442L34.9581 14.9795C34.9888 15.1943 34.8353 15.3939 34.6358 15.4246C34.6051 15.4246 34.5898 15.4246 34.5744 15.4246C34.3902 15.4246 34.2214 15.2864 34.1907 15.1023L33.9605 13.6442L31.1518 13.6596L31.1058 15.133C31.0905 15.3325 30.9216 15.5013 30.7221 15.5013H30.7068C30.4919 15.486 30.3231 15.3171 30.3384 15.1023L30.3844 13.6596L24.5216 13.6903L24.4755 15.0255C24.4602 15.2404 24.2914 15.3939 24.0918 15.3939H24.0765C23.8616 15.3939 23.6928 15.2097 23.7081 14.9948L23.7388 13.6903L20.3316 13.7056L20.2856 15.5013C20.2702 15.7162 20.1014 15.8697 19.9019 15.8697C19.8865 15.8697 19.8865 15.8697 19.8865 15.8697C19.6717 15.8697 19.5028 15.6855 19.5182 15.486L19.5642 13.721H17.4155H17.4002C17.2007 13.721 17.0318 13.5521 17.0165 13.3373C17.0165 13.1224 17.1853 12.9536 17.4002 12.9536Z" fill="#1A064F"/>
<path d="M33.0857 32.0002L32.2876 32.7983L33.5001 34.0107C33.5001 33.8112 33.5001 32.6141 33.5001 32.4146L33.0857 32.0002ZM31.7504 36.6966L30.7682 37.6635L30.7835 37.6942C30.8449 37.7556 30.8756 37.8477 30.8909 37.9398C31.7658 37.9398 32.6252 37.9398 33.5154 37.9091C33.5154 37.0036 33.5001 36.052 33.5001 35.1004L33.3619 34.947C33.3466 35.0237 33.3312 35.1004 33.2699 35.1618L32.2876 36.1441L32.9629 36.804C33.101 36.9575 33.101 37.2031 32.9629 37.3412C32.8094 37.4947 32.5639 37.4947 32.4104 37.3412L31.7504 36.6966ZM29.0339 35.9446L30.2156 37.1263L31.1979 36.1441L30.0315 34.9623L29.0339 35.9446ZM24.9206 37.7863L24.1993 37.065L23.3705 37.8784C25.3657 37.9244 27.407 37.9551 29.4943 37.9551C29.5096 37.8937 29.525 37.8323 29.571 37.771L29.6785 37.6635L28.4967 36.4817L27.5298 37.464C27.3763 37.6175 27.1307 37.6021 26.9772 37.464C26.8391 37.3105 26.8391 37.065 26.9772 36.9115L27.9595 35.9446L26.6396 34.6246L24.7365 36.5124L25.4578 37.2338C25.6113 37.3873 25.6113 37.6328 25.4578 37.7863C25.3043 37.9244 25.0588 37.9398 24.9206 37.7863ZM18.7201 37.8017L18.5973 37.6942L18.4899 37.8017H18.7201ZM19.4721 37.464C19.5642 37.5561 19.5796 37.6942 19.5489 37.817C20.1474 37.817 20.746 37.8323 21.3446 37.8477L19.9172 36.405C19.9019 36.405 19.9019 36.3896 19.9019 36.3896L19.1498 37.1417L19.4721 37.464ZM34.3289 39.4132C26.6242 39.7508 20.0247 39.0909 12.4275 39.4132C11.9824 39.4592 11.614 39.0755 11.614 38.6458C11.614 34.8702 11.4606 32.3992 11.4606 28.6236C11.4606 28.1939 11.7982 27.8562 12.228 27.8562L34.2521 27.7642C34.6819 27.7642 35.0195 28.1018 35.0195 28.5162C35.0656 31.7393 35.0195 35.4381 35.0502 38.6458C35.0656 39.0602 34.7432 39.3978 34.3289 39.4132ZM17.5076 36.6045C17.3695 36.451 17.3695 36.2055 17.5076 36.0673C17.6611 35.9139 17.9067 35.9139 18.0601 36.0673L18.5973 36.6045L22.7259 32.4759C22.8794 32.3225 23.1249 32.3225 23.2784 32.4759C23.4165 32.6294 23.4165 32.8596 23.2784 33.0131L20.4237 35.8678H20.4544L21.9585 37.3719C22.0813 37.51 22.0813 37.7096 21.9738 37.863H22.4803C22.4803 37.771 22.511 37.6635 22.5878 37.5868L23.6468 36.5278L22.7719 35.6529C22.6185 35.4995 22.6185 35.2539 22.7719 35.1004C22.9254 34.947 23.171 34.9623 23.3245 35.1004L24.1993 35.9753L26.9158 33.2587C27.0693 33.1052 27.3149 33.1052 27.4684 33.2587C27.6218 33.3968 27.6218 33.6424 27.4684 33.7959L27.1768 34.0875L28.4967 35.4074L29.4789 34.4251L29.0799 34.0261C28.9418 33.8726 28.9418 33.627 29.0799 33.4736C29.2334 33.3354 29.4789 33.3354 29.6324 33.4736L30.0929 33.934C30.2003 33.9186 30.3231 33.934 30.4152 34.0261C30.5072 34.1182 30.5226 34.241 30.5072 34.3637L31.7504 35.6069L32.7173 34.6246C32.7787 34.5633 32.8555 34.5479 32.9475 34.5326L30.9063 32.4913C30.7528 32.3378 30.7528 32.1076 30.9063 31.9541C31.0444 31.8006 31.29 31.8006 31.4435 31.9541L31.7504 32.2611L32.5485 31.463L31.6737 30.5882C31.5202 30.4347 31.5202 30.1891 31.6737 30.0356C31.8118 29.8822 32.0574 29.8822 32.2109 30.0356L33.0857 30.9105L33.5001 30.4961C33.5001 30.097 33.5001 29.698 33.5001 29.2989L12.9954 29.3757C13.0107 32.5066 13.1335 34.7321 13.1488 37.863C14.7143 37.8016 15.9421 37.7863 17.4002 37.8017L18.0601 37.1417L17.5076 36.6045Z" fill="#1A064F"/>
<path d="M12.888 42.2527L33.6229 42.1299C34.0527 42.1299 34.3903 42.4675 34.4057 42.8973C34.4057 43.3117 34.0527 43.6647 33.6383 43.6647L12.9033 43.7874C12.888 43.7874 12.888 43.7874 12.888 43.7874C12.4736 43.7874 12.1206 43.4498 12.1206 43.0354C12.1206 42.6057 12.4583 42.2527 12.888 42.2527Z" fill="#1A064F"/>
<path d="M69.9818 20.7192L69.2912 21.4099C69.7516 21.4099 70.212 21.4099 70.6571 21.3945L69.9818 20.7192ZM68.4777 21.149L69.4446 20.182L67.9866 18.724C67.9559 18.678 67.9405 18.6166 67.9252 18.5705L66.5132 19.9825L67.5415 21.0108C67.6643 21.1336 67.6643 21.3024 67.5875 21.4406C67.8485 21.4406 68.1094 21.4406 68.3703 21.4252C68.3549 21.3331 68.401 21.2257 68.4777 21.149ZM66.8969 21.4559L65.976 20.535L65.0091 21.4866C65.6384 21.4713 66.2676 21.4559 66.8969 21.4559ZM60.9419 21.241C61.0033 21.3485 61.0187 21.4406 60.988 21.548C61.74 21.5327 62.4767 21.5327 63.2288 21.5173L61.9549 20.2434L60.9419 21.241ZM57.3812 20.9801L57.7649 21.3638C57.8263 21.4252 57.857 21.5173 57.857 21.594C58.4402 21.594 59.0388 21.5787 59.622 21.5633C59.6374 21.5327 59.6374 21.4713 59.6834 21.4406L59.8829 21.2257L58.5323 19.8751C58.517 19.8597 58.5323 19.8597 58.517 19.8597L57.3812 20.9801ZM56.9208 21.6094L56.8441 21.5327L56.752 21.6094H56.9208ZM87.6165 14.2578L86.6803 15.2093L87.1407 15.6698L87.4477 15.3628C87.5858 15.2247 87.8314 15.2247 87.9848 15.3628C88.1383 15.5163 88.1383 15.7619 87.9848 15.9153L87.6932 16.207L88.7062 17.2353C88.6755 16.6981 88.568 14.488 88.5527 14.3806C88.476 14.7336 88.123 14.7643 87.9234 14.5801L87.6165 14.2578ZM87.1407 16.7441L85.6366 18.2636L86.8184 19.4453L88.3532 17.8952C88.3225 17.8799 88.2764 17.8799 88.2457 17.8492L87.1407 16.7441ZM83.58 20.3202L84.4702 21.2103C85.9436 21.1797 87.4477 21.1643 88.9211 21.149C88.875 20.2895 88.829 19.4147 88.7829 18.5552L87.3556 19.9825L87.7086 20.3355C87.862 20.489 87.862 20.7192 87.7086 20.8727C87.5551 21.0262 87.3095 21.0262 87.156 20.8727L86.8184 20.5197L86.3119 21.0262C86.1584 21.1643 85.9282 21.1643 85.7747 21.0262C85.6213 20.8727 85.6213 20.6271 85.7747 20.4737L86.2659 19.9825L85.0841 18.8007L83.58 20.3202ZM83.0428 20.8573L82.6898 21.2103C82.6745 21.2257 82.6438 21.2257 82.6284 21.2257H83.3958L83.0428 20.8573ZM76.213 17.1585L78.2083 19.1537L79.7737 17.5883L78.6994 16.5293C78.5459 16.3758 78.5459 16.1302 78.6994 15.9921C78.8529 15.8386 79.0984 15.8386 79.2366 15.9921L80.3109 17.0511L81.8457 15.5163C81.9992 15.3628 82.2294 15.3628 82.3829 15.5163C82.5363 15.6698 82.5363 15.9153 82.3829 16.0688L80.8481 17.5883L83.0275 19.7677L84.5469 18.2636L82.9047 16.6213C82.7512 16.4679 82.7512 16.2223 82.9047 16.0842C83.0582 15.9307 83.3037 15.9307 83.4572 16.0842L85.0841 17.711L86.6035 16.207L86.1431 15.7465L85.8361 16.0535C85.6826 16.1916 85.4524 16.1916 85.299 16.0535C85.1455 15.9 85.1455 15.6544 85.299 15.501L85.6366 15.1633C85.5599 15.0252 85.5599 14.8563 85.6827 14.7336C85.8054 14.6261 85.9743 14.6261 86.1124 14.6875L87.0793 13.7206L86.3426 12.9839C86.2045 12.8304 86.2045 12.6002 86.3426 12.4467C86.4961 12.2933 86.7417 12.2933 86.8951 12.4467L88.476 14.0276C88.522 14.0736 88.522 14.135 88.5527 14.1964C88.476 13.0299 88.4146 11.8482 88.3532 10.6971C63.3669 9.26973 38.0583 9.33112 13.0874 10.8966C12.6269 14.7029 12.7037 18.417 12.2586 22.2847C25.6265 22.1312 39.2094 21.901 55.6469 21.6401L56.2915 20.9801L55.7544 20.443C55.6009 20.2895 55.6009 20.0593 55.7544 19.9058C55.9078 19.7523 56.1534 19.7523 56.2915 19.9058L56.8441 20.443L59.4532 17.8338C59.5913 17.6803 59.8369 17.6803 59.9904 17.8338C60.1438 17.9873 60.1438 18.2329 59.9904 18.371L59.0541 19.3226H59.0695L60.4201 20.6885L61.4177 19.6909L61.4024 19.6756C61.2489 19.5374 61.2489 19.2919 61.4024 19.1384C61.5405 18.9849 61.7861 18.9849 61.9395 19.1384L61.9549 19.1537L63.6892 17.4194C63.8427 17.266 64.0882 17.266 64.2264 17.4194C64.3798 17.5729 64.3798 17.8185 64.2264 17.9566L62.4921 19.6909L63.9348 21.1336C63.9962 21.2103 64.0269 21.2871 64.0422 21.3792L65.4235 19.9825L64.9324 19.4914C64.7789 19.3379 64.7789 19.0923 64.9324 18.9542C65.0858 18.8007 65.3314 18.8007 65.4695 18.9542L65.976 19.4453L68.1708 17.2353C68.3242 17.0818 68.5698 17.0818 68.7233 17.2353C68.8614 17.3887 68.8614 17.6343 68.7233 17.7878L68.3856 18.1254C68.4317 18.1408 68.4931 18.1408 68.5391 18.1868L69.9818 19.6295L71.4092 18.2175L71.0562 17.8645C70.9027 17.711 70.9027 17.4655 71.0562 17.3273C71.2096 17.1739 71.4399 17.1739 71.5933 17.3273L71.9463 17.665L72.9132 16.6981C73.0667 16.5446 73.3123 16.5446 73.4504 16.6981C73.6039 16.8516 73.6039 17.0971 73.4504 17.2506L72.4835 18.2175L73.2816 19.0156L75.1847 17.1125C75.154 16.9897 75.154 16.8516 75.2615 16.7441C75.3536 16.652 75.4917 16.6367 75.6145 16.6674L78.0087 14.2885C78.1622 14.135 78.4078 14.135 78.5459 14.2885C78.6994 14.442 78.6994 14.6722 78.5459 14.8256L76.213 17.1585ZM76.1209 21.241L77.6711 19.6909L75.6759 17.711L73.8341 19.5528L74.6783 20.3969C74.8164 20.5504 74.8164 20.7806 74.6783 20.9341C74.5248 21.0876 74.2792 21.0876 74.1257 20.9341L73.2816 20.09L72.3607 21.0262C72.2072 21.1643 71.9617 21.1643 71.8236 21.0262C71.6701 20.8727 71.6701 20.6271 71.8236 20.4737L72.7444 19.5528L71.9463 18.7547L70.5343 20.1667L71.225 20.8573C71.3631 21.0108 71.3631 21.241 71.225 21.3792C72.8519 21.3638 74.4634 21.3485 76.0903 21.3178C76.1056 21.2871 76.1056 21.2564 76.1209 21.241ZM77.1339 21.3024C78.8222 21.2871 80.5104 21.2564 82.1987 21.241C82.1833 21.2257 82.1526 21.2257 82.1373 21.2103C81.9838 21.0569 81.9838 20.8113 82.1373 20.6732L82.4903 20.3202L80.3109 18.1408L78.7454 19.6909L79.0063 19.9518C79.1598 20.1053 79.1598 20.3509 79.0063 20.489C78.8529 20.6425 78.6073 20.6425 78.4538 20.489L78.2083 20.2434L77.1339 21.3024ZM89.7345 22.6684C63.9348 22.9754 37.2602 23.5279 11.4144 23.8348C11.3991 23.8348 11.3991 23.8348 11.3991 23.8348C10.9387 23.8348 10.5703 23.4204 10.6317 22.96C11.2149 18.6473 11.0461 14.4726 11.6447 10.0678C11.6907 9.69947 11.9823 9.42321 12.3507 9.40786C37.8281 7.78099 63.6585 7.7196 89.1359 9.20834C89.5196 9.22369 89.8266 9.53064 89.8573 9.92969C90.0568 13.9048 90.3177 18.1715 90.5019 21.8703C90.5172 22.3 90.1796 22.6684 89.7345 22.6684Z" fill="#1A064F"/>
<path d="M69.9358 93.0233L69.9051 92.9926L69.7977 93.1C69.8591 93.0693 69.8898 93.054 69.9358 93.0233ZM70.4577 92.4554L70.4884 92.4708C70.5191 92.5168 70.5191 92.5628 70.5344 92.6089C70.6111 92.5475 70.7032 92.5014 70.7646 92.4247C71.0869 92.1484 71.3632 91.7647 71.5627 91.3504L70.4577 92.4554ZM65.3929 94.4967C65.5003 94.4813 65.5924 94.466 65.6998 94.4506L65.5771 94.3278L65.3929 94.4967ZM42.8929 73.4087L45.0723 75.6035L46.9448 73.731C47.0062 73.6696 47.0829 73.6543 47.1443 73.639L46.9141 73.4087C45.5635 73.4087 44.2282 73.4087 42.8929 73.4087ZM44.1208 94.3892L43.0771 95.4175L45.1951 95.4022C45.1644 95.3868 45.1337 95.4022 45.103 95.3715L44.1208 94.3892ZM38.2118 73.5929L40.6368 76.0179L42.5246 74.1301L41.8032 73.4241C40.6061 73.4241 39.3936 73.4241 38.1965 73.4241C38.1965 73.4855 38.2118 73.5315 38.2118 73.5929ZM38.6262 81.9882L39.5318 81.0826L38.5648 80.1157C38.5802 80.7297 38.6109 81.3589 38.6262 81.9882ZM38.6876 83.3541L39.762 84.4285L41.1586 83.0318C41.2507 82.9551 41.3428 82.909 41.4195 82.909C41.3735 82.8937 41.3121 82.8783 41.2814 82.8323L40.0843 81.6352L38.6723 83.0318C38.6723 83.1393 38.6723 83.2467 38.6876 83.3541ZM38.749 85.4414L39.2095 84.981L38.7183 84.4745C38.7337 84.7968 38.749 85.1191 38.749 85.4414ZM54.4959 92.9005L53.0993 94.2971L53.9741 95.172C54.0201 95.218 54.0355 95.2948 54.0508 95.3561C54.5266 95.3561 55.0177 95.3408 55.4935 95.3408C55.4782 95.218 55.4935 95.1106 55.5856 95.0185L56.0614 94.5274L54.542 93.0079C54.5113 92.9772 54.5266 92.9465 54.4959 92.9005ZM52.2858 73.3934L53.7439 74.8514L55.2173 73.378C54.235 73.378 53.2681 73.3934 52.2858 73.3934ZM52.5621 94.8497L52.0403 95.3715L53.0839 95.3561L52.5621 94.8497ZM47.9884 73.3934L49.6153 75.0203L51.0119 73.6083C51.104 73.5315 51.2268 73.5008 51.3496 73.5315L51.2115 73.3934C50.1371 73.3934 49.0628 73.3934 47.9884 73.3934ZM47.0369 95.4022L49.0474 95.3868L48.0498 94.3892L47.0369 95.4022ZM65.6077 69.8787L63.6586 71.8279H64.7636H68.5545C70.5805 71.8279 72.6217 71.8279 74.709 71.8126L76.7196 69.802L73.7268 66.8092L71.1483 69.3876L72.5296 70.7689C72.6831 70.9224 72.6831 71.1679 72.5296 71.3061C72.3915 71.4596 72.1459 71.4596 71.9925 71.3061L70.6111 69.9248L68.8308 71.7205C68.7541 71.7972 68.662 71.8279 68.5545 71.8279C68.4471 71.8279 68.355 71.7972 68.2783 71.7205C68.1248 71.567 68.1248 71.3214 68.2783 71.1679L70.074 69.3876L68.0788 67.3924L66.1603 69.3262L67.5876 70.7536C67.7257 70.907 67.7257 71.1526 67.5876 71.3061C67.4341 71.4442 67.1886 71.4442 67.0351 71.3061L65.6077 69.8787ZM61.1722 73.378L61.3717 73.5776L61.5713 73.378H61.1722ZM60.8346 94.6655L60.3434 95.1566C60.635 95.1413 60.942 95.1106 61.249 95.0799L60.8346 94.6655ZM58.2254 71.8432L62.9372 71.8279C62.9065 71.7665 62.8912 71.7051 62.8912 71.6284L60.6657 69.4183L59.2537 70.8149C59.3919 70.9531 59.3919 71.1833 59.2537 71.3214C59.1156 71.4442 58.9161 71.4902 58.7319 71.3368L58.2254 71.8432ZM58.9161 92.7624L57.1511 94.5274L57.9031 95.2794C58.3482 95.2641 58.7933 95.2487 59.2537 95.2334C59.2691 95.1873 59.2537 95.1566 59.2844 95.1259L60.282 94.1283L58.9161 92.7624ZM57.1357 73.378L57.7497 73.992L58.3636 73.378H57.1357ZM56.8595 95.3254L56.6139 95.0799L56.353 95.3254H56.8595ZM57.2125 74.5291L56.307 73.6083C56.2302 73.5469 56.1995 73.4548 56.1995 73.3627C56.0767 73.3627 55.9386 73.378 55.8158 73.378C55.9386 73.5162 55.9386 73.731 55.8005 73.8845L54.2964 75.3733L55.5396 76.6164C55.693 76.7699 55.693 77.0155 55.5396 77.169C55.3861 77.3071 55.1405 77.3071 55.0024 77.169L53.7592 75.9258L52.7616 76.908C52.6235 77.0615 52.3779 77.0615 52.2244 76.908C52.071 76.7699 52.071 76.5243 52.2244 76.3709L53.2067 75.3733L51.6566 73.8231C51.6719 73.9459 51.6566 74.0533 51.5645 74.1454L50.1678 75.5574L50.9506 76.3555C51.104 76.4937 51.104 76.7392 50.9506 76.8927C50.7971 77.0462 50.5669 77.0462 50.4134 76.8927L49.6153 76.0946L48.4949 77.2303C48.3414 77.3838 48.0959 77.3838 47.9424 77.2303C47.8042 77.0769 47.8042 76.8313 47.9424 76.6778L49.0781 75.5574L47.574 74.0533C47.5587 74.1301 47.5433 74.2068 47.4973 74.2682L45.6249 76.1406L46.3769 76.8927C46.5304 77.0462 46.5304 77.2917 46.3769 77.4452C46.2234 77.5833 45.9779 77.5833 45.8397 77.4452L45.0723 76.6778L44.0901 77.6754C43.9366 77.8136 43.691 77.8136 43.5529 77.6754C43.3994 77.5219 43.3994 77.2764 43.5529 77.1229L44.5352 76.1406L43.0618 74.6673L41.1893 76.555L42.6167 77.9824C42.7548 78.1359 42.7548 78.3661 42.6167 78.5196C42.4632 78.673 42.2176 78.673 42.0642 78.5196L40.6368 77.0922L39.5011 78.228C39.3476 78.3814 39.102 78.3814 38.9639 78.228C38.8104 78.0898 38.8104 77.8443 38.9639 77.6908L40.0996 76.555L38.3653 74.8207C38.396 75.2198 38.5035 78.6116 38.5188 78.98L40.0843 80.5301L41.4963 79.1181C41.6498 78.9647 41.8953 78.9647 42.0488 79.1181C42.1869 79.2563 42.1869 79.5018 42.0488 79.6553L40.6368 81.0826L41.8339 82.2798C41.9721 82.4333 41.9721 82.6788 41.8339 82.8323C41.7572 82.909 41.6651 82.9397 41.573 82.9397C41.8032 83.0472 41.9414 83.3388 41.7112 83.569L40.2992 84.981L40.7135 85.3801C40.867 85.5335 40.867 85.7791 40.7135 85.9326C40.5601 86.0707 40.3145 86.0707 40.1764 85.9326L39.762 85.5335L38.8104 86.4697C38.8104 86.4697 38.7951 86.4697 38.7951 86.4851V86.5158C40.3298 86.4851 56.307 86.1014 63.4284 85.9019C63.8274 84.3671 63.8274 82.7863 63.9962 73.3627H62.6763L61.9243 74.1147L62.5075 74.698C62.661 74.8514 62.661 75.0816 62.5075 75.2351C62.354 75.3886 62.1238 75.3886 61.9703 75.2351L61.3871 74.6519L60.3127 75.7109C60.1593 75.8644 59.9137 75.8644 59.7756 75.7109C59.6221 75.5728 59.6221 75.3272 59.7756 75.1737L60.8346 74.1147L60.0979 73.3627H59.4072C59.3919 73.3934 59.3919 73.4394 59.3612 73.4548L58.3022 74.5291L59.2384 75.4653C59.3919 75.6188 59.3919 75.8644 59.2384 76.0179C59.1003 76.1713 58.8547 76.1713 58.7012 76.0179L57.7497 75.0663L56.4144 76.4169C56.2609 76.555 56.0307 76.555 55.8772 76.4169C55.7237 76.2634 55.7237 76.0179 55.8772 75.8644L57.2125 74.5291ZM34.2061 88.1734C30.0775 88.2961 28.0209 93.0079 32.6099 94.8343C34.513 95.5864 36.5543 95.4636 41.8032 95.4329L41.2354 94.865C41.0819 94.7115 41.0819 94.466 41.2354 94.3125C41.3889 94.159 41.6344 94.1744 41.7725 94.3125L42.4325 94.9725L43.7064 93.6986C43.7217 93.6372 43.7217 93.5605 43.7831 93.5144C43.8292 93.453 43.9059 93.4377 43.9826 93.4223L45.2105 92.2098C45.3486 92.0564 45.5942 92.0564 45.7476 92.2098C45.9011 92.348 45.9011 92.5935 45.7476 92.747L44.6579 93.8367L45.6402 94.8343C45.7937 94.9725 45.7937 95.218 45.6402 95.3715C45.6249 95.3868 45.5942 95.3868 45.5635 95.4022H45.9318L47.4973 93.8367L47.4819 93.8214C47.3285 93.6679 47.3285 93.4223 47.4819 93.2842C47.6354 93.1307 47.881 93.1307 48.0345 93.2842L48.0498 93.2995L49.5693 91.7647C49.7227 91.6266 49.9683 91.6266 50.1218 91.7647C50.2599 91.9182 50.2599 92.1638 50.1218 92.3173L48.587 93.8367L49.9836 95.2334C50.0297 95.2641 50.0297 95.3254 50.045 95.3868L50.9506 95.3715C50.9506 95.3715 50.9506 95.3715 50.9659 95.3561L52.0249 94.2971L50.8431 93.1307C50.6896 92.9772 50.6896 92.7317 50.8431 92.5782C50.9966 92.4401 51.2422 92.4401 51.3803 92.5782L52.5621 93.76L55.2326 91.0741C55.3861 90.9206 55.6316 90.9206 55.7698 91.0741C55.9233 91.2276 55.9233 91.4731 55.7698 91.6266L54.9717 92.4247C55.0024 92.4401 55.0484 92.4401 55.0791 92.4708L56.5986 93.9902L60.2974 90.2914C60.4509 90.1379 60.6964 90.1379 60.8346 90.2914C60.988 90.4448 60.988 90.6904 60.8346 90.8439L59.4533 92.2252L60.8192 93.5911L64.6255 89.7849C64.7636 89.6468 65.0092 89.6468 65.1627 89.7849C65.3161 89.9384 65.3161 90.1839 65.1627 90.3374L63.6432 91.8568L61.3717 94.1283L62.2312 95.0031C62.8605 94.9264 63.4897 94.8497 64.1037 94.7422C64.119 94.7269 64.119 94.6962 64.1344 94.6655L65.0245 93.7907L63.6739 92.4401C63.5358 92.2866 63.5358 92.041 63.6739 91.8875C63.8274 91.7341 64.073 91.7494 64.2264 91.8875L65.5771 93.2381L67.4955 91.3043C67.649 91.1508 67.8946 91.1508 68.048 91.3043C68.2015 91.4578 68.2015 91.7034 68.048 91.8415L66.1142 93.7907L66.4826 94.1437C66.5133 94.1744 66.4979 94.2204 66.5133 94.2511C66.8356 94.1744 67.1579 94.0976 67.4802 94.0055C67.9406 93.8828 68.4624 93.7139 68.9689 93.5144C68.9382 93.4991 68.9075 93.4991 68.8922 93.4837C68.7387 93.3302 68.7387 93.0847 68.8922 92.9312L69.368 92.4554L66.9277 89.9997C66.7742 89.8616 66.7742 89.6161 66.9277 89.4626C67.0658 89.3091 67.3114 89.3091 67.4648 89.4626L69.9051 91.9029L71.3785 90.4448C71.5167 90.3067 71.7008 90.3067 71.8543 90.4141C71.9618 89.4472 71.486 88.7259 70.6725 88.1734L69.9358 88.9254L70.9488 89.9384C71.3171 90.3067 70.7646 90.8439 70.4116 90.4755L69.368 89.4472C69.1838 89.5854 69.015 89.5547 68.8922 89.4319C68.7541 89.2937 68.7541 89.0942 68.8615 88.9408L68.662 88.7259C68.5085 88.5877 68.5085 88.3422 68.662 88.1887C68.8001 88.0352 69.0457 88.0352 69.1991 88.1887L69.3833 88.3882L69.9665 87.805C69.8591 87.759 69.7517 87.6976 69.6596 87.6669C68.8768 87.4213 68.0327 87.3599 67.1732 87.3599C66.8663 87.3599 64.0116 87.4213 64.0116 87.4213C59.7449 87.5441 34.4823 88.1734 34.2061 88.1734ZM87.4631 66.8552L89.6732 69.0806L91.7912 66.978L89.5657 64.7525L87.4631 66.8552ZM98.4521 12.6927C98.667 4.12857 96.4109 1.53478 86.9873 1.53478L17.0779 1.765C6.22695 1.81105 2.40533 4.31274 1.86816 16.6371C1.33098 29.3297 1.40772 42.2526 2.09838 55.0681C3.63316 55.0374 94.9835 53.5947 97.562 53.8095L98.4521 12.6927ZM86.9106 67.4077L82.5671 71.7512C83.5033 71.7512 84.4242 71.7358 85.3604 71.7205C87.3096 71.7051 89.1206 71.613 90.7475 71.2293L89.6885 70.1857L88.8444 71.0145C88.6909 71.1679 88.4453 71.1679 88.2919 71.0145C88.1384 70.861 88.1384 70.6154 88.2919 70.4773L89.136 69.6332L86.9106 67.4077ZM80.9863 66.625L83.7949 69.4336L86.3734 66.8552L83.5647 64.0465L80.9863 66.625ZM77.2568 69.2495L79.8966 66.625L78.7608 65.4739C78.6074 65.3358 78.6074 65.0902 78.7608 64.9367C78.899 64.7832 79.1445 64.7832 79.298 64.9367L80.4338 66.0725L83.0122 63.5094L82.6439 63.1257C82.4904 62.9722 82.4904 62.7266 82.6439 62.5885C82.782 62.435 83.0275 62.435 83.181 62.5885L83.5647 62.9568L84.5623 61.9439C84.7158 61.7904 84.9614 61.7904 85.1149 61.9439C85.2683 62.0974 85.2683 62.3429 85.1149 62.4964L84.1019 63.5094L86.9106 66.318L89.0132 64.2154L87.4631 62.6499C87.3096 62.5118 87.3096 62.2662 87.4631 62.1127C87.6166 61.9592 87.8621 61.9592 88.0156 62.1127L89.5657 63.6629L89.9801 63.2485C90.1336 63.095 90.3792 63.095 90.5173 63.2485C90.6708 63.4019 90.6708 63.6475 90.5173 63.7856L90.1029 64.2154L92.3283 66.4255L94.0626 64.7065C94.2161 64.553 94.4463 64.553 94.5998 64.7065C94.7533 64.86 94.7533 65.0902 94.5998 65.2437L92.8655 66.978L93.725 67.8375C93.8785 67.9756 93.8785 68.2212 93.725 68.3746C93.5715 68.5281 93.326 68.5281 93.1878 68.3746L92.3283 67.5152L90.2257 69.6178L91.5763 70.9684V70.9991C96.6871 69.3262 97.3317 64.2921 97.4545 58.7515L97.5159 55.3443C96.2574 55.2369 71.5474 55.5592 47.5894 55.9122C24.9053 56.2345 2.92716 56.5875 2.17511 56.6028C2.2672 58.199 2.37464 59.8105 2.46672 61.4067C3.08064 70.2471 5.64373 72.5493 14.9138 72.273C21.6208 72.0735 28.9417 71.9507 37.291 71.8893C41.9721 71.8586 46.6225 71.8586 51.2882 71.8586C51.3036 71.8279 51.3036 71.7819 51.3343 71.7665L52.8844 70.2164L52.6235 69.9555C52.47 69.802 52.47 69.5564 52.6235 69.4029C52.777 69.2648 53.0225 69.2648 53.1606 69.4029L53.4216 69.6639L53.6825 69.4029L56.4758 66.625C56.6139 66.4715 56.8595 66.4715 57.013 66.625C57.1664 66.7785 57.1664 67.0087 57.013 67.1622L53.9741 70.2164L54.7261 70.9684C54.8796 71.1219 54.8796 71.3675 54.7261 71.521C54.5727 71.6744 54.3424 71.6744 54.189 71.521L53.4216 70.7536L52.3319 71.8586C53.1913 71.8586 55.5089 71.8432 57.5194 71.8432C57.458 71.7051 57.4427 71.5363 57.5655 71.4135L58.1794 70.7996L56.2763 68.8965C56.1228 68.743 56.1228 68.4974 56.2763 68.3593C56.4144 68.2058 56.66 68.2058 56.8134 68.3593L58.7166 70.2624L60.1132 68.8658L60.0365 68.7737C59.883 68.6202 59.883 68.39 60.0365 68.2365C60.19 68.083 60.4355 68.083 60.589 68.2365L60.6657 68.3132L61.9857 66.9933C62.1238 66.8552 62.3694 66.8552 62.5228 66.9933C62.6763 67.1468 62.6763 67.3924 62.5228 67.5459L61.2029 68.8658L63.367 71.0298L65.0706 69.3262L63.6893 67.9603C63.5358 67.8068 63.5358 67.5612 63.6893 67.4077C63.8427 67.2542 64.073 67.2542 64.2264 67.4077L65.6077 68.789L67.8025 66.5943V66.5789L70.0279 64.3689C70.1661 64.2154 70.4116 64.2154 70.5651 64.3689C70.7186 64.5223 70.7186 64.7679 70.5651 64.9214L68.6159 66.8552L70.6111 68.8504L73.2049 66.2566C73.0975 66.1032 73.0821 65.9036 73.2203 65.7655C73.3584 65.6274 73.5579 65.6274 73.7114 65.7348L77.0572 62.4043C77.2107 62.2509 77.4563 62.2509 77.5944 62.4043C77.7479 62.5425 77.7479 62.788 77.5944 62.9415L74.2793 66.272L77.2568 69.2495ZM85.3911 73.2553C78.5767 73.3473 71.839 73.3627 65.5157 73.3627C65.3008 82.157 65.4236 83.9373 65.0092 85.8712C66.943 85.8251 68.5852 85.7177 70.12 86.2088C74.6169 87.6362 75.1081 93.5144 67.8946 95.4943C63.1521 96.8295 58.1487 96.8602 53.3141 96.8909C35.6488 96.9984 34.4823 97.2286 32.0574 96.2617C25.9336 93.8367 28.3585 86.8074 34.1754 86.6386C35.2037 86.6079 36.232 86.5772 37.2756 86.5618C36.8766 78.7191 37.0147 75.9258 36.6464 73.4394C28.5887 73.4855 21.4827 73.6083 14.9752 73.8078C5.01447 74.0994 1.63794 71.3675 0.947287 61.5142C0.916592 60.9463 0.609635 56.4494 0.594287 55.8508C-0.387975 54.8685 0.0878084 22.3618 0.333374 16.5757C0.916592 3.28444 5.49025 0.276261 17.0779 0.230218L86.9873 0C97.4699 0 100.217 3.46861 99.9869 12.7387L98.9893 58.7822C98.7284 70.5233 94.8914 73.1171 85.3911 73.2553ZM77.2568 70.3392L75.7987 71.8126C77.7172 71.7972 79.651 71.7819 81.6002 71.7665C81.6155 71.6744 81.6309 71.5977 81.6923 71.5363L83.2578 69.9708L80.4338 67.1622L77.8093 69.802L78.6227 70.6154C78.7608 70.7689 78.7608 70.9991 78.6227 71.1526C78.4692 71.3061 78.2237 71.3061 78.0702 71.1526L77.2568 70.3392Z" fill="#1A064F"/>
</svg>
