<svg width="100" height="87" viewBox="0 0 100 87" fill="none" xmlns="http://www.w3.org/2000/svg">
<path d="M75.4711 66.8688L74.721 66.1344C74.5647 65.9781 74.5647 65.7281 74.721 65.5718C74.8772 65.4155 75.1273 65.4155 75.2835 65.5718L76.018 66.3219L76.4556 65.9C76.5962 65.7437 76.8463 65.7437 77.0025 65.9C77.1588 66.0406 77.1588 66.2906 77.0025 66.4469L76.5806 66.8688L77.6432 67.9471C77.7995 68.1034 77.7995 68.3378 77.6432 68.4941C77.487 68.6503 77.2369 68.6503 77.0963 68.4941L76.018 67.4314L75.9243 67.5096C75.7836 67.6658 75.5336 67.6658 75.3773 67.5096C75.221 67.3689 75.221 67.1189 75.3773 66.9626L75.4711 66.8688Z" fill="#1A064F"/>
<path d="M38.6066 7.65754C39.6067 6.39174 41.857 5.67289 43.7167 6.00106C46.1389 6.42299 47.5766 8.75144 45.2325 11.7831C42.4821 15.3773 39.3098 14.6898 38.1534 12.5645C37.3408 11.0643 37.5283 9.00147 38.6066 7.65754ZM39.388 11.4237C39.4348 11.5487 39.4505 11.6893 39.5286 11.7987C40.2162 13.0645 42.0758 13.3302 43.998 10.8298C45.4825 8.89208 44.9043 7.78255 43.451 7.53252C43.2479 7.50127 43.0447 7.48564 42.8259 7.48564C42.5915 7.48564 42.3571 7.51689 42.1071 7.54815C42.154 7.62628 42.1696 7.70442 42.154 7.79818L43.2791 8.92334C43.4354 9.07961 43.4354 9.31401 43.2791 9.47029C43.201 9.54842 43.1072 9.57968 42.9978 9.57968C42.9041 9.57968 42.8103 9.54842 42.7322 9.47029L41.4507 8.20449L40.9507 8.70456C40.8725 8.78269 40.7788 8.81395 40.6694 8.81395C40.5756 8.81395 40.4819 8.78269 40.4037 8.70456C40.2474 8.54828 40.2474 8.29825 40.3881 8.15761C40.1693 8.29825 39.9662 8.45452 39.8255 8.62642C39.763 8.72018 39.7161 8.82957 39.6536 8.92334L40.2162 9.48591L40.435 9.28276C40.5756 9.12649 40.8257 9.12649 40.9819 9.28276C41.1382 9.43903 41.1382 9.67344 40.9819 9.82971L40.7788 10.0485L41.2632 10.5329C41.4195 10.6892 41.4195 10.9236 41.2632 11.0799C41.1069 11.2362 40.8569 11.2362 40.7006 11.0799L40.2162 10.5954L39.388 11.4237ZM39.2317 10.4861L39.6692 10.0485L39.3254 9.70469C39.2629 9.97036 39.2317 10.2204 39.2317 10.4861Z" fill="#1A064F"/>
<path d="M26.7456 8.45447L27.2925 9.00142L28.1364 8.14192L27.8082 7.81375C27.3707 7.97003 27.0269 8.20443 26.7456 8.45447ZM26.2455 11.8143C27.8707 14.7678 32.1213 10.2203 31.5431 8.5326C31.5431 8.51698 31.5431 8.51698 31.5431 8.51698C31.3556 8.00128 30.9024 7.65748 30.1679 7.53247C29.9648 7.50121 29.7616 7.48558 29.5585 7.48558C29.2616 7.48558 28.9646 7.51684 28.6677 7.56372L28.7771 7.67311C28.8709 7.67311 28.9803 7.70436 29.0584 7.7825C29.1365 7.86063 29.1678 7.9544 29.1678 8.06379L30.0898 8.98579C30.4492 9.34521 29.9023 9.89216 29.5272 9.53274L28.699 8.7045L27.8395 9.54837L28.2614 9.9703C28.4177 10.1266 28.4177 10.361 28.2614 10.5172C28.1833 10.5954 28.0895 10.6266 27.9801 10.6266C27.8864 10.6266 27.777 10.5954 27.7145 10.5172L27.2925 10.1109L26.0736 11.3142C26.1205 11.4861 26.1674 11.658 26.2455 11.8143ZM25.9486 10.3297L26.73 9.54837L26.2924 9.09518C26.0892 9.48586 25.9642 9.89216 25.9486 10.3297ZM24.8703 12.5644C24.0577 11.0642 24.2452 9.00142 25.3235 7.65748C26.3393 6.40731 28.574 5.67284 30.4336 6.00101C31.7306 6.21979 32.6526 6.93863 33.0121 8.01691C34.2154 11.533 27.4488 17.2682 24.8703 12.5644Z" fill="#1A064F"/>
<path d="M14.0565 8.03253L14.4159 8.39196L15.1816 7.62623C14.7753 7.71999 14.4003 7.86063 14.0565 8.03253ZM15.166 10.2516C15.1347 10.486 14.2284 11.3299 14.0565 11.4861C14.0408 11.533 14.0408 11.5799 14.0096 11.6111C13.9783 11.658 13.9314 11.6424 13.8846 11.6737L13.2907 12.2519C14.119 13.0488 15.6661 13.1114 17.4319 10.8298C18.1664 9.87654 18.4321 9.09518 18.2445 8.5326C18.2445 8.51698 18.2445 8.51698 18.2445 8.51698C18.057 8.00128 17.6038 7.65748 16.8693 7.53247C16.6974 7.50121 16.5099 7.50121 16.3224 7.48558L17.0256 8.18881C17.1663 8.32945 17.1663 8.57948 17.0256 8.73576C16.8693 8.89203 16.6193 8.89203 16.463 8.73576L15.8223 8.07942L14.9628 8.93891L15.7598 9.72026C16.1192 10.0953 15.5879 10.6579 15.166 10.2516ZM12.0249 7.65748C13.0407 6.40731 15.2754 5.67284 17.135 6.00101C18.4321 6.21979 19.3541 6.93863 19.7135 8.01691C20.0885 9.14206 19.7604 10.361 18.6665 11.783C15.9942 15.2523 12.7907 14.7991 11.5717 12.5644C10.7591 11.0642 10.9467 9.00142 12.0249 7.65748ZM12.6656 10.8298C12.6969 11.0955 12.7594 11.3455 12.8688 11.5799L13.1345 11.2986L12.6656 10.8298ZM13.2438 8.62637C12.9782 8.95454 12.8375 9.37647 12.7282 9.7984L13.697 10.7517L14.5253 9.92342C14.5878 9.86091 14.6659 9.84528 14.7441 9.82966L13.4157 8.48572C13.3689 8.5326 13.2907 8.57948 13.2438 8.62637Z" fill="#1A064F"/>
<path d="M15.9941 39.8496L17.2912 41.131C17.885 41.0685 18.4632 40.8966 19.0102 40.6466L17.1036 38.7401L15.9941 39.8496ZM16.166 41.1154L15.4472 40.3966L15.0096 40.8341C15.2284 40.9123 15.4628 41.006 15.6972 41.0529C15.8535 41.0998 16.0097 41.0998 16.166 41.1154ZM70.064 72.7135C70.6266 73.1667 71.2673 73.5105 71.9549 73.6668C72.705 73.8386 73.4708 73.7918 74.2209 73.6199L71.7361 71.1352L70.2203 72.651C70.1734 72.6979 70.1109 72.6979 70.064 72.7135ZM28.6521 70.7914L29.6054 71.7446L30.8399 70.4944L29.8867 69.5412L28.6521 70.7914ZM26.4643 72.9635L26.0111 73.4167C26.2612 73.5105 26.4956 73.6042 26.7456 73.6668C27.8395 73.9168 28.9959 73.7449 30.0273 73.2604L29.6054 72.8541L29.4803 72.9792C29.4022 73.0573 29.2928 73.0885 29.1991 73.0885C28.8553 73.0885 28.6677 72.6666 28.9178 72.4322L29.0584 72.2916L28.0895 71.3383L27.0269 72.4166L27.6832 73.0729C27.8395 73.2292 27.8395 73.4792 27.6832 73.6355C27.6051 73.7136 27.4957 73.7449 27.4019 73.7449C27.3082 73.7449 27.1988 73.7136 27.1206 73.6355L26.4643 72.9635ZM19.7134 40.2403C21.0417 39.3652 21.8387 38.1306 21.9481 36.5679C21.7293 36.2866 21.7137 35.9428 21.9481 35.6303C21.8699 34.8958 21.6199 34.177 21.2292 33.505C21.2292 33.505 21.2292 33.505 21.2136 33.505L20.7604 33.9582L21.3542 34.5676C21.6043 34.802 21.4324 35.224 21.0886 35.224C20.8385 35.224 20.401 34.7083 20.2134 34.5208L19.7134 35.0052C19.5571 35.1615 19.4477 35.1302 19.3071 35.0677L21.4324 37.1774C21.6668 37.4274 21.4949 37.8493 21.1511 37.8493C21.0573 37.8493 20.9792 37.8025 20.901 37.7399L19.6352 39.0214C19.479 39.162 19.2289 39.162 19.0883 39.0214C18.932 38.8651 18.932 38.6151 19.0883 38.4588L20.3385 37.2086L18.3226 35.1771C18.1663 35.0208 18.1663 34.7708 18.3226 34.6301C18.4632 34.4739 18.7132 34.4739 18.8695 34.6301L19.1195 34.8646C19.057 34.7239 19.057 34.5676 19.1664 34.4582L19.6665 33.9582L19.2602 33.5675C19.1039 33.4112 19.1039 33.1612 19.2602 33.0049C19.4165 32.8486 19.6509 32.8486 19.8071 33.0049L20.2134 33.4112L20.6666 32.958C20.7135 32.9268 20.7604 32.9268 20.8073 32.8955C19.6665 31.4578 17.9788 30.6765 16.1504 30.9109C11.6654 31.536 9.79014 37.7243 14.2908 40.4747C14.3064 40.4591 14.3064 40.4278 14.3064 40.4278L14.8846 39.8496L13.8845 38.8338C13.7282 38.6932 13.7282 38.4432 13.8845 38.2869C14.0407 38.1306 14.2908 38.1306 14.447 38.2869L15.4472 39.287L16.5567 38.1775L16.0254 37.6462C15.8691 37.4899 15.8691 37.2399 16.0254 37.0992C16.1816 36.943 16.4161 36.943 16.5723 37.0992L17.1036 37.6306L18.5413 36.1929C18.6976 36.0366 18.932 36.0366 19.0883 36.1929C19.2446 36.3491 19.2446 36.5992 19.0883 36.7554L17.6662 38.1775L19.7134 40.2403ZM27.1988 63.5247C24.8547 63.8373 22.8544 66.0251 22.745 68.4004C22.6669 70.2444 23.7296 72.0572 25.2923 73.0417L25.9174 72.4166L24.8391 71.3383C24.6984 71.1977 24.6984 70.9476 24.8391 70.7914C24.9954 70.6351 25.2454 70.6351 25.4017 70.7914L26.4643 71.854L27.5426 70.7914L26.7925 70.0413C26.6518 69.885 26.6518 69.635 26.7925 69.4943C26.9487 69.338 27.1988 69.338 27.3551 69.4943L28.0895 70.2288L29.3397 68.9942L28.5896 68.2441C28.4333 68.1035 28.4333 67.8535 28.5896 67.6972C28.7459 67.5409 28.9959 67.5409 29.1522 67.6972L31.4025 69.9475L31.9494 69.3849C32.1057 69.2443 32.3557 69.2443 32.512 69.3849C32.6683 69.5412 32.6683 69.7912 32.512 69.9475L31.7932 70.6663C31.7775 70.7132 31.7775 70.7757 31.7307 70.8226C31.6681 70.8695 31.6213 70.8695 31.5588 70.9007L30.1523 72.2916L30.5742 72.7135C30.6368 72.776 30.6524 72.8385 30.668 72.9166C31.5275 72.3697 32.2463 71.6196 32.6527 70.682C33.309 69.1505 33.1215 67.4159 32.1838 65.9469L31.34 66.7908L32.1213 67.5722C32.2776 67.7284 32.2776 67.9785 32.1213 68.1347C31.9651 68.2754 31.715 68.2754 31.5744 68.1347L30.793 67.3534L30.5274 67.6034C30.3711 67.7597 30.1367 67.7597 29.9804 67.6034C29.8241 67.4471 29.8241 67.1971 29.9804 67.0408L30.2304 66.7908L29.496 66.0563C29.3397 65.9001 29.3397 65.65 29.496 65.4938C29.6366 65.3375 29.8867 65.3375 30.0429 65.4938L30.793 66.2439L31.715 65.3219C30.543 63.9623 28.8865 63.2903 27.1988 63.5247ZM89.723 35.5834C89.6761 35.1771 89.5667 34.7708 89.4261 34.3645C89.4104 34.3957 89.4104 34.427 89.3948 34.4426L88.9885 34.8489L89.723 35.5834ZM89.723 36.6929L88.4259 35.3959L87.6602 36.1772L88.1603 36.6773C88.3009 36.6148 88.4728 36.6148 88.5822 36.7242C88.7072 36.8492 88.7072 37.0055 88.6447 37.1461L89.4104 37.9275C89.5823 37.5212 89.6761 37.1149 89.723 36.6929ZM88.129 37.7399L86.8945 38.9745L87.879 39.959C88.3478 39.5839 88.7385 39.1464 89.051 38.6619L88.129 37.7399ZM85.0974 40.4278L85.2536 40.5841C85.3943 40.7247 85.3943 40.9591 85.2536 41.1154C85.9568 41.006 86.6132 40.756 87.2226 40.3966L86.3475 39.5214L85.5037 40.3653C85.4255 40.4434 85.3318 40.4747 85.2224 40.4747C85.1755 40.4747 85.1442 40.4434 85.0974 40.4278ZM84.7067 41.131L82.5032 38.9432L81.4406 40.0059C82.0344 40.506 82.722 40.881 83.4721 41.0529C83.8628 41.1467 84.3004 41.1623 84.7223 41.1467C84.7223 41.1467 84.7067 41.1467 84.7067 41.131ZM83.0658 38.3807L84.8942 40.2247C84.8317 40.084 84.8473 39.9277 84.9567 39.8184L85.8006 38.9745L84.2379 37.4118C84.191 37.3805 84.191 37.318 84.1753 37.2711L83.0658 38.3807ZM80.878 39.4746L81.9563 38.3807L81.6438 38.0837C81.4875 37.9275 81.4875 37.6774 81.6438 37.5212C81.8 37.3649 82.0501 37.3649 82.1907 37.5212L82.5032 37.8337L84.7536 35.5834C84.9098 35.4271 85.1599 35.4271 85.3161 35.5834C85.4724 35.7397 85.4724 35.9741 85.3161 36.1303L84.6442 36.8023C84.691 36.8179 84.7536 36.8179 84.8004 36.8648L86.3475 38.4119L87.5821 37.193L87.1133 36.7242L87.0351 36.8023C86.8788 36.9586 86.6288 36.9586 86.4725 36.8023C86.3319 36.6617 86.3319 36.4116 86.4725 36.2554L86.5507 36.1772L86.535 36.146C86.3788 35.9897 86.3788 35.7397 86.535 35.5834C86.6757 35.4428 86.9257 35.4428 87.082 35.5834L87.1133 35.6147L87.879 34.8489L87.5039 34.4582C87.3477 34.3176 87.3477 34.0676 87.5039 33.9113C87.6446 33.755 87.8946 33.755 88.0509 33.9113L88.4259 34.302L88.8479 33.88C88.926 33.8019 89.051 33.7706 89.1604 33.7863C89.0198 33.505 88.8479 33.2393 88.6603 32.9737C85.5193 28.8481 79.6747 31.3328 79.4716 35.8022C79.4091 37.1305 79.9716 38.4588 80.878 39.4746ZM74.3771 62.0558C75.9398 62.384 77.3463 63.2747 78.3933 64.6343C79.9091 66.6189 80.2373 69.1193 79.2997 71.3071C78.0339 74.2137 74.6428 75.8858 71.6111 75.1826C68.5482 74.4794 66.2666 71.4633 66.4073 68.3223C66.4698 66.9627 66.9855 65.65 67.8137 64.5718C67.9388 64.4311 68.0638 64.2748 68.1888 64.1342C69.2358 62.9934 70.6579 62.1808 72.205 61.9776C72.3925 61.9464 72.5956 61.9464 72.7832 61.9308C72.0643 57.477 71.2673 52.8983 69.4702 48.7258C67.3918 43.8658 64.1257 40.2247 60.2814 38.4744C57.4061 37.1774 53.8743 36.7711 50.0926 37.318C44.1386 38.1619 38.4347 41.2248 34.4498 45.7254C30.5274 50.1323 28.1833 56.0237 27.9645 61.9151C29.9648 61.9464 31.8713 62.9153 33.184 64.6343C33.4184 64.9468 33.6215 65.275 33.8091 65.6031C34.7623 67.4003 34.8717 69.4631 34.0747 71.3071C32.8246 74.2293 29.4178 75.8858 26.3862 75.1826C23.3389 74.4794 21.0417 71.4633 21.1823 68.3379C21.323 65.4 23.5577 62.8059 26.3862 62.1183C26.5581 55.7737 29.0584 49.429 33.2777 44.694C36.4657 41.1154 40.6694 38.3807 45.2325 36.8648H23.5108C23.1045 40.4747 19.8697 42.7406 16.7599 42.7406C8.50872 42.7719 7.83675 30.4733 15.9472 29.3638C19.7915 28.8325 23.042 31.8485 23.4952 35.3021H77.9714C78.6277 29.5201 86.0506 26.9572 89.8949 32.036C93.9111 37.318 88.8791 43.9283 83.1127 42.5844C80.4248 41.9593 78.3464 39.5683 77.9714 36.8648H60.4533C60.6096 36.9273 60.7815 36.9898 60.9378 37.068C65.1415 38.9745 68.6732 42.8969 70.9079 48.1007C72.83 52.5701 73.6427 57.3833 74.3771 62.0558ZM73.4864 67.4471L76.143 70.1038L76.9556 69.2912C77.3307 68.9317 77.8776 69.4787 77.5026 69.8537L76.7056 70.6663L76.9244 70.8851C77.0806 71.0414 77.0806 71.2914 76.9244 71.4477C76.7681 71.604 76.5181 71.604 76.3774 71.4477L76.143 71.2133L75.0335 72.3228C74.8772 72.4791 74.6272 72.4791 74.4865 72.3228C74.3302 72.1665 74.3302 71.9321 74.4865 71.7759L75.596 70.6663L73.8927 68.9786L72.2987 70.5882L75.0335 73.323V73.3386C76.268 72.8385 77.3307 71.9009 77.862 70.682C78.5808 69.0255 78.3152 67.119 77.1431 65.5719C75.9867 64.0404 74.2052 63.2747 72.4237 63.5247C70.064 63.8373 68.0638 66.0251 67.9544 68.4004C67.8919 69.8537 68.5482 71.2914 69.5796 72.3072C69.5952 72.2447 69.6109 72.1665 69.6734 72.104L71.1892 70.5882L70.5641 69.9631C70.4078 69.8068 70.4078 69.5568 70.5641 69.4162C70.7204 69.2599 70.9704 69.2599 71.1267 69.4162L71.7361 70.0256L73.3457 68.4317L72.9238 68.0097C72.7832 67.8535 72.7832 67.6034 72.9238 67.4471C73.0801 67.3065 73.3301 67.3065 73.4864 67.4471Z" fill="#1A064F"/>
<path d="M72.9239 83.3085L72.0176 84.2149L73.8928 84.2774L72.9239 83.3085ZM66.6106 84.0274L66.2355 83.6523L65.8917 84.0117L66.6106 84.0274ZM49.0613 69.1191L50.499 70.5568C50.5302 70.588 50.5302 70.6193 50.5459 70.6505C51.0772 70.3849 51.5616 69.9473 51.921 69.4004C51.7804 69.5254 51.5616 69.5254 51.421 69.3847L50.077 68.0408L49.0613 69.1191ZM49.7645 70.9162L48.53 69.6816L47.983 70.2755C47.9518 70.3224 47.8893 70.3223 47.8424 70.338C48.3581 70.7755 49.03 71.0099 49.702 70.9162H49.7645ZM47.4986 68.1033C47.6548 67.947 47.9049 67.947 48.0611 68.1033L48.5143 68.5721L49.7801 67.2125C49.8426 67.1344 49.9677 67.1032 50.0614 67.0875C50.1708 67.0875 50.2646 67.1344 50.3427 67.2125L51.9679 68.8378C52.0773 68.9628 52.0773 69.1191 52.0148 69.2597C52.6712 68.1971 52.8587 66.7437 52.1398 65.853C50.8897 64.3372 48.0768 65.4779 47.186 67.2907C46.811 68.0252 46.811 68.7596 47.1548 69.5097C47.2173 69.6348 47.2954 69.7285 47.3736 69.8379C47.3892 69.8067 47.3892 69.7754 47.4048 69.7441L47.983 69.1347L47.4986 68.6659C47.3579 68.5096 47.3579 68.2596 47.4986 68.1033ZM49.1394 52.4762C46.4672 56.8518 41.2946 61.9462 37.2159 63.3526C38.9349 66.1499 43.9512 74.8386 45.1232 83.2616L54.2026 83.4492C54.7964 79.2142 56.6873 70.3224 62.61 63.2901C58.4688 61.7587 53.2337 56.5392 50.6552 52.148V63.5871C51.7335 63.6339 52.718 64.0871 53.3587 64.8685C54.4683 66.2437 54.2964 68.2439 53.64 69.6035C52.8274 71.2756 51.2022 72.5102 49.4207 72.5102C47.858 72.5102 46.389 71.5882 45.7327 70.1661C45.1858 68.994 45.2014 67.7595 45.7796 66.6031C46.4047 65.3217 47.6861 64.3059 49.0925 63.8527L49.1394 52.4762ZM98.318 63.5871L98.3024 62.5088L97.7711 63.0401L98.318 63.5871ZM97.9742 45.9284L97.0679 46.8348L98.0211 47.788L97.9742 45.9284ZM97.0679 52.6481L98.0211 53.6169C98.0993 53.6794 98.1305 53.7732 98.1305 53.867L98.0836 51.6323L97.0679 52.6481ZM95.6302 75.0261L92.661 77.9953L94.4894 79.8237L96.2396 78.0734C96.3959 77.9171 96.6459 77.9171 96.7866 78.0734C96.9428 78.2297 96.9428 78.4641 96.7866 78.6204L95.0363 80.3706L95.6458 80.9801C95.7083 81.0426 95.7083 81.1051 95.7239 81.1676C96.7397 80.0424 97.396 78.6829 97.8023 77.1983L95.6302 75.0261ZM88.848 75.2918L85.6288 78.5266L88.3323 81.2301L91.5671 77.9953L88.848 75.2918ZM97.3335 11.7674C97.1929 4.56333 95.7239 1.51604 85.5975 1.56292L18.0883 1.90672C5.13338 1.98486 3.13311 5.9229 2.67992 14.971C2.64866 15.6586 2.60178 16.4712 2.57053 17.3932H97.4429L97.3335 11.7674ZM88.3323 82.3396L86.0664 84.5899C89.5512 84.4962 92.9736 83.8555 95.302 81.6208C95.2239 81.6051 95.1614 81.5895 95.0989 81.5426L94.4894 80.9332L92.2078 83.1991C92.0516 83.3554 91.8171 83.3554 91.6609 83.1991C91.5046 83.0585 91.5046 82.8084 91.6609 82.6522L93.9424 80.3706L92.1141 78.5579L88.8792 81.777L90.3169 83.2304C90.4732 83.371 90.4732 83.6211 90.3169 83.7773C90.1763 83.9336 89.9263 83.9336 89.77 83.7773L88.3323 82.3396ZM82.2533 80.7925L84.5193 78.5266L83.566 77.5733V77.6046L81.3157 79.8549L82.2533 80.7925ZM82.8159 81.3395L85.3631 83.9023C85.4257 83.9492 85.4413 84.0274 85.4569 84.1055L87.7697 81.777L85.0662 79.0736L82.8159 81.3395ZM79.6749 84.4649L82.519 84.5743C83.4097 84.6056 84.3317 84.6056 85.2381 84.6056C85.2381 84.5743 85.2069 84.5431 85.2069 84.5118C85.0662 84.5587 84.9725 84.6056 84.8006 84.4493L82.2533 81.9021L79.6749 84.4649ZM81.7064 81.3395L80.7531 80.4019L78.4872 82.6678L79.4405 83.6054L81.7064 81.3395ZM77.9402 83.2147L76.7838 84.3712L78.6278 84.4337V84.418L78.8935 84.1524L77.9402 83.2147ZM82.4721 86.137L70.4392 85.7151C70.3767 85.7463 70.3298 85.7932 70.2829 85.7932C70.2204 85.7932 70.1579 85.7463 70.111 85.7151L15.6348 83.8711C3.21124 83.4492 0.710898 79.5111 0.148321 70.2755C-0.383002 61.5868 0.648389 24.5973 1.1172 14.9085C1.60165 5.01652 4.30514 0.422142 18.0727 0.344006L85.5819 0.00020825C96.4428 -0.031046 98.74 3.45381 98.8962 11.7362L99.9901 69.541C100.24 82.5897 95.7708 86.5746 82.4721 86.137ZM72.9239 82.2146L75.1899 79.9487C75.3461 79.7924 75.5806 79.7924 75.7368 79.9487C75.8306 80.0424 75.8462 80.1675 75.815 80.2925C75.9556 80.2612 76.0962 80.2768 76.19 80.3706L77.9402 82.1208L80.2062 79.8549L80.0343 79.683C79.8936 79.5424 79.8936 79.2923 80.0343 79.1361C80.1906 78.9798 80.4406 78.9798 80.5969 79.1361L80.7531 79.308L83.0034 77.0577C83.0347 77.0264 83.0816 77.0264 83.1128 77.0108C83.0972 76.8857 83.1128 76.7607 83.2066 76.667C83.3629 76.5263 83.6129 76.5263 83.7692 76.667L85.0662 77.9797L88.301 74.7448C88.176 74.5886 88.1604 74.3542 88.3167 74.2135C88.4573 74.0572 88.6917 74.0729 88.848 74.1979L89.098 73.9635C89.2543 73.8072 89.5043 73.8072 89.645 73.9635C89.8012 74.1041 89.8012 74.3542 89.645 74.5104L89.4106 74.7448L92.1141 77.4483L95.0832 74.4792L94.0518 73.4634L93.4424 74.0572C93.3017 74.2135 93.0517 74.2135 92.8954 74.0572C92.7392 73.901 92.7392 73.6509 92.8954 73.5103L93.5049 72.9008L92.536 71.9476C92.3954 71.7913 92.3954 71.5413 92.536 71.385C92.6923 71.2444 92.9423 71.2444 93.0986 71.385L94.0518 72.3539L97.1304 69.2753C97.271 69.1191 97.5211 69.1191 97.6773 69.2753C97.8336 69.4316 97.8336 69.6816 97.6773 69.8223L94.5988 72.9008L98.0211 76.3075C98.4431 74.2604 98.4743 72.0101 98.4431 69.7754C98.3493 69.7598 98.2712 69.7441 98.193 69.6816L97.7398 69.2128L95.3645 66.8375C95.2082 66.6812 95.2082 66.4468 95.3645 66.2906C95.5208 66.1343 95.7552 66.1343 95.9115 66.2906L98.4274 68.7909L98.3337 64.6184C98.2868 64.6028 98.2243 64.6028 98.1774 64.5559L97.2241 63.6027L95.9115 64.8997C95.7552 65.056 95.5208 65.056 95.3645 64.8997C95.2082 64.7591 95.2082 64.5091 95.3645 64.3528L96.6772 63.0401L95.5364 61.9149C95.3801 61.7587 95.3801 61.5086 95.5364 61.3524C95.6927 61.2117 95.9427 61.2117 96.0834 61.3524L97.2241 62.4932L98.2868 61.4305L98.2243 58.2582L98.193 58.2269L97.3179 59.0864C97.1616 59.2427 96.9116 59.2427 96.771 59.0864C96.6147 58.9458 96.6147 58.6958 96.771 58.5395L97.6304 57.6644L96.5991 56.633C96.4428 56.4767 96.4428 56.2267 96.5991 56.0704C96.7397 55.9298 96.9897 55.9298 97.146 56.0704L98.193 57.1174L98.1305 53.9139C98.1305 54.0076 98.0993 54.1014 98.0368 54.1639C97.8805 54.3202 97.6304 54.3202 97.4742 54.1639L96.5209 53.2106L96.4428 53.2888C96.2865 53.4294 96.0365 53.4294 95.8802 53.2888C95.7396 53.1325 95.7396 52.8825 95.8802 52.7262L95.9583 52.6481L95.177 51.8667C95.0363 51.7261 95.0363 51.476 95.177 51.3197C95.3333 51.1635 95.5833 51.1635 95.7396 51.3197L96.5209 52.1011L98.068 50.5384L98.0368 48.8507C97.9899 48.8194 97.943 48.8194 97.9117 48.7882L96.474 47.3505C96.3334 47.413 96.224 47.4598 96.0677 47.2879C95.9115 47.1473 95.9115 46.8973 96.0677 46.741L97.8492 44.9439C97.8649 44.9282 97.8961 44.9282 97.9117 44.9282L96.5834 43.5999C96.4428 43.4437 96.4428 43.1936 96.5834 43.0374C96.7397 42.8967 96.9897 42.8967 97.146 43.0374L97.943 43.85L97.4742 18.9716H2.50802C2.00795 32.239 1.22659 62.4619 1.71104 70.1817C2.2111 78.4797 3.9926 81.9021 15.6817 82.3084L43.5293 83.2616C42.451 76.0575 38.4192 68.5096 36.4346 65.1341C35.7782 64.009 35.3407 63.3526 35.325 63.3214C35.0281 62.8526 35.2938 62.2119 35.8407 62.1181C40.3882 61.2899 47.8424 53.2888 49.155 48.8038V48.46C49.2332 47.5536 50.5771 47.4755 50.6865 48.4287C50.7021 48.4756 50.7334 48.5069 50.749 48.5537C51.8742 52.9919 59.5471 61.2742 64.1571 62.1181C64.7509 62.2275 65.001 62.962 64.5947 63.4152C58.2969 70.2598 56.3435 79.4174 55.7497 83.6679L64.8134 83.9805L65.6729 83.121L65.0791 82.5115C64.9228 82.3553 64.9228 82.1052 65.0791 81.9489C65.2354 81.8083 65.4698 81.8083 65.6261 81.9489L66.2355 82.5584L70.1579 78.636C70.3142 78.4797 70.5642 78.4797 70.7205 78.636C70.8611 78.7766 70.8611 79.0267 70.7205 79.1829L66.7825 83.121L67.6732 83.9961C67.6888 84.0274 67.6888 84.0586 67.7045 84.0742L70.9393 84.1836L70.9549 84.168L69.4703 82.6834C69.3297 82.5272 69.3297 82.2927 69.4703 82.1365C69.6266 81.9802 69.8766 81.9802 70.0329 82.1365L71.5175 83.621L72.377 82.7616L71.7675 82.1521C71.6113 82.0115 71.6113 81.7614 71.7675 81.6052C71.9238 81.4489 72.1582 81.4489 72.3145 81.6052L72.9239 82.2146ZM74.9086 84.3086L75.7212 84.3399L77.3933 82.6678L75.6431 80.9176C75.5805 80.855 75.5493 80.7613 75.5493 80.6832L73.4709 82.7459L74.8148 84.0899C74.8773 84.1524 74.893 84.2305 74.9086 84.3086Z" fill="#1A064F"/>
</svg>
