<svg width="60" height="59" viewBox="0 0 60 59" fill="none" xmlns="http://www.w3.org/2000/svg">
<path d="M19.6886 36.9935C20.5253 31.8319 17.0193 26.9693 11.8577 26.1326C6.69612 25.2958 1.83352 28.8018 0.996788 33.9634C0.160056 39.125 3.66604 43.9876 8.82764 44.8244C13.9892 45.6611 18.8518 42.1551 19.6886 36.9935Z" fill="#E1D3CE"/>
<path d="M15.8301 42.9742C14.9883 40.7657 12.852 39.196 10.3479 39.196C7.83268 39.196 5.68862 40.7796 4.85448 43.0035C4.83561 43.0537 4.81744 43.1045 4.79987 43.1553C6.35928 44.285 8.27506 44.9529 10.3479 44.9529C12.4207 44.9529 14.3365 44.285 15.8959 43.1553C15.8749 43.0945 15.8531 43.0342 15.8301 42.9742Z" fill="#FFE177"/>
<path d="M10.3474 36.2269C11.9452 36.2269 13.2405 34.669 13.2405 32.7472C13.2405 30.8255 11.9452 29.2676 10.3474 29.2676C8.74958 29.2676 7.45428 30.8255 7.45428 32.7472C7.45428 34.669 8.74958 36.2269 10.3474 36.2269Z" fill="#FAF7F7"/>
<path d="M59.0058 36.9383C59.8217 31.7715 56.2945 26.9216 51.1277 26.1058C45.9608 25.29 41.111 28.8172 40.2952 33.984C39.4793 39.1508 43.0065 44.0007 48.1733 44.8165C53.3402 45.6323 58.19 42.1051 59.0058 36.9383Z" fill="#E1D3CE"/>
<path d="M41.4232 30.8015C40.6354 32.1829 40.183 33.7803 40.183 35.4843C40.183 39.6816 42.915 43.2387 46.6969 44.4805C46.8246 43.7085 46.8921 42.9164 46.8921 42.1083C46.8921 37.5261 44.7549 33.4434 41.4232 30.8015Z" fill="#CDBFBA"/>
<path d="M55.1339 42.9742C54.292 40.7657 52.1558 39.196 49.6516 39.196C47.1364 39.196 44.9924 40.7796 44.1582 43.0035C44.1394 43.0537 44.1212 43.1045 44.1036 43.1553C45.6629 44.285 47.5788 44.9529 49.6516 44.9529C51.7245 44.9529 53.6402 44.285 55.1996 43.1553C55.1787 43.0945 55.1568 43.0342 55.1339 42.9742Z" fill="#FD8087"/>
<path d="M44.1582 43.0039C44.1394 43.0541 44.1212 43.1048 44.1036 43.1557C44.8865 43.7228 45.7591 44.1734 46.6964 44.4816C46.8243 43.7095 46.8919 42.9168 46.8919 42.1083C46.8919 41.3829 46.8377 40.6703 46.7344 39.9736C45.5595 40.6492 44.6401 41.7193 44.1582 43.0039Z" fill="#FE646F"/>
<path d="M56.6406 1.46936H3.61106C2.7168 1.46936 1.99188 2.19428 1.99188 3.08854V15.8569C1.99188 16.7512 2.7168 17.4761 3.61106 17.4761H24.964C25.444 17.4761 25.8875 17.7322 26.1275 18.1478L29.2866 23.6196C29.6596 24.2656 30.5922 24.2656 30.9652 23.6196L34.1243 18.1478C34.3643 17.7322 34.8079 17.4761 35.2878 17.4761H56.6407C57.535 17.4761 58.2598 16.7512 58.2598 15.8571V3.08854C58.2597 2.19428 57.5348 1.46936 56.6406 1.46936Z" fill="#FFE177"/>
<path d="M56.641 1.46936H54.7446V13.5131C54.7446 14.4073 54.0196 15.1321 53.1255 15.1321H31.7724C31.2924 15.1321 30.849 15.3882 30.609 15.8039L27.6918 20.8566L29.287 23.6194C29.66 24.2655 30.5926 24.2655 30.9656 23.6194L34.1247 18.1477C34.3647 17.7321 34.8083 17.476 35.2882 17.476H56.6411C57.5354 17.476 58.2602 16.7511 58.2602 15.8569V3.08854C58.2601 2.19428 57.5352 1.46936 56.641 1.46936Z" fill="#FFD15B"/>
<path d="M49.6526 36.2269C51.2505 36.2269 52.5458 34.669 52.5458 32.7472C52.5458 30.8255 51.2505 29.2676 49.6526 29.2676C48.0548 29.2676 46.7595 30.8255 46.7595 32.7472C46.7595 34.669 48.0548 36.2269 49.6526 36.2269Z" fill="#FAF7F7"/>
<path d="M40.3145 52.3036C45.9461 46.672 45.9461 37.5414 40.3145 31.9097C34.6829 26.2781 25.5522 26.2781 19.9206 31.9097C14.289 37.5414 14.289 46.672 19.9206 52.3036C25.5522 57.9353 34.6829 57.9353 40.3145 52.3036Z" fill="#F3EAE6"/>
<path d="M30.1255 27.6853C29.5304 27.6853 28.9439 27.7221 28.3677 27.7922C35.504 28.6594 41.0327 34.7379 41.0327 42.1083C41.0327 49.4787 35.504 55.5571 28.3677 56.4244C28.9439 56.4943 29.5304 56.5312 30.1255 56.5312C38.0911 56.5312 44.5483 50.0739 44.5483 42.1084C44.5483 34.1427 38.0911 27.6853 30.1255 27.6853Z" fill="#E1D3CE"/>
<path d="M38.4763 53.5172C37.1939 50.1532 33.9401 47.7625 30.1257 47.7625C26.2945 47.7625 23.0289 50.1744 21.7583 53.5618C21.7296 53.6385 21.7018 53.7156 21.6751 53.7933C24.0503 55.5139 26.9684 56.5312 30.1256 56.5312C33.2829 56.5312 36.201 55.5139 38.5761 53.7933C38.5444 53.7006 38.5111 53.6085 38.4763 53.5172Z" fill="#62DBFB"/>
<path d="M28.3677 56.4243C30.097 56.6324 31.8694 56.5339 33.5605 56.1184C35.3949 55.6691 37.0916 54.8685 38.576 53.7931C38.3087 53.0137 37.9289 52.2727 37.464 51.6045C35.1838 54.2084 31.9823 55.9851 28.3677 56.4243Z" fill="#01D0FB"/>
<path d="M30.1259 43.239C32.5598 43.239 34.5328 40.8661 34.5328 37.939C34.5328 35.0118 32.5598 32.6389 30.1259 32.6389C27.6921 32.6389 25.7191 35.0118 25.7191 37.939C25.7191 40.8661 27.6921 43.239 30.1259 43.239Z" fill="#FAF7F7"/>
<path d="M12.0387 5.29475L12.9176 7.07565C12.9918 7.226 13.1351 7.33006 13.301 7.3542L15.2664 7.63979C15.6841 7.70049 15.8508 8.21377 15.5486 8.50838L14.1265 9.89459C14.0065 10.0115 13.9517 10.1802 13.98 10.3453L14.3158 12.3027C14.3871 12.7187 13.9505 13.0359 13.5769 12.8395L11.8191 11.9154C11.6707 11.8373 11.4935 11.8373 11.3452 11.9154L9.58738 12.8395C9.21378 13.0359 8.77714 12.7187 8.84851 12.3027L9.18425 10.3453C9.21261 10.1801 9.15777 10.0115 9.03777 9.89459L7.61558 8.50838C7.31335 8.21377 7.48011 7.70049 7.89777 7.63979L9.86312 7.3542C10.0289 7.33006 10.1724 7.22588 10.2466 7.07565L11.1255 5.29475C11.3123 4.91624 11.8519 4.91624 12.0387 5.29475Z" fill="#FAF7F7"/>
<path d="M24.4009 5.29475L25.2798 7.07565C25.354 7.226 25.4974 7.33006 25.6632 7.3542L27.6286 7.63979C28.0462 7.70049 28.213 8.21377 27.9108 8.50838L26.4887 9.89459C26.3687 10.0115 26.314 10.1802 26.3422 10.3453L26.678 12.3027C26.7493 12.7187 26.3127 13.0359 25.9391 12.8395L24.1813 11.9154C24.0329 11.8373 23.8557 11.8373 23.7074 11.9154L21.9496 12.8395C21.576 13.0359 21.1393 12.7187 21.2107 12.3027L21.5464 10.3453C21.5748 10.1801 21.52 10.0115 21.4 9.89459L19.9779 8.50838C19.6757 8.21377 19.8424 7.70049 20.2601 7.63979L22.2254 7.3542C22.3912 7.33006 22.5347 7.22588 22.6089 7.07565L23.4878 5.29475C23.6744 4.91624 24.2141 4.91624 24.4009 5.29475Z" fill="#FAF7F7"/>
<path d="M36.7631 5.29475L37.642 7.07565C37.7162 7.226 37.8595 7.33006 38.0254 7.3542L39.9908 7.63979C40.4084 7.70049 40.5752 8.21377 40.273 8.50838L38.8509 9.89459C38.7309 10.0115 38.676 10.1802 38.7044 10.3453L39.0401 12.3027C39.1115 12.7187 38.6749 13.0359 38.3013 12.8395L36.5435 11.9154C36.3951 11.8373 36.2179 11.8373 36.0696 11.9154L34.3117 12.8395C33.9382 13.0359 33.5015 12.7187 33.5729 12.3027L33.9086 10.3453C33.937 10.1801 33.8823 10.0115 33.7621 9.89459L32.3401 8.50838C32.0378 8.21377 32.2046 7.70049 32.6223 7.63979L34.5876 7.3542C34.7534 7.33006 34.8969 7.22588 34.971 7.07565L35.8499 5.29475C36.0366 4.91624 36.5763 4.91624 36.7631 5.29475Z" fill="#FAF7F7"/>
<path d="M49.1257 5.29475L50.0046 7.07565C50.0788 7.226 50.2222 7.33006 50.388 7.3542L52.3534 7.63979C52.771 7.70049 52.9378 8.21377 52.6356 8.50838L51.2135 9.89459C51.0935 10.0115 51.0388 10.1802 51.067 10.3453L51.4028 12.3027C51.4741 12.7187 51.0375 13.0359 50.6639 12.8395L48.9061 11.9154C48.7577 11.8373 48.5805 11.8373 48.4322 11.9154L46.6744 12.8395C46.3008 13.0359 45.8641 12.7187 45.9355 12.3027L46.2712 10.3453C46.2996 10.1801 46.2449 10.0115 46.1247 9.89459L44.7027 8.50838C44.4005 8.21377 44.5672 7.70049 44.9849 7.63979L46.9502 7.3542C47.116 7.33006 47.2595 7.22588 47.3337 7.07565L48.2126 5.29475C48.3992 4.91624 48.9389 4.91624 49.1257 5.29475Z" fill="#FAF7F7"/>
<path d="M10.3475 37.1058C12.4275 37.1058 14.1196 35.1505 14.1196 32.7472C14.1196 30.3439 12.4275 28.3888 10.3475 28.3888C8.26757 28.3888 6.5755 30.3441 6.5755 32.7472C6.5755 35.1506 8.26769 37.1058 10.3475 37.1058ZM10.3475 30.1466C11.4582 30.1466 12.3617 31.3133 12.3617 32.7472C12.3617 34.1812 11.4581 35.348 10.3475 35.348C9.23683 35.348 8.33331 34.1812 8.33331 32.7472C8.33331 31.3132 9.23695 30.1466 10.3475 30.1466Z" fill="black"/>
<path d="M49.6523 28.3888C47.5723 28.3888 45.8802 30.3441 45.8802 32.7472C45.8802 35.1505 47.5723 37.1058 49.6523 37.1058C51.7322 37.1058 53.4244 35.1505 53.4244 32.7472C53.4244 30.3439 51.7322 28.3888 49.6523 28.3888V28.3888ZM49.6523 35.348C48.5417 35.348 47.6381 34.1812 47.6381 32.7472C47.6381 31.3132 48.5417 30.1466 49.6523 30.1466C50.763 30.1466 51.6666 31.3133 51.6666 32.7472C51.6666 34.1814 50.763 35.348 49.6523 35.348Z" fill="black"/>
<path d="M49.7333 25.1346C49.7061 25.1344 49.6793 25.1343 49.652 25.1343C45.7309 25.1343 42.1696 27.3603 40.4229 30.7991C37.7025 28.32 34.0876 26.8064 30.1259 26.8064C26.0788 26.8064 22.3942 28.3865 19.6548 30.9612C17.9386 27.4411 14.3156 25.1364 10.3479 25.1364C4.64203 25.1364 0 29.7784 0 35.4843C0 41.1901 4.64203 45.8322 10.3478 45.8322C11.9919 45.8322 13.5969 45.4443 15.0455 44.7053C16.2824 51.9101 22.5735 57.4102 30.1257 57.4102C37.6385 57.4102 43.9041 51.9679 45.1871 44.8186C46.5497 45.4702 48.047 45.8178 49.571 45.8298C49.5989 45.8301 49.6267 45.8302 49.6545 45.8302C52.3874 45.8302 54.9616 44.7761 56.9115 42.8565C58.8813 40.9174 59.9781 38.3275 59.9998 35.5635C60.0444 29.8578 55.4389 25.1794 49.7333 25.1346V25.1346ZM1.75781 35.4843C1.75781 30.7478 5.61129 26.8943 10.3478 26.8943C13.8701 26.8943 17.0652 29.0817 18.3471 32.3514C16.5452 34.523 15.3311 37.1987 14.9512 40.1326C13.7217 38.9831 12.0871 38.3174 10.3478 38.3174C7.90887 38.3174 5.65992 39.6614 4.47609 41.7458C2.80488 40.1775 1.75781 37.9514 1.75781 35.4843V35.4843ZM5.8916 42.8255C6.73031 41.1622 8.46199 40.0752 10.3479 40.0752C12.1929 40.0752 13.8795 41.0879 14.7497 42.7181C14.7693 42.7547 14.7918 42.7887 14.8154 42.8213C13.4722 43.6409 11.9323 44.0744 10.3479 44.0744C8.71734 44.0742 7.19156 43.6176 5.8916 42.8255V42.8255ZM22.749 53.4615C24.0244 50.5628 26.9389 48.6411 30.1257 48.6411C33.3168 48.6411 36.2268 50.5615 37.5022 53.4617C35.3784 54.8462 32.8446 55.6522 30.1257 55.6522C27.4068 55.6522 24.8729 54.8462 22.749 53.4615V53.4615ZM38.9388 52.3841C37.3059 49.0597 33.8752 46.8835 30.1259 46.8835C26.3814 46.8835 22.9459 49.0614 21.3128 52.3841C18.4185 49.8982 16.5819 46.214 16.5819 42.1083C16.5819 34.6401 22.6577 28.5644 30.1259 28.5644C37.5941 28.5644 43.6698 34.6402 43.6698 42.1083C43.6697 46.2138 41.8331 49.8982 38.9388 52.3841ZM49.5848 44.0719C48.1136 44.0603 46.6732 43.6723 45.4042 42.9491C45.4146 42.7572 45.4209 42.5643 45.4242 42.3706C45.4242 42.3706 46.9774 40.0752 49.6521 40.0752C51.5411 40.0752 53.2709 41.1621 54.1092 42.8269C52.759 43.6501 51.2041 44.0861 49.5848 44.0719V44.0719ZM55.6784 41.6037C55.6283 41.653 55.5762 41.6994 55.5252 41.7474C54.342 39.6612 52.095 38.3174 49.6521 38.3174C48.0286 38.3174 46.4808 38.9051 45.2728 39.9369C44.8521 36.9886 43.5885 34.3084 41.7336 32.1496C43.0673 28.9817 46.1902 26.8922 49.652 26.8922C49.6744 26.8922 49.6971 26.8922 49.7195 26.8924C54.456 26.9296 58.2791 30.8131 58.242 35.5495C58.2239 37.844 57.3135 39.994 55.6784 41.6037V41.6037Z" fill="black"/>
<path d="M30.1259 31.7605C27.2114 31.7605 24.8402 34.5323 24.8402 37.9394C24.8402 41.3466 27.2114 44.1184 30.1259 44.1184C33.0405 44.1184 35.4117 41.3466 35.4117 37.9394C35.4117 34.5325 33.0405 31.7605 30.1259 31.7605ZM30.1259 42.3606C28.1806 42.3606 26.598 40.3773 26.598 37.9394C26.598 35.5016 28.1806 33.5183 30.1259 33.5183C32.0713 33.5183 33.6539 35.5016 33.6539 37.9394C33.6539 40.3773 32.0713 42.3606 30.1259 42.3606Z" fill="black"/>
<path d="M8.28455 10.3882L7.98174 12.154C7.89174 12.6787 8.10338 13.1989 8.53392 13.5118C8.77732 13.6885 9.06197 13.7784 9.34849 13.7784C9.56916 13.7784 9.79088 13.725 9.99572 13.6174L11.5815 12.7837L13.1673 13.6174C13.6383 13.8651 14.1985 13.8245 14.6292 13.5118C15.0599 13.199 15.2715 12.6787 15.1815 12.154L14.8787 10.3882L16.1617 9.13774C16.5429 8.76626 16.6774 8.22098 16.5129 7.71473C16.3485 7.2086 15.9191 6.84661 15.3923 6.76997L13.6194 6.51227L12.8265 4.90575C12.591 4.42844 12.1139 4.13196 11.5816 4.13196C11.0494 4.13196 10.5724 4.42856 10.3369 4.90575L9.54396 6.51227L7.77092 6.76997C7.24427 6.84649 6.8149 7.20848 6.65037 7.71473C6.48595 8.22086 6.62048 8.76614 7.0017 9.13774L8.28455 10.3882ZM9.98892 8.22403C10.4413 8.1584 10.8321 7.87446 11.0342 7.46465L11.5816 6.35547L12.129 7.46454C12.3313 7.87434 12.722 8.15829 13.1742 8.22391L14.3982 8.4018L13.5123 9.26524C13.1852 9.58422 13.036 10.0435 13.1133 10.4938L13.3223 11.7128L12.2276 11.1373C11.823 10.9246 11.3401 10.9246 10.9357 11.1372L9.8408 11.7128L10.0499 10.4941C10.1272 10.0437 9.97814 9.58434 9.65072 9.26512L8.76502 8.4018L9.98892 8.22403Z" fill="black"/>
<path d="M28.8758 7.71473C28.7114 7.20859 28.282 6.8466 27.7552 6.76996L25.9823 6.51227L25.1894 4.90574C24.9539 4.42844 24.4769 4.13184 23.9447 4.13184C23.4124 4.13184 22.9354 4.42832 22.6999 4.90563L21.907 6.51215L20.1341 6.76984C19.6073 6.84637 19.1779 7.20836 19.0135 7.71461C18.849 8.22086 18.9836 8.76613 19.3647 9.13762L20.6476 10.3881L20.3448 12.1539C20.2548 12.6786 20.4664 13.1988 20.897 13.5116C21.1404 13.6884 21.425 13.7782 21.7115 13.7782C21.9322 13.7782 22.1539 13.7249 22.3588 13.6172L23.9445 12.7836L25.5303 13.6172C26.0014 13.865 26.5616 13.8244 26.9922 13.5116C27.4228 13.1988 27.6344 12.6786 27.5444 12.1539L27.2415 10.3881L28.5245 9.13762C28.9058 8.76625 29.0403 8.22098 28.8758 7.71473V7.71473ZM25.8753 9.26535C25.5482 9.58434 25.3991 10.0436 25.4763 10.4939L25.6854 11.7129L24.5906 11.1374C24.3883 11.031 24.1664 10.9779 23.9445 10.9779C23.7227 10.9779 23.5007 11.0311 23.2986 11.1374L22.2037 11.713L22.4128 10.4939C22.49 10.0436 22.3408 9.58434 22.0135 9.26524L21.1278 8.40191L22.3517 8.22402C22.8041 8.1584 23.1948 7.87445 23.397 7.46465L23.9444 6.35547L24.4918 7.46477C24.6942 7.87457 25.0849 8.1584 25.537 8.22402L26.761 8.40191L25.8753 9.26535Z" fill="black"/>
<path d="M41.2384 7.71473C41.074 7.20848 40.6446 6.84649 40.1179 6.76997L38.3449 6.51227L37.552 4.90575C37.3165 4.42856 36.8394 4.13196 36.3073 4.13196C35.7751 4.13196 35.2982 4.42844 35.0625 4.90575L34.2696 6.51227L32.4966 6.76997C31.9699 6.84649 31.5405 7.20848 31.376 7.71473C31.2116 8.22086 31.3461 8.76614 31.7273 9.13774L33.0103 10.3882L32.7074 12.154C32.6174 12.6787 32.829 13.1989 33.2596 13.5118C33.503 13.6885 33.7875 13.7784 34.0741 13.7784C34.2947 13.7782 34.5165 13.725 34.7214 13.6174L36.3071 12.7837L37.8929 13.6174C38.364 13.8651 38.9242 13.8245 39.3548 13.5118C39.7854 13.199 39.997 12.6787 39.907 12.154L39.6041 10.3882L40.8871 9.13774C41.2683 8.76614 41.4029 8.22086 41.2384 7.71473V7.71473ZM38.2382 9.26512C37.9109 9.58411 37.7617 10.0434 37.8389 10.4938L38.048 11.7128L36.9532 11.1372C36.7509 11.0309 36.5291 10.9777 36.3073 10.9777C36.0854 10.9777 35.8635 11.0309 35.6613 11.1372L34.5666 11.7128L34.7756 10.4937C34.8529 10.0432 34.7036 9.58399 34.3764 9.26501L33.4907 8.40169L34.7147 8.22379C35.167 8.15805 35.5577 7.87422 35.7599 7.46454L36.3073 6.35536L36.8546 7.46442C37.0569 7.87422 37.4476 8.15817 37.8998 8.22379L39.1239 8.40169L38.2382 9.26512Z" fill="black"/>
<path d="M45.622 13.5118C45.8654 13.6885 46.1499 13.7784 46.4366 13.7784C46.6571 13.7782 46.8789 13.725 47.0838 13.6174L48.6696 12.7837L50.2554 13.6174C50.7264 13.8651 51.2866 13.8245 51.7173 13.5118C52.1479 13.199 52.3596 12.6787 52.2696 12.154L51.9668 10.3882L53.2498 9.13762C53.6309 8.76602 53.7655 8.22075 53.6009 7.71461C53.4365 7.20848 53.0072 6.84649 52.4804 6.76997L50.7075 6.51227L49.9146 4.90575C49.679 4.42844 49.202 4.13196 48.6697 4.13196C48.1374 4.13196 47.6605 4.42856 47.4249 4.90575L46.632 6.51227L44.859 6.76997C44.3323 6.84649 43.903 7.20848 43.7384 7.71473C43.574 8.22086 43.7086 8.76614 44.0898 9.13774L45.3726 10.3882L45.0698 12.154C44.9798 12.6787 45.1914 13.1989 45.622 13.5118V13.5118ZM47.077 8.22391C47.5293 8.15829 47.9202 7.87434 48.1223 7.46454L48.6697 6.35536L49.2171 7.46442C49.4193 7.87422 49.81 8.15817 50.2623 8.22379L51.4864 8.40169L50.6007 9.26501C50.2735 9.58399 50.1242 10.0432 50.2014 10.4937L50.4105 11.7127L49.3157 11.1372C49.1135 11.0308 48.8916 10.9777 48.6698 10.9777C48.448 10.9777 48.226 11.0309 48.0239 11.1372L46.9291 11.7128L47.1381 10.4941C47.2155 10.0436 47.0662 9.58411 46.7389 9.26512L45.8532 8.4018L47.077 8.22391Z" fill="black"/>
<path d="M8.78992 2.34827H56.6409C57.049 2.34827 57.3811 2.68026 57.3811 3.08843V15.8568C57.3811 16.265 57.0491 16.597 56.641 16.597H50.4084C49.923 16.597 49.5294 16.9905 49.5294 17.4759C49.5294 17.9613 49.923 18.3548 50.4084 18.3548H56.641C58.0184 18.3548 59.1389 17.2342 59.1389 15.8568V3.08854C59.1389 1.71112 58.0184 0.590576 56.6409 0.590576H8.78992C8.30453 0.590576 7.91101 0.984092 7.91101 1.46948C7.91101 1.95487 8.30453 2.34827 8.78992 2.34827V2.34827Z" fill="black"/>
<path d="M3.61088 18.3549H24.9639C25.1293 18.3549 25.2834 18.444 25.3662 18.5872L28.5253 24.0589C28.8593 24.6374 29.4575 24.9828 30.1256 24.9828C30.7937 24.9828 31.3919 24.6374 31.726 24.0589L34.8852 18.5872C34.9679 18.4439 35.1221 18.3549 35.2875 18.3549H46.8922C47.3776 18.3549 47.7711 17.9614 47.7711 17.476C47.7711 16.9906 47.3776 16.5971 46.8922 16.5971H35.2875C34.4961 16.5971 33.7587 17.0228 33.3629 17.7083L30.2038 23.18C30.196 23.1935 30.1778 23.2251 30.1256 23.2251C30.0736 23.2251 30.0553 23.1936 30.0476 23.1801L26.8884 17.7084C26.4927 17.023 25.7552 16.5972 24.9639 16.5972H3.61088C3.20272 16.5972 2.87073 16.2652 2.87073 15.8571V3.08854C2.87073 2.68038 3.20272 2.34839 3.61088 2.34839H5.27389C5.75928 2.34839 6.1528 1.95487 6.1528 1.46948C6.1528 0.984092 5.75928 0.590576 5.27389 0.590576H3.61088C2.23346 0.590576 1.11292 1.71112 1.11292 3.08854V15.8569C1.11292 17.2342 2.23358 18.3549 3.61088 18.3549V18.3549Z" fill="black"/>
</svg>
