<svg width="60" height="60" viewBox="0 0 60 60" fill="none" xmlns="http://www.w3.org/2000/svg">
<path d="M0.880676 55.5972H59.1194V59.1197H0.880676V55.5972Z" fill="#E4E8ED"/>
<path d="M57.5931 55.597H2.40717V49.7262L23.3858 47.048C26.8948 46.6001 30.0001 49.3341 30.0001 52.8717V55.597V52.8717C30.0001 49.3343 33.1054 46.6001 36.6144 47.048L57.5931 49.7262V55.597Z" fill="#FEEF8F"/>
<path d="M30.0001 52.8717C30.0001 52.6007 29.9798 52.3351 29.9446 52.0746H2.40717V55.5971H57.5931V52.0746H30.0557C30.0204 52.3351 30.0001 52.6006 30.0001 52.8717Z" fill="#FFC277"/>
<path d="M29.9999 26.1253C31.9453 26.1253 33.5224 24.5483 33.5224 22.6028C33.5224 20.6574 31.9453 19.0803 29.9999 19.0803C28.0544 19.0803 26.4774 20.6574 26.4774 22.6028C26.4774 24.5483 28.0544 26.1253 29.9999 26.1253Z" fill="#EBFDC0"/>
<path d="M11.6832 36.1055C13.6286 36.1055 15.2057 34.5285 15.2057 32.583C15.2057 30.6376 13.6286 29.0605 11.6832 29.0605C9.73778 29.0605 8.16071 30.6376 8.16071 32.583C8.16071 34.5285 9.73778 36.1055 11.6832 36.1055Z" fill="#EBFDC0"/>
<path d="M22.9555 10.3914C24.901 10.3914 26.4781 8.81437 26.4781 6.86894C26.4781 4.92351 24.901 3.34644 22.9555 3.34644C21.0101 3.34644 19.433 4.92351 19.433 6.86894C19.433 8.81437 21.0101 10.3914 22.9555 10.3914Z" fill="#EBFDC0"/>
<path d="M48.9045 33.405C50.8499 33.405 52.427 31.8279 52.427 29.8825C52.427 27.9371 50.8499 26.36 48.9045 26.36C46.9591 26.36 45.382 27.9371 45.382 29.8825C45.382 31.8279 46.9591 33.405 48.9045 33.405Z" fill="#EBFDC0"/>
<path d="M29.9999 22.6028C28.6964 22.6028 27.5589 21.8941 26.9498 20.8416C26.6499 21.3598 26.4774 21.961 26.4774 22.6028C26.4774 24.5483 28.0544 26.1253 29.9999 26.1253C31.9454 26.1253 33.5224 24.5483 33.5224 22.6028C33.5224 21.961 33.3499 21.3598 33.05 20.8416C32.4409 21.8941 31.3035 22.6028 29.9999 22.6028Z" fill="#C7EFBC"/>
<path d="M11.6832 32.5831C10.3796 32.5831 9.24223 31.8744 8.63307 30.8219C8.33319 31.3402 8.16071 31.9413 8.16071 32.5831C8.16071 34.5286 9.73773 36.1056 11.6832 36.1056C13.6287 36.1056 15.2057 34.5286 15.2057 32.5831C15.2057 31.9413 15.0332 31.3402 14.7333 30.8219C14.1242 31.8744 12.9868 32.5831 11.6832 32.5831Z" fill="#C7EFBC"/>
<path d="M22.9547 6.86904C21.6511 6.86904 20.5137 6.16031 19.9046 5.10779C19.6047 5.62607 19.4322 6.22724 19.4322 6.86904C19.4322 8.81452 21.0092 10.3915 22.9547 10.3915C24.9002 10.3915 26.4772 8.81452 26.4772 6.86904C26.4772 6.22724 26.3047 5.62607 26.0048 5.10779C25.3957 6.16031 24.2583 6.86904 22.9547 6.86904Z" fill="#C7EFBC"/>
<path d="M48.9045 29.8825C47.601 29.8825 46.4636 29.1737 45.8544 28.1212C45.5545 28.6395 45.382 29.2407 45.382 29.8825C45.382 31.8279 46.9591 33.405 48.9045 33.405C50.85 33.405 52.427 31.8279 52.427 29.8825C52.427 29.2407 52.2546 28.6395 51.9547 28.1212C51.3455 29.1737 50.2081 29.8825 48.9045 29.8825Z" fill="#C7EFBC"/>
<path d="M25.0684 51.194H26.8296V52.9552H25.0684V51.194Z" fill="white"/>
<path d="M21.5458 51.194H23.307V52.9552H21.5458V51.194Z" fill="white"/>
<path d="M58.4738 54.7164V48.9508L41.2222 46.7487L40.9991 48.4957L56.7126 50.5017V54.7164H40.0981V56.4777H58.239V58.239H8.63037V60.0002H60.0002V54.7164H58.4738Z" fill="black"/>
<path d="M1.76125 56.4773H38.3366V54.716H30.8806V52.8713C30.8806 50.1192 33.1142 47.88 35.8599 47.88C36.0733 47.88 36.2894 47.8939 36.5028 47.9212L39.2519 48.2722L39.475 46.5252L36.7263 46.1742C36.4395 46.1376 36.1479 46.1188 35.8599 46.1188C33.353 46.1188 31.1611 47.4971 30 49.5368C28.8387 47.4971 26.6469 46.1189 24.14 46.1189C23.8523 46.1189 23.5609 46.1374 23.2741 46.1742L1.52642 48.9504V54.716H0V59.9998H6.86888V58.2385H1.76125V56.4773ZM3.28767 50.5012L23.4973 47.9212C23.7103 47.894 23.9266 47.8801 24.14 47.8801C26.8856 47.8801 29.1194 50.1192 29.1194 52.8713V54.716H3.28767V50.5012Z" fill="black"/>
<path d="M29.9999 18.1997C27.5719 18.1997 25.5967 20.1749 25.5967 22.6028C25.5967 25.0308 27.5719 27.006 29.9999 27.006C32.4278 27.006 34.403 25.0308 34.403 22.6028C34.403 20.1749 32.4278 18.1997 29.9999 18.1997ZM29.9999 25.2447C28.5432 25.2447 27.358 24.0595 27.358 22.6028C27.358 21.1462 28.5432 19.961 29.9999 19.961C31.4565 19.961 32.6417 21.1462 32.6417 22.6028C32.6417 24.0595 31.4565 25.2447 29.9999 25.2447Z" fill="black"/>
<path d="M11.6832 36.9863C12.8759 36.9863 13.9586 36.5089 14.7523 35.736C15.7998 36.0324 16.9885 36.1787 18.2902 36.1787C19.3404 36.1787 20.4629 36.0845 21.6402 35.9003C23.4892 41.5738 26.5162 45.2055 30.0002 45.2055C33.4862 45.2055 36.5146 41.5697 38.3633 35.8907C38.4671 35.907 38.5709 35.9232 38.6739 35.9381C39.7539 36.0943 40.7732 36.1714 41.724 36.1714C44.5207 36.1714 46.7195 35.5013 48.1097 34.2124C48.3677 34.2597 48.6329 34.2857 48.9044 34.2857C51.3324 34.2857 53.3075 32.3105 53.3075 29.8826C53.3075 27.4546 51.3322 25.4795 48.9043 25.4795C48.7195 25.4795 48.5376 25.4923 48.3587 25.5144C47.7897 24.4624 47.0625 23.3901 46.1962 22.3169C46.7927 21.6546 47.3421 20.9876 47.8384 20.3196C50.7273 16.4319 51.5242 12.9163 50.0826 10.4206C48.6416 7.92458 45.199 6.85785 40.3877 7.41511C39.5616 7.51092 38.7097 7.65311 37.8385 7.83828C35.9681 3.01362 33.1737 0 30.0002 0C28.166 0 26.4059 1.00157 24.8735 2.9063C24.2934 2.62427 23.6425 2.46575 22.9552 2.46575C20.5272 2.46575 18.552 4.44094 18.552 6.86889C18.552 7.02094 18.5598 7.17112 18.5749 7.31918C14.3059 7.0207 11.256 8.10329 9.91792 10.4206C8.47627 12.9164 9.27318 16.4319 12.162 20.3197C12.6565 20.9852 13.2038 21.6499 13.7978 22.3099C12.1256 24.3821 10.9805 26.4413 10.4954 28.3442C8.64277 28.864 7.28003 30.5669 7.28003 32.5832C7.28003 35.0111 9.25522 36.9863 11.6832 36.9863ZM21.9244 29.1251C22.7114 29.6396 23.5223 30.1389 24.3548 30.6194C25.48 31.2692 26.6186 31.8692 27.7587 32.4167C26.0726 33.0464 24.4296 33.5366 22.8774 33.8736C22.4744 32.3867 22.155 30.7934 21.9244 29.1251ZM35.8339 37.613C34.2313 41.3188 32.105 43.4442 30.0002 43.4442C27.8954 43.4442 25.7691 41.3188 24.1664 37.613C23.8864 36.9654 23.6272 36.2823 23.3887 35.5686C25.4868 35.1059 27.7209 34.3853 30.0062 33.4262C32.2642 34.3705 34.4977 35.0933 36.6145 35.5599C36.3752 36.2766 36.115 36.9628 35.8339 37.613ZM37.1243 33.8684C35.5553 33.5306 33.9142 33.0427 32.2423 32.419C33.3746 31.8739 34.5124 31.2736 35.6456 30.6194C36.478 30.1388 37.289 29.6396 38.076 29.1251C37.8456 30.7915 37.5267 32.383 37.1243 33.8684ZM48.9043 27.2407C50.361 27.2407 51.5462 28.4259 51.5462 29.8826C51.5462 31.3393 50.361 32.5245 48.9043 32.5245C47.4476 32.5245 46.2624 31.3393 46.2624 29.8826C46.2624 28.4259 47.4476 27.2407 48.9043 27.2407ZM46.6679 26.0919C45.3723 26.8592 44.5012 28.2707 44.5012 29.8826C44.5012 31.3227 45.1962 32.6035 46.2684 33.4074C44.6962 34.3666 42.1094 34.6556 38.9261 34.1951C38.9063 34.1923 38.8861 34.1888 38.8661 34.1859C39.3861 32.2329 39.7768 30.0844 40.0128 27.792C41.8507 26.4602 43.5217 25.0487 44.9745 23.6004C45.636 24.4377 46.2049 25.2719 46.6679 26.0919ZM40.131 18.7506C41.5176 19.8931 42.7614 21.0709 43.8322 22.2539C42.7461 23.3465 41.5259 24.4199 40.1964 25.4537C40.2476 24.5215 40.2742 23.5703 40.2742 22.6027C40.2742 21.2863 40.2247 20 40.131 18.7506ZM40.5906 9.16485C44.6009 8.69965 47.5048 9.47859 48.5574 11.3015C49.6102 13.1241 48.8329 16.0283 46.4247 19.2692C46.0025 19.8375 45.5387 20.4055 45.0379 20.9708C43.5836 19.38 41.8436 17.8066 39.8866 16.3158C39.5721 13.8402 39.0749 11.5494 38.4275 9.51405C39.1661 9.36352 39.8887 9.24622 40.5906 9.16485ZM38.5129 22.6027C38.5129 24.0386 38.452 25.4519 38.3334 26.8268C37.2019 27.6169 36.0085 28.3762 34.765 29.0942C33.1805 30.0092 31.5792 30.8153 29.9973 31.508C28.4088 30.8121 26.81 30.0034 25.2354 29.0942C23.9918 28.3764 22.7984 27.617 21.667 26.8268C21.5484 25.4519 21.4875 24.0386 21.4875 22.6027C21.4875 20.784 21.5869 18.9959 21.7788 17.2701C23.1691 16.2469 24.6686 15.2643 26.2522 14.3501C27.4957 13.6321 28.7499 12.9782 29.9998 12.3935C31.2517 12.9786 32.5033 13.6313 33.7481 14.3501C35.3319 15.2645 36.8322 16.2449 38.2236 17.267C38.4142 18.9875 38.5129 20.7767 38.5129 22.6027ZM37.8926 14.8781C36.8497 14.1653 35.7597 13.4777 34.6289 12.8247C33.7951 12.3433 32.958 11.8912 32.1194 11.4668C33.6782 10.8329 35.2164 10.3132 36.7045 9.9189C37.1983 11.4488 37.5967 13.1151 37.8926 14.8781ZM30.0002 1.76125C32.105 1.76125 34.2313 3.88673 35.8339 7.59253C35.9279 7.80986 36.0191 8.03178 36.1084 8.25675C34.1289 8.79088 32.0722 9.53202 30.0012 10.4575C28.9072 9.96904 27.8132 9.53119 26.7228 9.14513C27.1259 8.48055 27.3583 7.70137 27.3583 6.86889C27.3583 5.76305 26.9476 4.75198 26.272 3.97785C27.1791 2.86027 28.4621 1.76125 30.0002 1.76125ZM27.8788 11.4681C27.0405 11.8922 26.2033 12.3445 25.3716 12.8247C24.2388 13.4787 23.15 14.1636 22.112 14.8715C22.3225 13.6218 22.5847 12.4165 22.8973 11.2705C22.9167 11.2708 22.9358 11.272 22.9552 11.272C23.8485 11.272 24.6799 11.004 25.3749 10.545C26.2068 10.8207 27.0421 11.1289 27.8788 11.4681ZM22.9552 4.22701C24.4118 4.22701 25.5971 5.41221 25.5971 6.86889C25.5971 8.32556 24.4118 9.51076 22.9552 9.51076C21.4985 9.51076 20.3133 8.32556 20.3133 6.86889C20.3133 5.41221 21.4985 4.22701 22.9552 4.22701ZM13.5757 19.2692C11.1675 16.0282 10.3902 13.1241 11.443 11.3015C12.4788 9.50783 15.2882 8.72971 19.1849 9.14078C19.6507 9.91092 20.3462 10.5268 21.1753 10.8948C20.717 12.5924 20.3641 14.4097 20.1212 16.3047C18.1481 17.804 16.4066 19.3786 14.9566 20.9641C14.4581 20.4011 13.9963 19.8352 13.5757 19.2692ZM19.8039 25.4537C18.4749 24.4202 17.2551 23.3472 16.1692 22.255C17.2376 21.0789 18.4832 19.9006 19.872 18.7551C19.7764 20.0168 19.7262 21.3026 19.7262 22.6027C19.7262 23.5703 19.7529 24.5215 19.8039 25.4537ZM15.0251 23.5995C16.478 25.0479 18.1493 26.4599 19.9876 27.7919C20.2239 30.0865 20.6151 32.2371 21.1359 34.1918C19.1072 34.4925 17.2841 34.4973 15.7861 34.1783C15.9792 33.6833 16.0864 33.1456 16.0864 32.5832C16.0864 30.3855 14.4681 28.5589 12.3604 28.2322C12.8348 26.7775 13.7516 25.2033 15.0251 23.5995ZM11.6832 29.9413C13.1398 29.9413 14.325 31.1265 14.325 32.5832C14.325 34.0398 13.1398 35.2251 11.6832 35.2251C10.2265 35.2251 9.04128 34.0398 9.04128 32.5832C9.04128 31.1265 10.2265 29.9413 11.6832 29.9413Z" fill="black"/>
<path d="M53.3071 2.34839H55.0683V4.10964H53.3071V2.34839Z" fill="black"/>
<path d="M53.3071 8.21899H55.0683V9.98024H53.3071V8.21899Z" fill="black"/>
<path d="M56.2426 5.28394H58.0038V7.04519H56.2426V5.28394Z" fill="black"/>
<path d="M50.3716 5.28394H52.1328V7.04519H50.3716V5.28394Z" fill="black"/>
<path d="M5.7536 38.1603H7.51485V39.9215H5.7536V38.1603Z" fill="black"/>
<path d="M5.7536 44.0312H7.51485V45.7925H5.7536V44.0312Z" fill="black"/>
<path d="M8.68909 41.0958H10.4503V42.8571H8.68909V41.0958Z" fill="black"/>
<path d="M2.81812 41.0958H4.57937V42.8571H2.81812V41.0958Z" fill="black"/>
</svg>
