<svg width="83" height="25" viewBox="0 0 83 25" fill="none" xmlns="http://www.w3.org/2000/svg">
<g clip-path="url(#clip0_4_1564)">
<path d="M0.889038 17.57V0.364H3.91104V17.57H0.889038ZM11.648 5.088C10.7929 5.06873 9.94262 5.22077 9.14717 5.53515C8.35172 5.84954 7.62722 6.31992 7.01635 6.91858C6.40547 7.51725 5.92056 8.23211 5.59018 9.02105C5.2598 9.80999 5.09063 10.6571 5.09264 11.5124C5.09464 12.3677 5.26777 13.214 5.60184 14.0014C5.93591 14.7887 6.42415 15.5013 7.03783 16.0971C7.6515 16.6929 8.37819 17.1599 9.1751 17.4706C9.97202 17.7812 10.823 17.9293 11.678 17.906C12.5264 17.9144 13.368 17.7544 14.154 17.4351C14.94 17.1158 15.6548 16.6437 16.257 16.046C16.8592 15.4484 17.3367 14.7372 17.662 13.9536C17.9872 13.17 18.1536 12.3297 18.1517 11.4813C18.1497 10.6329 17.9793 9.79337 17.6504 9.01133C17.3215 8.22928 16.8406 7.52031 16.2357 6.92551C15.6307 6.33071 14.9137 5.86193 14.1262 5.54633C13.3387 5.23073 12.4963 5.07461 11.648 5.087V5.088ZM11.613 8C12.4136 7.99747 13.1903 8.27247 13.8109 8.77819C14.4315 9.28391 14.8577 9.98909 15.0169 10.7737C15.176 11.5583 15.0584 12.3738 14.6839 13.0814C14.3094 13.789 13.7013 14.3449 12.963 14.6545C12.2247 14.9642 11.402 15.0084 10.6348 14.7797C9.86759 14.5509 9.20338 14.0633 8.75523 13.3999C8.30708 12.7366 8.1027 11.9384 8.17687 11.1412C8.25105 10.3441 8.59919 9.59731 9.16204 9.028C9.81153 8.37556 10.6925 8.00609 11.613 8ZM25.777 5.088C24.9219 5.06873 24.0716 5.22077 23.2762 5.53515C22.4807 5.84954 21.7562 6.31992 21.1453 6.91858C20.5345 7.51725 20.0496 8.23211 19.7192 9.02105C19.3888 9.80999 19.2196 10.6571 19.2216 11.5124C19.2236 12.3677 19.3968 13.214 19.7308 14.0014C20.0649 14.7887 20.5532 15.5013 21.1668 16.0971C21.7805 16.6929 22.5072 17.1599 23.3041 17.4706C24.101 17.7812 24.952 17.9293 25.807 17.906C26.661 17.9268 27.5104 17.775 28.3042 17.4597C29.0981 17.1444 29.8202 16.6721 30.4271 16.071C31.0341 15.4699 31.5134 14.7525 31.8364 13.9617C32.1595 13.171 32.3195 12.3231 32.307 11.469C32.3918 10.2907 32.0413 9.12217 31.322 8.185L32.16 7.898V5.445H27.873C27.1975 5.21092 26.4879 5.09029 25.773 5.088H25.777ZM25.742 8C26.5425 7.99793 27.319 8.27333 27.9393 8.77931C28.5596 9.28529 28.9854 9.99059 29.1442 10.7752C29.303 11.5597 29.185 12.3751 28.8103 13.0825C28.4356 13.7899 27.8274 14.3455 27.0891 14.6549C26.3508 14.9643 25.5281 15.0083 24.7611 14.7794C23.994 14.5505 23.3299 14.0629 22.8819 13.3995C22.4339 12.7362 22.2297 11.938 22.3039 11.141C22.3781 10.3439 22.7262 9.59725 23.289 9.028C23.939 8.37508 24.8208 8.00556 25.742 8ZM29.242 18.408C29.242 19.3331 28.8746 20.2203 28.2204 20.8744C27.5663 21.5285 26.6791 21.896 25.754 21.896C24.829 21.896 23.9418 21.5285 23.2876 20.8744C22.6335 20.2203 22.266 19.3331 22.266 18.408H19.199C19.1847 19.2701 19.3466 20.126 19.6747 20.9233C20.0029 21.7206 20.4904 22.4425 21.1074 23.0447C21.7244 23.6469 22.4579 24.1168 23.263 24.4255C24.068 24.7342 24.9276 24.8752 25.789 24.84C26.6425 24.8618 27.4915 24.7109 28.2852 24.3965C29.079 24.0821 29.801 23.6106 30.408 23.0103C31.015 22.41 31.4945 21.6933 31.8178 20.9031C32.141 20.1129 32.3013 19.2656 32.289 18.412L29.242 18.408ZM33.524 17.567V5.445H36.547V17.57L33.524 17.567ZM39.481 17.567V8.161H37.86V5.445H39.481V1.722H42.503V5.445H44.168V8.161H42.503V17.57L39.481 17.567ZM37.03 2C37.03 2.39556 36.9127 2.78224 36.693 3.11114C36.4732 3.44004 36.1609 3.69638 35.7954 3.84776C35.43 3.99913 35.0278 4.03874 34.6399 3.96157C34.2519 3.8844 33.8955 3.69392 33.6158 3.41421C33.3361 3.13451 33.1456 2.77814 33.0685 2.39018C32.9913 2.00222 33.0309 1.60009 33.1823 1.23463C33.3337 0.869181 33.59 0.556824 33.9189 0.337061C34.2478 0.117298 34.6345 0 35.03 0C35.5605 0 36.0692 0.210714 36.4443 0.585786C36.8193 0.960859 37.03 1.46957 37.03 2ZM50.963 5.08C50.1086 5.06267 49.2597 5.21999 48.4682 5.54231C47.6768 5.86463 46.9594 6.34518 46.3602 6.95449C45.761 7.5638 45.2926 8.28906 44.9835 9.0858C44.6745 9.88255 44.5314 10.734 44.563 11.588C44.528 12.4402 44.6724 13.2903 44.9869 14.0832C45.3014 14.8761 45.779 15.594 46.3887 16.1905C46.9984 16.787 47.7266 17.2487 48.5262 17.5458C49.3257 17.8429 50.1788 17.9687 51.03 17.915C52.0572 17.9475 53.0794 17.7589 54.0275 17.3621C54.9755 16.9653 55.8272 16.3695 56.525 15.615L54.505 13.592C53.5987 14.5413 52.3768 15.1266 51.069 15.238C50.3106 15.2678 49.5655 15.0327 48.9615 14.5731C48.3576 14.1135 47.9324 13.4579 47.759 12.719H57.177V11.887C57.177 8.566 55.255 5.081 50.968 5.081L50.963 5.08ZM50.863 7.741C51.6055 7.69831 52.3373 7.9329 52.9166 8.39928C53.4959 8.86565 53.8813 9.53055 53.998 10.265H47.668C47.8166 9.53374 48.2197 8.87884 48.8056 8.41672C49.3915 7.95459 50.1223 7.71517 50.868 7.741H50.863ZM64.732 17.916C63.889 17.9169 63.054 17.7516 62.2747 17.4298C61.4955 17.1079 60.7873 16.6358 60.1905 16.0402C58.9853 14.8375 58.3073 13.2052 58.3055 11.5025C58.3038 9.79981 58.9786 8.16617 60.1813 6.96097C61.3841 5.75577 63.0163 5.07772 64.719 5.076C65.7089 5.06859 66.688 5.28239 67.5847 5.70176C68.4814 6.12114 69.2731 6.73551 69.902 7.5L67.789 9.6C67.4115 9.13765 66.9421 8.75867 66.4106 8.48705C65.879 8.21543 65.2969 8.05708 64.701 8.022C64.2421 8.01057 63.7856 8.09221 63.359 8.26199C62.9325 8.43177 62.5447 8.68618 62.2192 9.00987C61.8936 9.33357 61.637 9.71984 61.4648 10.1454C61.2925 10.571 61.2083 11.027 61.217 11.486C61.2055 11.9461 61.2867 12.4037 61.4558 12.8318C61.6249 13.2598 61.8784 13.6494 62.2013 13.9773C62.5242 14.3052 62.9098 14.5648 63.3351 14.7405C63.7605 14.9162 64.2169 15.0044 64.677 15C65.2774 14.9688 65.8645 14.8121 66.4006 14.5399C66.9366 14.2678 67.4096 13.8863 67.789 13.42L69.919 15.52C69.2883 16.282 68.495 16.8931 67.5972 17.3084C66.6995 17.7237 65.7201 17.9327 64.731 17.92L64.732 17.916ZM71.02 17.579V0.32H74.042V6.661C74.4967 6.13835 75.063 5.72463 75.6991 5.45044C76.3353 5.17626 77.0249 5.04863 77.717 5.077C80.882 5.077 82.717 7.43 82.717 10.439V17.579H79.689V10.9C79.7345 10.5312 79.6988 10.157 79.5845 9.80348C79.4702 9.44994 79.2801 9.12564 79.0274 8.85324C78.7747 8.58085 78.4656 8.36694 78.1216 8.22647C77.7777 8.086 77.4072 8.02236 77.036 8.04C76.6325 8.00791 76.2267 8.06407 75.847 8.20458C75.4673 8.3451 75.1228 8.56659 74.8373 8.85368C74.5518 9.14077 74.3323 9.48657 74.1939 9.86706C74.0555 10.2475 74.0017 10.6536 74.036 11.057V17.584H71.02V17.579Z" fill="#6A7A99"/>
</g>
<defs>
<clipPath id="clip0_4_1564">
<rect width="81.828" height="24.845" fill="white" transform="translate(0.889038)"/>
</clipPath>
</defs>
</svg>
