<svg width="100" height="30" viewBox="0 0 100 30" fill="none" xmlns="http://www.w3.org/2000/svg">
<g clip-path="url(#clip0_4_1566)">
<path d="M15.4732 3.38876e-08C12.5547 0.000197812 9.70192 0.86579 7.27544 2.48732C4.84896 4.10885 2.9578 6.41349 1.84111 9.10982C0.724415 11.8061 0.432339 14.773 1.00182 17.6354C1.57129 20.4977 2.97674 23.1269 5.04045 25.1904C7.10415 27.254 9.73342 28.6593 12.5958 29.2285C15.4581 29.7978 18.425 29.5055 21.1213 28.3887C23.8175 27.2718 26.122 25.3805 27.7434 22.9539C29.3648 20.5273 30.2302 17.6744 30.2302 14.756C30.2302 12.8181 29.8485 10.8992 29.1068 9.10889C28.3652 7.31855 27.2782 5.69181 25.9079 4.32158C24.5375 2.95134 22.9107 1.86445 21.1203 1.12295C19.3299 0.381447 17.411 -0.000131294 15.4732 3.38876e-08ZM22.2402 21.282C22.1768 21.3848 22.0939 21.4741 21.996 21.5448C21.8981 21.6155 21.7873 21.6663 21.6698 21.6941C21.5523 21.722 21.4305 21.7264 21.3113 21.7072C21.1921 21.6879 21.0779 21.6454 20.9752 21.582C17.5102 19.466 13.1492 18.982 8.01216 20.16C7.77426 20.2142 7.52456 20.1717 7.31799 20.0419C7.11142 19.912 6.9649 19.7054 6.91066 19.4675C6.85642 19.2296 6.89891 18.9799 7.02878 18.7733C7.15865 18.5668 7.36526 18.4202 7.60316 18.366C13.2242 17.082 18.0462 17.635 21.9352 20.012C22.0389 20.075 22.1292 20.158 22.2008 20.2561C22.2723 20.3541 22.3238 20.4654 22.3521 20.5835C22.3805 20.7015 22.3852 20.824 22.366 20.9439C22.3468 21.0638 22.304 21.1787 22.2402 21.282ZM24.0462 17.264C23.8867 17.5241 23.6304 17.7102 23.3338 17.7814C23.0372 17.8527 22.7244 17.8032 22.4642 17.644C17.9852 15.1469 12.6988 14.528 7.76416 15.923C7.47242 16.0122 7.15718 15.9819 6.88779 15.8388C6.61839 15.6956 6.41691 15.4512 6.32766 15.1595C6.23842 14.8678 6.26872 14.5525 6.4119 14.2831C6.55509 14.0137 6.79942 13.8122 7.09116 13.723C9.84502 12.9302 12.7294 12.6952 15.5753 13.0318C18.4212 13.3683 21.1712 14.2697 23.6642 15.683C23.793 15.762 23.9049 15.8655 23.9937 15.9878C24.0824 16.11 24.1462 16.2486 24.1814 16.3955C24.2166 16.5424 24.2225 16.6948 24.1988 16.844C24.1751 16.9932 24.1222 17.1362 24.0432 17.265L24.0462 17.264ZM24.2012 13.08C19.4452 10.255 11.6012 9.995 7.05816 11.374C6.88366 11.4305 6.69964 11.4516 6.51688 11.4361C6.33411 11.4207 6.15626 11.3689 5.99372 11.2839C5.83119 11.199 5.68723 11.0824 5.57025 10.9411C5.45328 10.7999 5.36565 10.6367 5.31247 10.4611C5.2593 10.2856 5.24165 10.1012 5.26056 9.91877C5.27948 9.73633 5.33457 9.55949 5.42262 9.39858C5.51067 9.23768 5.62991 9.09595 5.77338 8.98167C5.91684 8.86738 6.08165 8.78285 6.25816 8.733C11.4702 7.151 20.1352 7.456 25.6112 10.707C25.767 10.7994 25.9032 10.9217 26.0118 11.0668C26.1205 11.2118 26.1994 11.3769 26.2443 11.5525C26.2892 11.7281 26.299 11.9108 26.2732 12.0902C26.2475 12.2696 26.1866 12.4421 26.0942 12.598C26.0017 12.7539 25.8795 12.89 25.7344 12.9987C25.5893 13.1073 25.4243 13.1863 25.2487 13.2311C25.0731 13.276 24.8904 13.2858 24.711 13.2601C24.5316 13.2343 24.359 13.1734 24.2032 13.081L24.2012 13.08ZM40.8642 13.623C38.3162 13.015 37.8642 12.589 37.8642 11.693C37.8642 10.846 38.6642 10.277 39.8462 10.277C41.1209 10.3225 42.3449 10.7876 43.3282 11.6C43.346 11.6132 43.3664 11.6227 43.3879 11.628C43.4095 11.6333 43.4319 11.6342 43.4539 11.6308C43.4758 11.6273 43.4969 11.6196 43.5158 11.6079C43.5347 11.5963 43.5512 11.581 43.5642 11.563L44.8082 9.809C44.8328 9.77422 44.8432 9.73134 44.8373 9.68914C44.8313 9.64694 44.8095 9.60861 44.7762 9.582C43.3976 8.45437 41.6639 7.85203 39.8832 7.882C37.1322 7.882 35.2102 9.533 35.2102 11.895C35.2102 14.428 36.8682 15.325 39.7332 16.017C42.1702 16.579 42.5822 17.049 42.5822 17.89C42.5822 18.822 41.7502 19.402 40.4112 19.402C38.8924 19.3903 37.4375 18.7894 36.3532 17.726C36.3193 17.6972 36.2756 17.6825 36.2312 17.685C36.2091 17.6865 36.1875 17.6924 36.1678 17.7023C36.148 17.7123 36.1305 17.7261 36.1162 17.743L34.7162 19.403C34.6881 19.4363 34.6741 19.4793 34.6771 19.5227C34.68 19.5662 34.6998 19.6068 34.7322 19.636C36.2704 21.0298 38.2744 21.7977 40.3502 21.789C43.3142 21.789 45.2292 20.17 45.2292 17.662C45.2342 15.546 43.9672 14.374 40.8642 13.62H40.8592L40.8642 13.623ZM51.9402 11.11C51.3224 11.1019 50.7113 11.237 50.1545 11.5047C49.5978 11.7724 49.1106 12.1655 48.7312 12.653V11.485C48.7313 11.4631 48.7271 11.4414 48.7188 11.4212C48.7105 11.4009 48.6983 11.3825 48.6829 11.367C48.6675 11.3515 48.6491 11.3391 48.6289 11.3307C48.6087 11.3223 48.587 11.318 48.5652 11.318H46.2842C46.2623 11.318 46.2406 11.3223 46.2204 11.3307C46.2002 11.3391 46.1819 11.3515 46.1664 11.367C46.151 11.3825 46.1388 11.4009 46.1305 11.4212C46.1222 11.4414 46.118 11.4631 46.1182 11.485V24.454C46.1182 24.4981 46.1356 24.5404 46.1667 24.5717C46.1978 24.603 46.24 24.6207 46.2842 24.621H48.5642C48.6083 24.6207 48.6505 24.603 48.6816 24.5717C48.7127 24.5404 48.7302 24.4981 48.7302 24.454V20.361C49.1236 20.8263 49.6157 21.198 50.1708 21.4492C50.7259 21.7003 51.33 21.8246 51.9392 21.813C54.3272 21.813 56.7442 19.975 56.7442 16.462C56.7442 12.949 54.3302 11.109 51.9442 11.109L51.9402 11.11ZM54.0922 16.462C54.1321 16.8408 54.093 17.2237 53.9772 17.5865C53.8614 17.9493 53.6715 18.2842 53.4196 18.5698C53.1676 18.8554 52.8591 19.0855 52.5136 19.2457C52.168 19.4058 51.7929 19.4924 51.4122 19.5C51.0305 19.4878 50.6552 19.3986 50.3088 19.2378C49.9624 19.0769 49.6521 18.8478 49.3965 18.564C49.1409 18.2803 48.9452 17.9479 48.8213 17.5866C48.6973 17.2254 48.6476 16.8429 48.6752 16.462C48.6475 16.081 48.6971 15.6984 48.821 15.337C48.9449 14.9757 49.1405 14.6431 49.3961 14.3593C49.6518 14.0755 49.9621 13.8462 50.3085 13.6853C50.655 13.5244 51.0304 13.4352 51.4122 13.423C51.7914 13.435 52.1642 13.5245 52.5076 13.686C52.8509 13.8476 53.1576 14.0777 53.4086 14.3622C53.6597 14.6467 53.8499 14.9796 53.9674 15.3404C54.085 15.7012 54.1274 16.0822 54.0922 16.46V16.462ZM62.9392 11.11C61.8825 11.1299 60.8553 11.4616 59.9865 12.0633C59.1177 12.665 58.4461 13.5101 58.056 14.4922C57.6658 15.4744 57.5746 16.55 57.7937 17.5839C58.0128 18.6177 58.5324 19.5638 59.2874 20.3033C60.0424 21.0428 60.9991 21.5428 62.0372 21.7404C63.0754 21.9381 64.1489 21.8246 65.1228 21.4142C66.0967 21.0038 66.9276 20.3148 67.5112 19.4337C68.0948 18.5527 68.4052 17.5188 68.4032 16.462C68.3996 15.7507 68.2549 15.0472 67.9777 14.3922C67.7004 13.7372 67.296 13.1436 66.7879 12.6459C66.2797 12.1482 65.6779 11.7562 65.0173 11.4925C64.3567 11.2289 63.6504 11.0989 62.9392 11.11ZM62.9392 19.518C62.5475 19.5144 62.1605 19.4314 61.8018 19.2742C61.443 19.1169 61.1198 18.8886 60.8517 18.603C60.5836 18.3174 60.3761 17.9805 60.2418 17.6125C60.1074 17.2445 60.0491 16.8532 60.0702 16.462C60.0448 16.0747 60.0993 15.6864 60.2302 15.3211C60.3611 14.9557 60.5657 14.6211 60.8312 14.3381C61.0967 14.055 61.4175 13.8295 61.7738 13.6756C62.13 13.5216 62.5141 13.4424 62.9022 13.443C63.295 13.4457 63.6832 13.528 64.0433 13.6848C64.4035 13.8416 64.7282 14.0696 64.9979 14.3553C65.2676 14.6409 65.4766 14.9782 65.6124 15.3468C65.7482 15.7154 65.808 16.1077 65.7882 16.5C65.8126 16.8884 65.7569 17.2777 65.6245 17.6437C65.4922 18.0097 65.2861 18.3446 65.0189 18.6276C64.7518 18.9106 64.4293 19.1356 64.0715 19.2888C63.7138 19.442 63.3283 19.52 62.9392 19.518ZM74.9692 11.318H72.4582V8.751C72.4583 8.72912 72.4541 8.70742 72.4458 8.68717C72.4375 8.66691 72.4253 8.64849 72.4099 8.63297C72.3945 8.61745 72.3761 8.60513 72.3559 8.59673C72.3357 8.58833 72.314 8.584 72.2922 8.584H70.0112C69.9669 8.58426 69.9246 8.60194 69.8934 8.6332C69.8621 8.66446 69.8444 8.70679 69.8442 8.751V11.318H68.7442C68.7223 11.318 68.7006 11.3223 68.6804 11.3307C68.6602 11.3391 68.6419 11.3515 68.6264 11.367C68.611 11.3825 68.5988 11.4009 68.5905 11.4212C68.5822 11.4414 68.578 11.4631 68.5782 11.485V13.446C68.5782 13.4901 68.5956 13.5324 68.6267 13.5637C68.6578 13.595 68.7 13.6127 68.7442 13.613H69.8442V18.687C69.8442 20.736 70.8642 21.776 72.8782 21.776C73.625 21.7939 74.3629 21.6101 75.0142 21.244C75.04 21.2299 75.0616 21.2091 75.0765 21.1837C75.0915 21.1584 75.0993 21.1294 75.0992 21.1V19.231C75.0991 19.2027 75.0918 19.1749 75.078 19.1502C75.0642 19.1256 75.0443 19.1048 75.0202 19.09C74.9962 19.0747 74.9685 19.066 74.9401 19.0648C74.9117 19.0635 74.8834 19.0698 74.8582 19.083C74.4444 19.297 73.985 19.4075 73.5192 19.405C72.7882 19.405 72.4602 19.072 72.4602 18.328V13.614H74.9712C74.993 13.614 75.0147 13.6097 75.0349 13.6013C75.0551 13.5929 75.0735 13.5805 75.0889 13.565C75.1043 13.5495 75.1165 13.5311 75.1248 13.5108C75.1331 13.4906 75.1373 13.4689 75.1372 13.447V11.487C75.1378 11.4651 75.1341 11.4434 75.1261 11.423C75.1182 11.4026 75.1062 11.3841 75.0908 11.3685C75.0755 11.3529 75.0572 11.3405 75.037 11.3322C75.0167 11.3239 74.995 11.3197 74.9732 11.32L74.9692 11.318ZM83.7162 11.328V11.013C83.7162 10.086 84.0722 9.672 84.8682 9.672C85.3072 9.67719 85.7421 9.75734 86.1542 9.909C86.1793 9.91746 86.206 9.91979 86.2322 9.91579C86.2584 9.91179 86.2833 9.90158 86.3047 9.88602C86.3261 9.87046 86.3435 9.84999 86.3555 9.82632C86.3674 9.80266 86.3734 9.77649 86.3732 9.75V7.823C86.3736 7.78713 86.3623 7.7521 86.341 7.72323C86.3197 7.69436 86.2896 7.67322 86.2552 7.663C85.6396 7.47505 84.9987 7.3833 84.3552 7.391C82.2492 7.391 81.1342 8.578 81.1342 10.821V11.304H80.0342C79.99 11.3043 79.9476 11.3219 79.9164 11.3532C79.8851 11.3845 79.8674 11.4268 79.8672 11.471V13.442C79.8674 13.4862 79.8851 13.5285 79.9164 13.5598C79.9476 13.5911 79.99 13.6087 80.0342 13.609H81.1342V21.434C81.1342 21.4783 81.1518 21.5208 81.1831 21.5521C81.2144 21.5834 81.2569 21.601 81.3012 21.601H83.5812C83.6031 21.6011 83.6249 21.5969 83.6452 21.5886C83.6656 21.5802 83.684 21.5679 83.6995 21.5524C83.7151 21.5368 83.7274 21.5184 83.7357 21.4981C83.7441 21.4777 83.7483 21.456 83.7482 21.434V13.614H85.8782L89.1412 21.438C88.7712 22.259 88.4062 22.423 87.9092 22.423C87.4663 22.412 87.0335 22.2888 86.6512 22.065C86.6102 22.0445 86.5631 22.0403 86.5192 22.053C86.4971 22.0602 86.4769 22.0719 86.4596 22.0874C86.4424 22.1029 86.4286 22.1218 86.4192 22.143L85.6452 23.843C85.6273 23.8815 85.6248 23.9254 85.6382 23.9658C85.6516 24.0061 85.6798 24.0398 85.7172 24.06C86.459 24.4806 87.2995 24.696 88.1522 24.684C89.8372 24.684 90.7692 23.898 91.5882 21.784L95.5542 11.556C95.564 11.5309 95.5676 11.5037 95.5647 11.4769C95.5618 11.4501 95.5524 11.4243 95.5374 11.4019C95.5223 11.3795 95.5021 11.3611 95.4784 11.3482C95.4546 11.3353 95.4282 11.3284 95.4012 11.328H93.0252C92.9903 11.3277 92.9562 11.3384 92.9277 11.3585C92.8992 11.3786 92.8777 11.4071 92.8662 11.44L90.4332 18.389L87.7642 11.436C87.7522 11.4046 87.731 11.3775 87.7033 11.3584C87.6756 11.3393 87.6428 11.329 87.6092 11.329H83.7092L83.7162 11.328ZM78.6452 11.318H76.3642C76.32 11.3183 76.2776 11.3359 76.2464 11.3672C76.2151 11.3985 76.1974 11.4408 76.1972 11.485V21.437C76.1972 21.4589 76.2015 21.4806 76.2099 21.5009C76.2183 21.5212 76.2306 21.5396 76.2461 21.5551C76.2616 21.5706 76.28 21.5829 76.3003 21.5913C76.3205 21.5997 76.3422 21.604 76.3642 21.604H78.6462C78.6681 21.604 78.6898 21.5997 78.7101 21.5913C78.7303 21.5829 78.7487 21.5706 78.7643 21.5551C78.7798 21.5396 78.7921 21.5212 78.8005 21.5009C78.8088 21.4806 78.8132 21.4589 78.8132 21.437V11.486C78.8132 11.4417 78.7956 11.3992 78.7643 11.3679C78.7329 11.3366 78.6905 11.319 78.6462 11.319L78.6452 11.318ZM77.5172 6.786C77.1936 6.7858 76.8772 6.88156 76.6081 7.06116C76.3389 7.24076 76.1291 7.49614 76.0051 7.79501C75.8811 8.09387 75.8485 8.4228 75.9114 8.74019C75.9743 9.05758 76.13 9.34918 76.3586 9.57812C76.5873 9.80706 76.8787 9.96305 77.196 10.0264C77.5133 10.0897 77.8423 10.0575 78.1413 9.93385C78.4403 9.81021 78.696 9.60067 78.8759 9.33174C79.0558 9.06281 79.152 8.74657 79.1522 8.423C79.1523 8.20816 79.1101 7.99539 79.028 7.79685C78.9459 7.59831 78.8255 7.41789 78.6737 7.26588C78.5219 7.11387 78.3416 6.99325 78.1432 6.91092C77.9447 6.82858 77.732 6.78613 77.5172 6.786ZM97.5032 14.523C97.1851 14.5222 96.8744 14.4272 96.6103 14.2501C96.3462 14.0729 96.1404 13.8215 96.0191 13.5275C95.8977 13.2335 95.8661 12.9102 95.9282 12.5983C95.9904 12.2864 96.1436 11.9999 96.3684 11.7749C96.5932 11.55 96.8796 11.3966 97.1915 11.3343C97.5033 11.2719 97.8267 11.3033 98.1208 11.4245C98.4148 11.5457 98.6664 11.7513 98.8437 12.0153C99.021 12.2793 99.1162 12.59 99.1172 12.908C99.1192 13.1206 99.0788 13.3314 98.9984 13.5282C98.918 13.7249 98.7992 13.9037 98.649 14.0541C98.4987 14.2044 98.32 14.3233 98.1233 14.4039C97.9265 14.4844 97.7157 14.5249 97.5032 14.523ZM97.5122 11.463C97.2246 11.4602 96.9427 11.543 96.7023 11.7009C96.4619 11.8587 96.2739 12.0845 96.1621 12.3495C96.0504 12.6145 96.0199 12.9067 96.0747 13.189C96.1295 13.4714 96.267 13.731 96.4697 13.935C96.6724 14.139 96.9312 14.2781 97.2132 14.3346C97.4952 14.3912 97.7876 14.3626 98.0533 14.2525C98.3189 14.1424 98.5459 13.9558 98.7052 13.7164C98.8646 13.477 98.9491 13.1956 98.9482 12.908C98.9494 12.7187 98.9131 12.531 98.8415 12.3557C98.7698 12.1804 98.6642 12.0211 98.5308 11.8868C98.3973 11.7525 98.2386 11.6459 98.0638 11.5732C97.889 11.5004 97.7015 11.463 97.5122 11.463ZM97.8682 13.073L98.3232 13.709H97.9392L97.5302 13.126H97.1792V13.709H96.8582V12.023H97.6092C98.0022 12.023 98.2592 12.223 98.2592 12.561C98.2649 12.6785 98.229 12.7942 98.1579 12.8878C98.0867 12.9815 97.9849 13.047 97.8702 13.073H97.8682ZM97.5972 12.313H97.1792V12.846H97.5972C97.8052 12.846 97.9302 12.746 97.9302 12.579C97.9302 12.412 97.8042 12.308 97.5962 12.308L97.5972 12.313Z" fill="#6A7A99"/>
</g>
<defs>
<clipPath id="clip0_4_1566">
<rect width="98.4" height="29.512" fill="white" transform="translate(0.717163)"/>
</clipPath>
</defs>
</svg>
