<svg width="9" height="6" viewBox="0 0 9 6" fill="none" xmlns="http://www.w3.org/2000/svg">
<path d="M4.58745 5.33934L8.37478 1.55194C8.46245 1.46434 8.51074 1.34741 8.51074 1.22272C8.51074 1.09804 8.46245 0.981104 8.37478 0.893506L8.09593 0.61459C7.91423 0.433098 7.61892 0.433098 7.43749 0.61459L4.25712 3.79496L1.07322 0.611061C0.985558 0.523463 0.868691 0.475097 0.744075 0.475097C0.61932 0.475097 0.502454 0.523463 0.414718 0.611061L0.135941 0.889976C0.0482731 0.977643 -2.29153e-05 1.09451 -2.29207e-05 1.2192C-2.29262e-05 1.34388 0.048273 1.46082 0.135941 1.54841L3.92673 5.33934C4.01467 5.42715 4.13209 5.47537 4.25692 5.4751C4.38222 5.47537 4.49957 5.42715 4.58745 5.33934Z" fill="#202124"/>
</svg>
