<svg width="83" height="20" viewBox="0 0 83 20" fill="none" xmlns="http://www.w3.org/2000/svg">
<g clip-path="url(#clip0_4_1540)">
<path d="M19.8311 18.332H15.2641L13.8641 14.963H6.2571L4.9841 18.332H0.493103L7.3541 1.315H12.2701L19.8311 18.332ZM9.8751 5.381L7.3751 11.993H12.6151L9.8751 5.381ZM36.4181 1.315H40.1111V18.332H35.8691V7.7L31.2781 13.039H30.6291L26.0381 7.7V18.332H21.7931V1.315H25.4931L30.9531 7.628L36.4181 1.315ZM50.8601 1.315C57.0731 1.315 60.2661 5.182 60.2661 9.848C60.2661 14.738 57.1721 18.332 50.3861 18.332H43.3491V1.315H50.8601ZM47.5931 15.213H50.3621C54.6291 15.213 55.9011 12.313 55.9011 9.822C55.9011 6.902 54.3291 4.433 50.3121 4.433H47.5931V15.213ZM68.7051 5.35L63.3561 0H82.8291V19.474L77.4801 14.125V5.35H68.7051ZM68.6991 6.422L63.1931 11.929V19.638H70.9011L76.4081 14.131H68.6991V6.422Z" fill="#6A7A99"/>
</g>
<defs>
<clipPath id="clip0_4_1540">
<rect width="82.336" height="19.638" fill="white" transform="translate(0.493103)"/>
</clipPath>
</defs>
</svg>
