<svg width="100" height="98" viewBox="0 0 100 98" fill="none" xmlns="http://www.w3.org/2000/svg">
<path d="M7.39715 66.0668C14.0866 65.9762 28.5874 65.8121 43.982 65.6761C43.7101 70.0748 43.7242 73.7922 43.5757 78.1331C39.9193 80.1676 36.3363 83.2349 33.5658 86.9601C30.1156 91.7135 31.1891 95.1543 33.4611 96.506C36.1784 98.1311 38.9755 96.3778 41.224 94.2746C44.6398 91.0291 46.5306 88.3961 48.7635 84.9913C48.776 84.9882 48.7885 84.9835 48.801 84.9788C49.8729 86.5414 51.8981 90.0384 56.3592 94.2777C58.5922 96.3638 61.3814 98.1373 64.1159 96.5075C65.9567 95.4231 67.8224 92.1182 64.0112 86.9539C61.0611 82.963 57.0437 79.6566 53.3606 77.8081C54.1794 73.8922 54.3544 69.1623 53.5607 65.5965C96.9849 65.2074 95.0567 65.6277 97.149 64.6058C100.913 62.7447 100.952 57.6554 97.2521 55.874C96.5834 55.5475 95.8974 55.3865 95.2052 55.2959C95.2442 53.8958 95.227 53.4958 94.7067 20.5564C94.5348 8.76048 90.5533 4.25711 76.8682 4.39462C72.2679 4.45243 67.6692 4.50868 63.069 4.554C62.7705 1.79135 60.136 0.720974 57.4218 0.274074C54.792 -0.179076 37.3504 -0.149387 35.3378 0.970988C33.8314 1.79603 32.8673 3.37268 32.8142 4.92433C28.1921 4.96965 23.5699 5.0259 18.9462 5.08372C7.65342 5.22435 2.92503 7.92762 3.31568 18.7001C3.63757 28.0662 3.97353 37.6918 4.32511 47.5611C4.39542 49.6831 3.97821 53.327 4.06884 57.0241C0.88273 58.032 -0.403279 60.6384 0.109249 62.6182C0.849915 65.5214 4.40011 66.123 7.39715 66.0668ZM48.6604 62.8182L49.9089 64.0667C49.0698 64.0729 48.2322 64.0792 47.3931 64.087L48.6604 62.8182ZM49.9495 66.0168L50.2183 66.2856L49.5104 66.9934L48.3932 65.8762L48.401 65.8683C48.4635 65.8058 48.4854 65.7215 48.4963 65.6402C48.9573 65.6371 49.4182 65.6324 49.8808 65.6293C49.8386 65.7636 49.8433 65.909 49.9495 66.0168ZM45.9305 67.7872C46.0837 67.9403 46.3306 67.9403 46.4837 67.7872L46.6837 67.5872L47.3416 68.245C47.3228 68.2575 47.2978 68.2528 47.2806 68.27L46.0024 69.5482L45.529 69.0748C45.4883 69.0341 45.4336 69.0326 45.3821 69.0138C45.4133 68.1403 45.4524 67.27 45.4993 66.4043L46.129 67.034L45.929 67.234C45.7774 67.3872 45.7774 67.6341 45.9305 67.7872ZM45.3461 69.9951L45.4508 70.0998L45.3414 70.2092C45.343 70.1373 45.343 70.067 45.3461 69.9951ZM45.8633 65.6605C46.3571 65.6558 46.8587 65.6527 47.3541 65.648C47.3384 65.7074 47.3353 65.7574 47.3494 65.8168L46.6853 66.4809L45.8633 65.6605ZM45.2602 73.4531L45.9258 74.1188L45.2243 74.8204C45.2321 74.4298 45.2461 74.0422 45.2555 73.65C45.2571 73.586 45.2602 73.5188 45.2602 73.4531ZM49.6073 82.8068C48.6276 83.6834 46.8947 84.0428 45.9321 83.1396C44.868 82.1474 45.0649 80.1051 45.1227 78.6519C45.1571 77.8393 45.1867 76.3345 45.2055 75.5251C45.3618 75.6126 45.504 75.647 45.6649 75.4861L48.301 72.85C48.4541 72.6968 48.4541 72.45 48.301 72.2968C48.1479 72.1437 47.901 72.1437 47.7478 72.2968L46.479 73.5656L45.2868 72.3734C45.2961 71.9406 45.3071 71.5077 45.318 71.0733C45.343 71.078 45.3633 71.103 45.3883 71.103C45.4883 71.103 45.5883 71.0655 45.6649 70.9889L46.0024 70.6514L47.0212 71.6702C47.1744 71.8234 47.4212 71.8234 47.5744 71.6702C47.7275 71.5171 47.7275 71.2702 47.5744 71.1171L46.5556 70.0983L47.8338 68.8201C47.851 68.8029 47.8463 68.7779 47.8588 68.7591L48.0025 68.9029C48.1557 69.056 48.4026 69.056 48.5557 68.9029C48.7088 68.7497 48.7088 68.5029 48.5557 68.3497L47.2369 67.0309L47.8431 66.4246L48.976 67.5575C48.8651 67.7106 48.8604 67.9185 48.9979 68.0575C49.1292 68.1888 49.3073 68.2185 49.4979 68.0794L49.7526 68.3341C49.9058 68.4872 50.1527 68.4872 50.3058 68.3341C50.4589 68.181 50.4589 67.9341 50.3058 67.7809L50.0667 67.5419L50.7746 66.834L51.8293 67.8888C51.9621 68.0216 52.1684 68.0575 52.3528 67.9013C52.7559 72.0421 52.2653 80.341 49.6073 82.8068ZM52.2731 67.2356L51.2746 66.2371C51.3168 66.1027 51.3121 65.9574 51.2058 65.8496C51.0996 65.7418 50.9543 65.7386 50.8183 65.7808L50.6605 65.623C51.1027 65.6199 51.5387 65.6152 51.9824 65.6121C52.1059 66.1043 52.1965 66.6543 52.2731 67.2356ZM44.7945 64.1057C44.5602 64.1073 44.3289 64.1104 44.0945 64.112L44.9133 63.2932L45.718 64.0979C45.4102 64.1026 45.1008 64.1026 44.7945 64.1057ZM40.1537 93.1402C38.5395 94.6481 36.3019 96.3888 34.2611 95.1668C32.7548 94.2699 31.9595 91.8354 34.8252 87.8883C37.1644 84.7413 40.1568 82.0192 43.5148 79.9769C43.4976 81.2754 43.6335 82.6615 44.3789 83.7178C44.3945 83.7412 44.4086 83.7646 44.4242 83.7881C45.0039 84.5709 45.9055 85.0647 46.7743 85.1944C44.8992 88.0743 42.6725 90.7447 40.1537 93.1402ZM62.7533 87.8852C65.6113 91.7573 64.8285 94.2777 63.3221 95.1653C63.3206 95.1653 63.3206 95.1668 63.319 95.1668C61.2908 96.3825 59.0438 94.6481 57.4312 93.1449C54.1998 90.0728 52.3981 87.5945 50.2402 84.3053C50.387 84.2006 50.5277 84.0881 50.6621 83.9693C51.8902 82.8302 52.6262 81.0129 53.0403 79.38C56.5327 81.277 60.0891 84.2803 62.7533 87.8852ZM62.3815 63.9604L62.6018 63.7401L62.819 63.9557C62.6705 63.9589 62.5283 63.9589 62.3815 63.9604ZM68.3599 61.8931C68.374 61.9681 68.3896 62.0447 68.4474 62.1041L69.6459 63.3026L69.0396 63.9089C68.5552 63.912 68.063 63.9167 67.5708 63.9198L66.9536 63.3026L68.3599 61.8931ZM71.8148 62.2384L73.4524 63.876C72.5914 63.8823 71.7163 63.8885 70.8225 63.8948C70.9585 63.7417 70.9601 63.5104 70.8132 63.3635L70.7507 63.301L71.8148 62.2384ZM70.2428 63.8995C70.2116 63.8995 70.1819 63.8995 70.1506 63.8995L70.1975 63.8526L70.2428 63.8995ZM66.4739 63.9276C66.4239 63.9276 66.3754 63.9276 66.3254 63.9292L66.4004 63.8542L66.4739 63.9276ZM74.6071 63.8682L75.4431 63.0322L76.2666 63.8557C75.7197 63.8604 75.1697 63.8635 74.6071 63.8682ZM77.8011 63.8464C77.8339 63.8292 77.8729 63.8323 77.9011 63.8057L79.0714 62.6353L80.2668 63.8307C79.4668 63.8354 78.6464 63.8417 77.8011 63.8464ZM82.3669 63.8182L83.8326 62.3525L85.2827 63.8026C84.3577 63.8057 83.3904 63.812 82.3669 63.8182ZM87.4969 63.7901L88.2266 63.0604L88.9486 63.7823C88.4845 63.7854 88.0032 63.787 87.4969 63.7901ZM16.9024 56.3506L26.642 40.2466L27.6483 41.2529L27.0045 41.8967C26.8514 42.0498 26.8514 42.2967 27.0045 42.4498C27.1576 42.603 27.4045 42.603 27.5576 42.4498L28.2014 41.8061L28.8983 42.503C29.0515 42.6561 29.2984 42.6561 29.4515 42.503C29.6046 42.3498 29.6046 42.103 29.4515 41.9498L28.7546 41.2529L30.3969 39.6106L31.1453 40.3591C31.2985 40.5122 31.5454 40.5122 31.6985 40.3591C31.8516 40.206 31.8516 39.9591 31.6985 39.806L30.95 39.0575L31.0282 38.9793C31.1813 38.8262 31.1813 38.5793 31.0282 38.4262C30.875 38.2731 30.6281 38.2731 30.475 38.4262L30.3969 38.5043L29.8875 37.9949L29.9578 37.9246C30.3203 37.5621 29.7718 37.0058 29.4046 37.3714L29.3343 37.4418L28.8312 36.9386C28.789 36.8964 28.7327 36.8949 28.6796 36.8761L29.6562 35.2604L30.3375 35.9417L29.9265 36.3526C29.7734 36.5058 29.7734 36.7527 29.9265 36.9058C30.0797 37.0589 30.3265 37.0589 30.4797 36.9058L30.8906 36.4948L32.0016 37.6058L31.5329 38.0746C31.3797 38.2277 31.3797 38.4746 31.5329 38.6278C31.686 38.7809 31.9329 38.7809 32.086 38.6278L32.5548 38.159L33.3377 38.9418C33.4111 39.0153 33.5064 39.0481 33.6017 39.0512L33.0158 39.6372L32.797 39.4184C32.6439 39.2653 32.397 39.2653 32.2438 39.4184C32.0907 39.5716 32.0907 39.8185 32.2438 39.9716L32.4626 40.1903L32.2782 40.3747C32.1251 40.5279 32.1251 40.7748 32.2782 40.9279C32.4314 41.081 32.6782 41.081 32.8314 40.9279L33.0158 40.7435L34.0908 41.8186L33.2611 42.6483C33.108 42.8014 33.108 43.0483 33.2611 43.2015C33.4142 43.3546 33.6611 43.3546 33.8142 43.2015L35.8331 41.1826C41.6553 50.6722 43.6351 53.9286 44.8445 55.924C41.2443 55.9772 21.076 56.2866 16.9024 56.3506ZM34.6409 41.267L33.5658 40.1919L34.5955 39.1622C34.8721 39.6153 35.1503 40.07 35.4268 40.5232C35.405 40.5372 35.3753 40.5326 35.355 40.5529L34.6409 41.267ZM33.9971 38.6543C33.9939 38.559 33.9611 38.4637 33.8877 38.3903L33.1048 37.6074L33.4392 37.273C33.6845 37.6746 33.9299 38.0746 34.1752 38.4762L33.9971 38.6543ZM32.5517 37.0542L31.4407 35.9432L32.1751 35.2088C32.4564 35.6698 32.7376 36.1261 33.0173 36.587L32.5517 37.0542ZM30.8891 35.3916L30.0718 34.5744C30.6297 33.6525 30.4375 33.9056 31.0219 33.3212C31.2672 33.7259 31.5126 34.1197 31.7579 34.5244L30.8891 35.3916ZM28.2952 37.5121L28.7796 37.9965L28.2764 38.4996C28.1233 38.6528 28.1233 38.8997 28.2764 39.0528C28.4296 39.2059 28.6765 39.2059 28.8296 39.0528L29.3327 38.5496L29.8421 39.059L28.1999 40.7013L27.0576 39.5591L28.2952 37.5121ZM60.8564 27.6084L62.2205 28.9725L60.1891 31.0039L58.8656 29.6804C59.5204 28.9663 60.1845 28.2819 60.8564 27.6084ZM61.408 27.0568C61.6549 26.8162 61.8924 26.5568 62.1408 26.324C62.5002 26.8709 62.8549 27.4287 63.2143 27.9787L62.7721 28.4209L61.408 27.0568ZM58.3437 30.2632L59.6376 31.5571L58.9516 32.243L57.6937 30.9852C57.9078 30.7398 58.1265 30.5039 58.3437 30.2632ZM57.1702 31.5664L58.4312 32.8274C58.3594 32.9728 58.3562 33.1446 58.4781 33.2665C58.6453 33.4337 58.7719 33.3853 58.9172 33.3134L59.3172 33.7134L58.5609 34.4697L56.478 32.3868C56.7108 32.1165 56.9374 31.8368 57.1702 31.5664ZM55.9749 32.99L56.6593 33.6744C56.6264 33.6916 56.5889 33.6884 56.5608 33.715L55.6967 34.5791L55.1217 34.0041C55.4029 33.6634 55.6905 33.3275 55.9749 32.99ZM54.6201 34.6072L55.142 35.1291L54.5341 35.737C54.381 35.8901 54.381 36.137 54.5341 36.2901C54.6873 36.4433 54.9342 36.4433 55.0873 36.2901L55.6951 35.6823L56.3717 36.3589C56.5249 36.512 56.7718 36.512 56.9249 36.3589C57.078 36.2058 57.078 35.9589 56.9249 35.8057L56.2483 35.1291L57.1124 34.265C57.139 34.2385 57.1358 34.1994 57.153 34.1666L58.0093 35.0229L57.3656 35.6667C57.2124 35.8198 57.2124 36.0667 57.3656 36.2198C57.5187 36.373 57.7656 36.373 57.9187 36.2198L58.5625 35.576L58.7516 35.7651C58.9047 35.9182 59.1516 35.9182 59.3047 35.7651C59.4579 35.612 59.4579 35.3651 59.3047 35.2119L59.1157 35.0229L59.8735 34.265C59.9501 34.34 60.0485 34.3791 60.1485 34.3791C60.2485 34.3791 60.3485 34.3416 60.4251 34.265C60.5782 34.1119 60.5782 33.865 60.4251 33.7119L59.5063 32.7931L60.1923 32.1071L61.9783 33.8931C62.1314 34.0463 62.3783 34.0463 62.5315 33.8931C62.6846 33.74 62.6846 33.4931 62.5315 33.34L60.7454 31.5539L62.7768 29.5226L64.0722 30.818C64.4363 31.182 64.9925 30.6336 64.6253 30.2648L63.3299 28.9694L63.655 28.6444C64.3003 29.6366 64.9441 30.6273 65.5879 31.6227L64.0519 33.1587L63.7972 32.904C63.644 32.7509 63.3971 32.7509 63.244 32.904C63.0909 33.0571 63.0909 33.304 63.244 33.4572L63.4987 33.7119L62.394 34.8166C62.2408 34.9697 62.2408 35.2166 62.394 35.3698C62.5471 35.5229 62.794 35.5229 62.9471 35.3698L64.0519 34.265L65.516 35.7292L64.7675 36.4761C64.6144 36.6292 64.6144 36.8761 64.7675 37.0292C64.9207 37.1824 65.1675 37.1824 65.3207 37.0292L66.0692 36.2823L66.2785 36.4917C66.4317 36.6448 66.6786 36.6448 66.8317 36.4917C66.9848 36.3386 66.9848 36.0917 66.8317 35.9386L66.6223 35.7292L67.6036 34.7479C72.4711 42.3436 76.426 48.6236 80.8669 55.3756C74.4352 55.4709 48.6323 55.8615 46.6603 55.8912C46.6275 55.8381 46.5962 55.7865 46.5634 55.7334C46.779 55.7334 46.954 55.5584 46.954 55.3428V54.9209H47.1369C47.3525 54.9209 47.5275 54.7458 47.5275 54.5302C47.5275 54.3146 47.3525 54.1396 47.1369 54.1396H46.954V52.6301C46.954 52.6207 46.9447 52.616 46.9447 52.6067C46.9447 52.5973 46.9556 52.591 46.9556 52.5817C46.9556 52.366 46.7806 52.191 46.5649 52.191H45.4821V50.8831H45.7758C45.9915 50.8831 46.1665 50.7081 46.1665 50.4925C46.1665 50.2769 45.9915 50.1018 45.7758 50.1018H45.4821V49.5424C45.4821 49.3268 45.3071 49.1518 45.0914 49.1518C44.8758 49.1518 44.7008 49.3268 44.7008 49.5424V50.1018H43.9273C43.9351 50.0722 43.9617 50.0518 43.9617 50.0206V48.6502H46.6509C46.8665 48.6502 47.0415 48.4752 47.0415 48.2595C47.0415 48.0439 46.8665 47.8689 46.6509 47.8689H43.9539V47.1298H45.5493V47.197C45.5493 47.4126 45.7243 47.5876 45.9399 47.5876C46.1556 47.5876 46.3306 47.4126 46.3306 47.197V47.1298H48.5197C48.7354 47.1298 48.9104 46.9548 48.9104 46.7392C48.9104 46.5235 48.7354 46.3485 48.5197 46.3485H46.329V44.8547H48.8041C49.0198 44.8547 49.1948 44.6797 49.1948 44.464C49.1948 44.3015 49.0823 44.189 48.9401 44.1296V43.1358C49.0229 43.0639 49.0807 42.9671 49.0807 42.8483C49.0807 42.7296 49.0229 42.6327 48.9401 42.5608V41.5654C48.9401 41.5576 48.9323 41.5545 48.9323 41.5467C51.298 38.7371 52.6169 37.0511 54.6201 34.6072ZM67.1661 34.0775L66.0629 35.1807L64.5988 33.7166L66.0176 32.2993C66.4004 32.8931 66.7848 33.4806 67.1661 34.0775ZM42.2569 48.6549H43.1726V50.0253C43.1726 50.0565 43.1991 50.0768 43.207 50.1065H43.1304C42.8366 49.6253 42.5413 49.1455 42.2475 48.6643C42.2491 48.6611 42.2522 48.658 42.2569 48.6549ZM44.693 50.8878V52.1957H44.5133C44.4789 52.1957 44.457 52.2238 44.4242 52.2332C44.1508 51.7863 43.8773 51.3347 43.6054 50.8878H44.693ZM46.1649 52.977V54.1442H45.6055C45.5993 54.1442 45.5961 54.1505 45.5899 54.1505C45.3524 53.7583 45.1133 53.3692 44.8758 52.977H46.1649ZM46.0634 54.9255H46.1665V55.0943C46.1306 55.0381 46.0977 54.9818 46.0634 54.9255ZM47.5025 43.239H48.1604V44.0734H46.7415C46.9931 43.7921 47.254 43.5249 47.5025 43.239ZM45.5477 46.3532H44.632C44.9414 46.036 45.243 45.7047 45.5477 45.3781V46.3532ZM43.1726 47.8736H43.0632C43.0991 47.8392 43.1366 47.8033 43.1726 47.7673V47.8736ZM83.8295 55.3349C83.4061 55.3412 82.9701 55.3474 82.5451 55.3537C82.5419 54.9834 63.1471 25.0083 62.9424 24.6989C62.6737 24.291 62.1143 24.2363 61.7689 24.5473C54.4357 31.1227 48.6807 40.6248 41.41 47.3017C37.3863 40.7419 34.658 36.3151 31.5938 31.2508C31.311 30.782 30.5391 30.782 30.2578 31.2508L15.0601 56.3803C14.3632 56.3913 13.6772 56.4022 12.9771 56.4131C13.2287 44.7312 13.4319 34.4244 13.8631 13.131C35.7393 11.6513 58.7766 11.6731 84.2374 13.1967C84.1827 27.2865 83.9092 41.3514 83.8295 55.3349ZM36.0909 2.33981C37.0879 1.83197 53.1153 1.11943 57.164 1.81478C58.275 1.99761 59.425 2.25075 60.3017 2.84765C61.8642 3.93678 62.0846 5.81813 60.1298 6.80256L58.7266 5.39936L59.6782 4.44774L60.6314 5.40092C60.7845 5.55405 61.0314 5.55405 61.1845 5.40092C61.3377 5.24779 61.3377 5.0009 61.1845 4.84777L60.2313 3.89459L60.4892 3.63676C60.6423 3.48363 60.6423 3.23674 60.4892 3.08361C60.336 2.93047 60.0891 2.93047 59.936 3.08361L59.6782 3.34143L59.5782 3.24143C59.425 3.08829 59.1782 3.08829 59.025 3.24143C58.8719 3.39456 58.8719 3.64145 59.025 3.79458L59.125 3.89459L58.1734 4.8462L57.1952 3.86802C57.0421 3.71489 56.7952 3.71489 56.6421 3.86802C56.4889 4.02116 56.4889 4.26805 56.6421 4.42118L57.6203 5.39936L56.3858 6.6338L55.1201 5.36811L56.7249 3.76333C56.878 3.6102 56.878 3.36331 56.7249 3.21017C56.5718 3.05704 56.3249 3.05704 56.1717 3.21017L54.5435 4.83839C54.3935 4.7462 54.2013 4.74151 54.0716 4.8712C53.9419 5.0009 53.9466 5.1931 54.0388 5.34311L52.9372 6.44473L51.6715 5.17903L52.3121 4.53837C52.4653 4.38524 52.4653 4.13835 52.3121 3.98522C52.159 3.83208 51.9121 3.83208 51.759 3.98522L49.0526 6.6963L47.6306 5.27435L47.7619 5.14309C47.915 4.98996 47.915 4.74307 47.7619 4.58994C47.6088 4.43681 47.3619 4.43681 47.2087 4.58994L45.7618 6.03846L45.0352 5.31185C44.882 5.15872 44.6352 5.15872 44.482 5.31185C44.3289 5.46499 44.3289 5.71188 44.482 5.86501L45.2086 6.59161L44.6695 7.1307C44.5867 7.21352 44.557 7.32134 44.5648 7.42916L43.2788 7.43853C43.6023 7.30884 43.5898 7.00101 43.4179 6.82912L42.8663 6.27753L43.7585 5.3853C43.9117 5.23216 43.9117 4.98527 43.7585 4.83214C43.6054 4.67901 43.3585 4.67901 43.2054 4.83214L42.3132 5.72438L42.0256 5.43686C41.8725 5.28373 41.6256 5.28373 41.4725 5.43686C41.3193 5.58999 41.3193 5.83688 41.4725 5.99002L41.76 6.27753L40.7349 7.30259C40.7287 7.21196 40.7006 7.11977 40.6302 7.04945L39.1677 5.58687L39.6177 5.13684C39.7708 4.98371 39.7708 4.73682 39.6177 4.58369C39.4646 4.43055 39.2177 4.43055 39.0645 4.58369L37.141 6.50723L36.3206 5.68687C36.1675 5.53374 35.9206 5.53374 35.7675 5.68687C35.6143 5.84001 35.6143 6.0869 35.7675 6.24003L36.5878 7.06039L36.4019 7.24634C33.3908 6.46035 34.0939 3.43519 36.0909 2.33981ZM46.665 6.94163L46.3134 6.59161L47.0775 5.82751L48.4994 7.24946L48.4307 7.31821C48.4088 7.34009 48.4135 7.37291 48.3979 7.39947L46.6978 7.41353C46.79 7.2604 46.7947 7.07133 46.665 6.94163ZM46.0352 7.41666L45.4836 7.42135L45.7618 7.14321L46.0352 7.41666ZM51.1215 5.73219L52.7528 7.36353L49.4651 7.39009L51.1215 5.73219ZM53.7216 7.35572C53.7091 7.27759 53.6919 7.1979 53.631 7.13695L53.4903 6.99632L54.567 5.9197L55.9842 7.33697L53.7216 7.35572ZM57.078 7.32447L56.939 7.18539L58.1734 5.95095L59.3172 7.09476C58.6125 7.26821 57.8453 7.31196 57.078 7.32447ZM37.6457 7.10883L38.6161 6.13846L39.9411 7.46354L39.1458 7.46979C38.602 7.47916 38.0926 7.47135 37.602 7.43385C37.6707 7.33384 37.6801 7.2229 37.6457 7.10883ZM42.8663 7.38072C42.9054 7.41978 42.9616 7.42135 43.0101 7.4401L41.6944 7.45104L42.3163 6.82912L42.8663 7.38072ZM5.61737 56.6553C5.57674 54.0833 5.93145 48.8158 5.88769 47.5064C5.53611 37.6371 5.19859 28.01 4.87826 18.6454C4.597 10.8465 6.03458 6.80725 18.9681 6.6463C23.6793 6.58692 28.3889 6.52911 33.1001 6.48379C34.0518 8.73548 36.7253 9.073 39.1645 9.03394C58.6391 8.87924 58.6984 9.02456 60.336 8.43078C61.5314 7.98075 62.494 7.0307 62.8627 6.11971C67.538 6.0744 72.2132 6.01658 76.8869 5.9572C89.7392 5.81501 92.9878 9.72772 93.1457 20.583C93.1613 21.5424 93.6801 54.2364 93.6566 55.1959C92.6659 55.1959 92.3847 55.2052 85.3968 55.3099C85.4843 40.2685 85.7578 26.6568 85.8015 12.4607C85.8031 12.0466 85.4812 11.7044 85.0671 11.6794C58.9688 10.0918 35.4112 10.0715 13.0412 11.6185C12.6381 11.6466 12.3224 11.9778 12.3146 12.3826C11.8646 34.5666 11.6693 44.464 11.4114 56.4381C9.30195 56.4819 6.92994 56.4616 5.61737 56.6553ZM5.85801 58.2054C5.90176 58.1992 5.94707 58.1882 5.99083 58.182C7.56591 57.982 94.6926 56.3678 96.5709 57.2819C99.0882 58.4961 99.0397 61.9306 96.4599 63.2073C94.9395 63.9479 92.9253 63.7682 90.0486 63.7792L88.7782 62.5088L91.7815 59.5055C91.9347 59.3524 91.9347 59.1055 91.7815 58.9523C91.6284 58.7992 91.3815 58.7992 91.2284 58.9523L88.2251 61.9556L87.311 61.0415C87.1578 60.8884 86.9109 60.8884 86.7578 61.0415C86.6047 61.1946 86.6047 61.4415 86.7578 61.5947L87.6719 62.5088L86.7016 63.4791C86.614 63.5667 86.5906 63.6807 86.6031 63.7948C86.5265 63.7948 86.4578 63.7948 86.3797 63.7964L84.3842 61.8009L86.3343 59.8508C86.4875 59.6977 86.4875 59.4508 86.3343 59.2977C86.1812 59.1445 85.9343 59.1445 85.7812 59.2977L83.8311 61.2478L83.1154 60.5321C82.9623 60.379 82.7154 60.379 82.5623 60.5321C82.4091 60.6852 82.4091 60.9321 82.5623 61.0853L83.2779 61.8009L81.5981 63.4807C81.5028 63.576 81.4888 63.701 81.5122 63.8245C81.3888 63.8245 81.2575 63.826 81.1325 63.8276C81.1481 63.7104 81.1278 63.5932 81.0387 63.5026L79.6215 62.0853L80.6028 61.104C80.7559 60.9509 80.7559 60.704 80.6028 60.5509C80.4496 60.3977 80.2028 60.3977 80.0496 60.5509L79.0683 61.5322L78.2948 60.7587C78.1417 60.6055 77.8948 60.6055 77.7417 60.7587C77.5885 60.9118 77.5885 61.1587 77.7417 61.3118L78.5152 62.0853L77.3448 63.2557C77.1917 63.4088 77.1917 63.6557 77.3448 63.8088C77.3745 63.8385 77.4151 63.8339 77.4495 63.8526C77.2776 63.8542 77.1135 63.8542 76.9401 63.8557C77.0245 63.7073 77.0291 63.5229 76.9026 63.3948L75.9947 62.4807L77.7448 60.7306C77.8979 60.5774 77.8979 60.3305 77.7448 60.1774C77.5917 60.0243 77.3448 60.0243 77.1917 60.1774L75.4416 61.9275L74.7259 61.2118C74.5728 61.0587 74.3259 61.0587 74.1727 61.2118C74.0196 61.365 74.0196 61.6119 74.1727 61.765L74.8884 62.4807L74.0243 63.3448L72.3664 61.6853L73.1211 60.9306C73.2742 60.7774 73.2742 60.5305 73.1211 60.3774C72.968 60.2243 72.7211 60.2243 72.568 60.3774L71.607 61.3384C71.5757 61.3556 71.5367 61.3525 71.5101 61.379C71.4835 61.4056 71.4866 61.4447 71.4695 61.4759L70.1991 62.7463L69.0006 61.5478C68.9428 61.49 68.8646 61.4743 68.7896 61.4603C68.9412 61.3072 68.9412 61.0618 68.7896 60.9087C68.6365 60.7556 68.3896 60.7556 68.2365 60.9087L66.3989 62.7463L65.6551 62.0025C65.5019 61.8494 65.2551 61.8494 65.1019 62.0025C64.9488 62.1556 64.9488 62.4025 65.1019 62.5557L65.8457 63.2994L65.2722 63.8729C65.2551 63.8901 65.2597 63.9151 65.2472 63.9339C64.8082 63.937 64.3581 63.9417 63.9144 63.9448L63.1534 63.1854L64.5847 61.7541C64.7378 61.6009 64.7378 61.354 64.5847 61.2009C64.4316 61.0478 64.1847 61.0478 64.0315 61.2009L62.6002 62.6369L62.1955 62.2322C62.0424 62.0791 61.7955 62.0791 61.6424 62.2322C61.4892 62.3853 61.4892 62.6322 61.6424 62.7854L62.0471 63.1901L61.2658 63.9714C60.3813 63.9792 59.4907 63.9854 58.5875 63.9932L59.5454 63.0354C59.6985 62.8822 59.6985 62.6353 59.5454 62.4822C59.3922 62.3291 59.1453 62.3291 58.9922 62.4822L57.9218 63.5526L56.8358 62.4666C56.6827 62.3135 56.4358 62.3135 56.2827 62.4666C56.1295 62.6197 56.1295 62.8666 56.2827 63.0197L57.2671 64.0042C56.2499 64.0135 55.2232 64.0214 54.1873 64.0307L55.3576 62.8604H55.3623C55.578 62.8604 55.753 62.6854 55.753 62.4697C55.753 62.2541 55.578 62.0791 55.3623 62.0791H53.4231C53.2075 62.0791 53.0325 62.2541 53.0325 62.4697C53.0325 62.6854 53.2075 62.8604 53.4231 62.8604H54.2513L53.0794 64.0323C53.0778 64.0339 53.0778 64.037 53.0762 64.0401C52.8903 64.0417 52.709 64.0432 52.5231 64.0448C52.0934 64.0479 51.6621 64.0526 51.2308 64.0557L52.27 63.0166C52.4231 62.8635 52.4231 62.6166 52.27 62.4635C52.1168 62.3103 51.8699 62.3103 51.7168 62.4635L50.5605 63.6198L49.1823 62.2416C49.2729 62.0916 49.2776 61.9009 49.1479 61.7712C48.9948 61.6181 48.7479 61.6181 48.5947 61.7712L46.5478 63.8245L45.4649 62.7416L45.6461 62.5603C45.7993 62.4072 45.7993 62.1603 45.6461 62.0072C45.493 61.8541 45.2461 61.8541 45.093 62.0072L44.9117 62.1884L44.7117 61.9884C44.5586 61.8353 44.3117 61.8353 44.1586 61.9884C44.0054 62.1416 44.0054 62.3885 44.1586 62.5416L44.3586 62.7416L42.9788 64.1214C27.953 64.2558 13.9225 64.4151 7.37215 64.5042C5.4658 64.5589 2.14842 64.2886 1.6234 62.2275C1.24994 60.7837 2.53595 58.6711 5.85801 58.2054Z" fill="#1A064F"/>
<path d="M47.2822 24.4458C47.5276 23.027 47.0822 21.5612 46.1181 20.6206C45.0368 19.5643 43.3789 19.2705 42.0882 19.9049C40.7272 20.5721 39.4459 23.2738 39.2365 24.7505C39.0208 26.2787 39.6006 27.7194 40.7131 28.4241C42.1304 29.3179 43.9883 28.8304 45.2774 27.7616C46.3556 26.8678 47.0682 25.6912 47.2822 24.4458ZM45.7431 24.1801C45.5915 25.0583 45.0727 25.9037 44.2821 26.5568C43.532 27.1772 42.3538 27.61 41.5491 27.1022C40.8772 26.6772 40.6819 25.6974 40.785 24.9677C40.8209 24.7083 40.8866 24.452 40.9741 24.1989C41.6038 24.4364 42.2257 23.8129 41.9773 23.1816C41.3663 21.6331 43.5602 20.3065 45.029 21.7394C45.6181 22.316 45.8993 23.2738 45.7431 24.1801Z" fill="#1A064F"/>
<path d="M47.376 18.7691C47.6198 19.1284 48.1073 19.2175 48.4604 18.9769L50.3137 17.719C50.6715 17.4768 50.7637 16.9908 50.5215 16.6346C50.2793 16.2767 49.7933 16.183 49.4371 16.4267L47.5838 17.6846C47.226 17.9268 47.1338 18.4112 47.376 18.7691Z" fill="#1A064F"/>
<path d="M48.5886 22.5405C48.2917 22.8546 48.3042 23.3484 48.6183 23.6453L49.9558 24.9125C50.2699 25.2094 50.7637 25.1954 51.0606 24.8813C51.3559 24.5672 51.3434 24.0734 51.0293 23.7765L49.6933 22.5109C49.3808 22.214 48.8855 22.228 48.5886 22.5405Z" fill="#1A064F"/>
<path d="M47.3118 29.3133C47.218 28.8914 46.8055 28.6288 46.3789 28.7226C45.957 28.8163 45.6929 29.2351 45.7883 29.6555L46.1961 31.4743C46.2914 31.8978 46.7117 32.1603 47.129 32.065C47.5509 31.9696 47.8149 31.5524 47.7196 31.1321L47.3118 29.3133Z" fill="#1A064F"/>
<path d="M40.7381 30.424L38.2505 31.1569C37.8364 31.2787 37.5989 31.7131 37.7223 32.1272C37.8474 32.5523 38.2927 32.7773 38.6927 32.6554L41.1804 31.9225C41.5944 31.8006 41.832 31.3662 41.7085 30.9522C41.5882 30.5412 41.1538 30.3006 40.7381 30.424Z" fill="#1A064F"/>
<path d="M36.9254 25.6735L36.0175 25.2798C35.6237 25.1079 35.1628 25.2891 34.9893 25.6845C34.8174 26.0798 34.9971 26.5408 35.394 26.7126L36.305 27.108C36.6988 27.2783 37.1598 27.0986 37.3317 26.7001C37.5035 26.3048 37.3207 25.8454 36.9254 25.6735Z" fill="#1A064F"/>
<path d="M38.105 20.7905C38.3957 21.1108 38.8879 21.1358 39.2098 20.8483C39.5301 20.5592 39.5551 20.0654 39.2676 19.7435L37.9722 18.3059C37.68 17.9841 37.1878 17.9591 36.8675 18.2481C36.5471 18.5372 36.5221 19.031 36.8097 19.3529L38.105 20.7905Z" fill="#1A064F"/>
<path d="M41.6569 18.9239C42.085 19.0114 42.4929 18.7332 42.5788 18.3145L42.8444 17.0113C42.9304 16.5878 42.6554 16.1753 42.2335 16.0909C41.8053 16.0018 41.3975 16.2784 41.3131 16.7019L41.049 18.002C40.9615 18.4254 41.235 18.8379 41.6569 18.9239Z" fill="#1A064F"/>
<path d="M60.8908 36.4337L62.0627 35.2618C62.2159 35.1086 62.2159 34.8617 62.0627 34.7086C61.9096 34.5555 61.6627 34.5555 61.5096 34.7086L60.3376 35.8805C60.1845 36.0337 60.1845 36.2806 60.3376 36.4337C60.4908 36.5853 60.7377 36.5853 60.8908 36.4337Z" fill="#1A064F"/>
<path d="M31.111 41.5406L30.1891 42.4626C30.0359 42.6157 30.0359 42.8626 30.1891 43.0157C30.3422 43.1688 30.5891 43.1688 30.7422 43.0157L31.6642 42.0938C31.8173 41.9407 31.8173 41.6938 31.6642 41.5406C31.511 41.3875 31.2641 41.3875 31.111 41.5406Z" fill="#1A064F"/>
<path d="M91.7924 60.3618C91.6393 60.2087 91.3924 60.2087 91.2392 60.3618C91.0861 60.515 91.0861 60.7619 91.2392 60.915L92.2393 61.9151L91.2392 62.9151C91.0861 63.0683 91.0861 63.3151 91.2392 63.4683C91.3924 63.6214 91.6393 63.6214 91.7924 63.4683L92.7909 62.4682L93.9316 63.6089C94.0847 63.762 94.3316 63.762 94.4847 63.6089C94.6379 63.4558 94.6379 63.2089 94.4847 63.0558L93.344 61.9151L94.9738 60.2837L95.8957 61.2056L94.8113 62.2901C94.6582 62.4432 94.6582 62.6901 94.8113 62.8432C94.9644 62.9964 95.2113 62.9964 95.3645 62.8432L96.4489 61.7588L96.6599 61.9698C96.813 62.1229 97.0599 62.1229 97.213 61.9698C97.3661 61.8166 97.3661 61.5697 97.213 61.4166L97.0021 61.2056L97.5255 60.6822C97.6787 60.529 97.6787 60.2822 97.5255 60.129C97.3724 59.9759 97.1255 59.9759 96.9724 60.129L96.4489 60.6525L95.527 59.7306L96.652 58.6055C96.8052 58.4524 96.8052 58.2055 96.652 58.0524C96.4989 57.8992 96.252 57.8992 96.0989 58.0524L94.9738 59.1774L94.8535 59.0571C94.7004 58.904 94.4535 58.904 94.3003 59.0571C94.1472 59.2102 94.1472 59.4571 94.3003 59.6102L94.4207 59.7306L92.7909 61.3603L91.7924 60.3618Z" fill="#1A064F"/>
<path d="M15.4805 60.1114H15.4883L18.9525 60.0379C19.0557 60.4098 19.215 60.7661 19.4541 61.0739C19.5307 61.1724 19.6479 61.2255 19.7635 61.2255C19.8479 61.2255 19.9307 61.1989 20.0026 61.1442C20.1729 61.0114 20.2042 60.7661 20.0713 60.5958C19.9385 60.4239 19.8432 60.227 19.7666 60.0207L22.6137 59.9614L22.7059 60.6973C22.7309 60.8942 22.8996 61.0395 23.0934 61.0395C23.109 61.0395 23.1262 61.0396 23.1418 61.0364C23.3559 61.0099 23.5075 60.8145 23.4809 60.6005L23.3997 59.9442L27.1139 59.866C27.2936 60.3598 27.6093 60.8052 28.0577 61.0802C28.1218 61.1192 28.1921 61.138 28.2624 61.138C28.3937 61.138 28.5218 61.0724 28.5953 60.952C28.7078 60.7677 28.6515 60.527 28.4671 60.4145C28.2452 60.2786 28.0827 60.0739 27.9562 59.8473L31.5017 59.7723L31.6376 60.4614C31.6735 60.6473 31.8376 60.7755 32.0204 60.7755C32.0454 60.7755 32.072 60.7739 32.097 60.7677C32.308 60.7255 32.4455 60.5208 32.4033 60.3083L32.2939 59.7551L33.5143 59.7301L33.5205 59.8082C33.5361 60.0145 33.708 60.1708 33.9096 60.1708H33.9393C34.1549 60.1551 34.3159 59.9676 34.3003 59.752L34.2971 59.7145L36.2722 59.6723C36.4879 59.6676 36.6598 59.4895 36.6551 59.2738C36.6504 59.0582 36.4941 58.8566 36.2566 58.891L34.2409 58.9332L34.2253 58.716C34.2096 58.5003 33.9987 58.3347 33.8065 58.355C33.5908 58.3706 33.4299 58.5582 33.4455 58.7738L33.458 58.9504L32.1408 58.9785L32.0954 58.7504C32.0548 58.5394 31.8486 58.3988 31.636 58.4441C31.4251 58.4863 31.2876 58.691 31.3298 58.9035L31.3485 58.9957L27.7421 59.0723C27.7405 58.9332 27.7468 58.7941 27.7843 58.6613C27.8218 58.5253 27.7843 58.3785 27.6843 58.2785C27.5858 58.18 27.4389 58.1378 27.3014 58.1785L27.0905 58.2378C26.8827 58.2956 26.7623 58.5113 26.8202 58.7191C26.8436 58.8019 26.8905 58.8707 26.953 58.9191C26.9498 58.9754 26.9655 59.0316 26.967 59.0879L23.3059 59.1644L23.2371 58.616C23.2106 58.4019 23.0121 58.2472 22.8012 58.2769C22.5871 58.3035 22.4355 58.4988 22.4621 58.7129L22.5199 59.1816L19.6166 59.2426C19.6151 59.0769 19.6323 58.9113 19.6698 58.7504C19.7182 58.541 19.5885 58.33 19.3776 58.2816C19.165 58.2331 18.9572 58.3644 18.9088 58.5738C18.8556 58.7988 18.8338 59.0301 18.8353 59.2598L15.4726 59.3301C15.257 59.3348 15.0851 59.5129 15.0898 59.7285C15.0945 59.941 15.268 60.1114 15.4805 60.1114Z" fill="#1A064F"/>
<path d="M25.2981 21.3223H19.3212C19.1056 21.3223 18.9306 21.4973 18.9306 21.7129C18.9306 21.9285 19.1056 22.1036 19.3212 22.1036H25.2981C25.5138 22.1036 25.6888 21.9285 25.6888 21.7129C25.6888 21.4973 25.5153 21.3223 25.2981 21.3223Z" fill="#1A064F"/>
<path d="M29.6672 18.7373H23.9934C23.7778 18.7373 23.6028 18.9123 23.6028 19.128C23.6028 19.3436 23.7778 19.5186 23.9934 19.5186H29.6672C29.8828 19.5186 30.0578 19.3436 30.0578 19.128C30.0578 18.9123 29.8828 18.7373 29.6672 18.7373Z" fill="#1A064F"/>
<path d="M69.1194 19.1202H74.915C75.1307 19.1202 75.3057 18.9452 75.3057 18.7295C75.3057 18.5139 75.1307 18.3389 74.915 18.3389H69.1194C68.9038 18.3389 68.7288 18.5139 68.7288 18.7295C68.7288 18.9452 68.9038 19.1202 69.1194 19.1202Z" fill="#1A064F"/>
<path d="M72.1086 23.2031C72.1086 23.4188 72.2836 23.5938 72.4992 23.5938H77.2807C77.4964 23.5938 77.6714 23.4188 77.6714 23.2031C77.6714 22.9875 77.4964 22.8125 77.2807 22.8125H72.4992C72.2836 22.8125 72.1086 22.9875 72.1086 23.2031Z" fill="#1A064F"/>
</svg>
