<svg width="16" height="16" viewBox="0 0 16 16" fill="none" xmlns="http://www.w3.org/2000/svg">
<g clip-path="url(#clip0_1520_349)">
<path d="M2.15506 9.18066C0.966781 9.18066 0 10.1474 0 11.3357V13.8451C0 15.0334 0.966781 16.0002 2.15509 16.0002C3.34341 16.0002 4.31016 15.0334 4.31016 13.8451V11.3357C4.31016 10.1474 3.34337 9.18066 2.15506 9.18066ZM3.06013 13.8451C3.06013 14.3441 2.65412 14.7502 2.15506 14.7502C1.65603 14.7502 1.25 14.3441 1.25 13.8451V11.3357C1.25 10.8367 1.65603 10.4307 2.15509 10.4307C2.65416 10.4307 3.06016 10.8367 3.06013 11.3357V13.8451Z" fill="#6A7A99"/>
<path d="M7.99987 0C6.81157 0 5.84479 0.966781 5.84479 2.15509V13.8449C5.84479 15.0332 6.81157 16 7.99987 16C9.18818 16 10.155 15.0332 10.155 13.8449V2.15509C10.155 0.966781 9.18818 0 7.99987 0ZM8.90496 13.8449C8.90496 14.344 8.49893 14.75 7.99987 14.75C7.50081 14.75 7.09478 14.344 7.09478 13.8449V2.15509C7.09478 1.656 7.50081 1.25 7.99987 1.25C8.49893 1.25 8.90496 1.656 8.90496 2.15509V13.8449Z" fill="#6A7A99"/>
<path d="M13.8447 4.59033C12.6564 4.59033 11.6897 5.55711 11.6897 6.74543V13.845C11.6897 15.0333 12.6564 16.0001 13.8448 16.0001C15.033 16.0001 15.9998 15.0333 15.9998 13.845V6.74543C15.9998 5.55711 15.033 4.59033 13.8447 4.59033ZM14.7498 13.845C14.7498 14.3441 14.3438 14.7501 13.8447 14.7501C13.3457 14.7501 12.9397 14.3441 12.9397 13.845V6.74543C12.9397 6.24633 13.3457 5.84033 13.8448 5.84033C14.3438 5.84033 14.7498 6.24633 14.7498 6.74543V13.845Z" fill="#6A7A99"/>
</g>
<defs>
<clipPath id="clip0_1520_349">
<rect width="16" height="16" fill="white"/>
</clipPath>
</defs>
</svg>
