<svg width="65" height="65" viewBox="0 0 65 65" fill="none" xmlns="http://www.w3.org/2000/svg">
<path d="M55.3516 12.543V43.0625C55.3516 44.6875 54.0313 45.957 52.457 45.957H49.3594L51.0859 45.1953L50.832 43.0117L52.1523 41.2344L50.832 39.457L51.0859 37.2734L49.0547 36.4102L48.1914 34.3789L46.0078 34.6328L44.2305 33.3125L42.4531 34.6328L40.2695 34.3789L39.4062 36.4102L37.375 37.2734L37.6289 39.457L36.3086 41.2344L37.6289 43.0117L37.375 45.1953L39.1016 45.957H12.543C10.918 45.957 9.64844 44.6367 9.64844 43.0625V12.543C9.64844 10.918 10.9688 9.64844 12.543 9.64844H52.457C54.0313 9.64844 55.3516 10.9688 55.3516 12.543V12.543Z" fill="#FECD1A"/>
<path d="M47.5313 48.0389V55.3514L44.2305 53.6757L40.8789 55.3514V48.0389L42.4531 47.8866L44.2305 49.1561L46.0078 47.8866L47.5313 48.0389Z" fill="#9D0191"/>
<path d="M50.832 43.0118L51.0859 45.1954L49.3594 45.9572L49.0547 46.1095L48.1914 48.1408L47.5313 48.0392L46.0078 47.8868L44.2305 49.1564L42.4531 47.8868L40.2695 48.1408L39.3555 46.1095L39.1016 45.9572L37.375 45.1954L37.5781 43.0118L36.3086 41.2345L37.5781 39.4572L37.375 37.2736L39.3555 36.4103L40.2695 34.379L42.4531 34.6329L44.2305 33.3126L46.0078 34.6329L48.1914 34.379L49.0547 36.4103L51.0859 37.2736L50.832 39.4572L52.1523 41.2345L50.832 43.0118Z" fill="#FD3A69"/>
<path d="M44.2308 44.1289C45.8294 44.1289 47.1254 42.833 47.1254 41.2344C47.1254 39.6358 45.8294 38.3398 44.2308 38.3398C42.6322 38.3398 41.3363 39.6358 41.3363 41.2344C41.3363 42.833 42.6322 44.1289 44.2308 44.1289Z" fill="#FFF8CD"/>
<path d="M52.4572 8.7345H12.5431C10.4611 8.7345 8.73455 10.4103 8.73455 12.5431V21.6837C8.73455 22.1915 9.1408 22.5978 9.64861 22.5978C10.1564 22.5978 10.5627 22.1915 10.5627 21.6837V12.5431C10.5627 11.4259 11.4767 10.5118 12.5939 10.5118H52.508C53.6252 10.5118 54.5392 11.4259 54.5392 12.5431V43.0626C54.5392 44.1798 53.6252 45.0939 52.508 45.0939H52.0002L51.7971 43.2657L52.9142 41.7931C53.1681 41.4884 53.1681 41.0314 52.9142 40.7267L51.7971 39.254L52.0002 37.4259C52.051 37.0197 51.8478 36.6642 51.4924 36.5118L49.8166 35.7501L49.0041 34.0236C48.8517 33.6681 48.4963 33.465 48.09 33.5157L46.2111 33.7189L44.7385 32.6017C44.4338 32.3478 43.9767 32.3478 43.6721 32.6017L42.1994 33.7189L40.3713 33.5157C39.965 33.465 39.6095 33.6681 39.4572 34.0236L38.6955 35.6993L37.0197 36.4611C36.6642 36.6134 36.4611 36.9689 36.5119 37.3751L36.715 39.2032L35.5978 40.6759C35.3439 40.9806 35.3439 41.4376 35.5978 41.7423L36.715 43.215L36.5119 45.0431H12.5431C11.426 45.0431 10.5119 44.129 10.5119 43.0118V37.5782C10.5119 37.0704 10.1056 36.6642 9.59783 36.6642C9.09002 36.6642 8.78533 37.0704 8.78533 37.5782V43.0626C8.78533 45.1447 10.4611 46.8712 12.5939 46.8712H38.7971L39.508 48.4962C39.6096 48.7501 39.8127 48.9025 40.0666 49.004V55.3517C40.0666 56.0118 40.7775 56.4181 41.3361 56.1642L44.2814 54.6915L47.2267 56.1642C47.8361 56.4689 48.4963 56.0118 48.4963 55.3517V48.9532C48.7502 48.9025 48.9533 48.6993 49.0549 48.4454L49.7658 46.8204H52.508C54.59 46.8204 56.3166 45.1447 56.3166 43.0118V12.5431C56.215 10.4611 54.5392 8.78528 52.4572 8.7345ZM38.2892 37.8322L39.7111 37.2228C39.9142 37.1212 40.0666 36.9689 40.1681 36.7657L40.7775 35.3439L42.301 35.4962C42.5041 35.4962 42.758 35.4454 42.9103 35.3439L44.1799 34.4298L45.3986 35.3439C45.6017 35.4962 45.8049 35.547 46.008 35.4962L47.5314 35.3439L48.1408 36.7657C48.2424 36.9689 48.3947 37.1212 48.5978 37.2228L50.0197 37.8322L49.8674 39.3556C49.8674 39.5587 49.9181 39.8126 50.0197 39.965L50.9338 41.1837L50.0197 42.4532C49.8674 42.6564 49.8166 42.8595 49.8674 43.0626L50.0197 44.5861L48.5978 45.1954C48.3947 45.297 48.2424 45.4493 48.1408 45.6525L47.5314 47.0743L46.008 46.922C45.8049 46.8712 45.551 46.9728 45.3986 47.0743L44.1799 47.9884L42.9103 47.0743C42.758 46.9728 42.5041 46.8712 42.301 46.922L40.7775 47.0743L40.1681 45.6525C40.0666 45.4493 39.9142 45.297 39.7111 45.1954L38.34 44.6876L38.4924 43.1642C38.4924 42.9611 38.4416 42.7072 38.34 42.5548L37.426 41.2853L38.34 40.0665C38.4924 39.8634 38.5431 39.6603 38.4924 39.4572C38.4416 39.0001 38.2892 37.8322 38.2892 37.8322ZM46.6681 53.9298L44.6369 52.9142C44.383 52.8126 44.0783 52.8126 43.8244 52.9142L41.7931 53.9298V48.8517L42.1994 48.8009L43.6721 49.9181C43.9767 50.172 44.4338 50.172 44.7385 49.9181L46.2111 48.8009L46.6174 48.8517L46.6681 53.9298ZM8.78533 30.3165V29.6564C8.78533 29.1486 9.19158 28.7423 9.69939 28.7423C10.2072 28.7423 10.6135 29.1486 10.6135 29.6564V30.3165C10.6135 30.8243 10.2072 31.2306 9.69939 31.2306C9.19158 31.2306 8.78533 30.7736 8.78533 30.3165ZM17.4181 37.5782C17.4181 37.0704 17.8244 36.6642 18.3322 36.6642H27.6252C28.133 36.6642 28.5392 37.0704 28.5392 37.5782C28.5392 38.0861 28.133 38.4923 27.6252 38.4923H18.2814C17.8244 38.4923 17.4181 38.0861 17.4181 37.5782ZM17.4181 29.0978C17.4181 28.59 17.8244 28.1837 18.3322 28.1837H46.5666C47.0744 28.1837 47.4806 28.59 47.4806 29.0978C47.4806 29.6056 47.0744 30.0118 46.5666 30.0118H18.2814C17.8244 30.0118 17.4181 29.6056 17.4181 29.0978ZM18.2814 21.7853H46.5158C47.0236 21.7853 47.4299 22.1915 47.4299 22.6993C47.4299 23.2072 47.0236 23.6134 46.5158 23.6134H18.2814C17.7736 23.6134 17.3674 23.2072 17.3674 22.6993C17.3674 22.1915 17.8244 21.7853 18.2814 21.7853ZM44.2306 45.0431C46.3127 45.0431 48.0392 43.3673 48.0392 41.2345C48.0392 39.1017 46.3635 37.4259 44.2306 37.4259C42.0978 37.4259 40.422 39.1017 40.422 41.2345C40.422 43.3165 42.1486 45.0431 44.2306 45.0431ZM44.2306 39.254C45.3478 39.254 46.2619 40.1681 46.2619 41.2853C46.2619 42.4025 45.3478 43.3165 44.2306 43.3165C43.1135 43.3165 42.1994 42.4025 42.1994 41.2853C42.1994 40.1681 43.1135 39.254 44.2306 39.254ZM37.426 16.8595C36.9181 16.8595 36.5119 16.4532 36.5119 15.9454C36.5119 15.4376 36.9181 15.0314 37.426 15.0314H46.7189C47.2267 15.0314 47.633 15.4376 47.633 15.9454C47.633 16.4532 47.2267 16.8595 46.7189 16.8595H37.426Z" fill="#03036B"/>
</svg>
