<svg width="100" height="88" fill="none" xmlns="http://www.w3.org/2000/svg"><path d="M91.848 67.825l1.111 1.127 1.096-1.096-1.722-1.721a.428.428 0 010-.564.428.428 0 01.564 0l1.721 1.722.297-.297a.397.397 0 01.564 0c.14.156.14.39 0 .547l-.313.313 1.502 1.487c.063.078.11.172.11.266v.016a.45.45 0 01-.11.281.429.429 0 01-.563 0l-1.487-1.486-1.095 1.08 1.377 1.392a.378.378 0 010 .548.378.378 0 01-.548 0l-1.393-1.377-.062.062a.397.397 0 01-.564 0 .378.378 0 010-.547l.079-.079-1.127-1.11a.428.428 0 010-.564.428.428 0 01.563 0zM59.752 49.625a.798.798 0 01-.204-1.095.795.795 0 011.096-.188l11.173 7.747a.8.8 0 01.016 1.283c-4.022 2.973-7.621 6.119-11.706 9.155a.796.796 0 01-1.11-.157.791.791 0 01.171-1.095c3.74-2.77 7.105-5.681 10.845-8.514l-10.281-7.136zM84.618 12.6l.641-.658a17.15 17.15 0 00-1.267-.047l-.032.031.658.673zm1.377-.282l-.814.829.391.391.83-.813-.407-.407zm-4.586 1.048l1.44-1.44-.016-.015-1.784.031c.032.14.032.282-.078.391l-.297.298.735.735zm-1.283-1.299l.11-.094h-.204l.094.094zm-3.74.329l.344-.344-.673.015.329.329zm-3.818.063l.328-.33-.641.017.313.313zm-3.631.422l.673-.673-1.33.016.657.657zm-3.067-.704a9.255 9.255 0 00-.689-.031l-.266.25.657.641.846-.829c-.188-.016-.36-.031-.548-.031zm-5.086-.031l1.58 1.58a.461.461 0 01.079.204c0-.094.047-.188.11-.266l1.267-1.268-.329-.313c-.939-.016-1.627-.031-2.707.063zm-2.097.923l.72-.736a5.606 5.606 0 00-1.127.329l.407.407zm.11 1.22l-1.237-1.236c-.407.297-.673.673-.72 1.174-.016.219.016.454.063.673l.657.641 1.236-1.252zm.563.564l-1.252 1.252.36.36c.094.11.11.25.062.375.924.517 1.988.751 3.036.892 3.35.47 23.537 1.049 25.775.204 2.785-1.064 3.051-3.975.313-5.384l-.157.157.955.955c.14.14.14.39 0 .547a.397.397 0 01-.564 0l-.939-.939-.83.814.016.016c.376.375-.187.923-.547.563l-.97-.97-.595.61a.428.428 0 01-.563 0 .428.428 0 010-.563l.61-.595-.673-.673-1.722 1.737a.397.397 0 01-.563 0c-.016-.031-.016-.062-.031-.078l-.955-.955-1.08 1.08c-.14.157-.39.141-.547 0a.397.397 0 010-.563l1.08-1.08-.626-.626-1.096.031-.923.924.313.313a.378.378 0 010 .547.378.378 0 01-.548 0l-.313-.313-.407.407c-.156.141-.407.141-.548 0a.397.397 0 010-.563l.392-.391-.861-.861-.939.015-.908.908.407.407a.378.378 0 010 .548.378.378 0 01-.547 0l-.407-.407-.423.422a.397.397 0 01-.563 0c-.141-.14-.141-.39 0-.547l.422-.423-.83-.845-.422.016-1.267 1.252.391.407a.378.378 0 010 .547.378.378 0 01-.548 0l-.391-.39c-.22.202-.454.187-.595.03a.378.378 0 010-.547l.032-.047-1.049-1.049-1.205 1.22.016.017a.378.378 0 010 .547.378.378 0 01-.548 0l-.094-.078c-.016 0-.031.016-.047.016a.408.408 0 01-.266-.11c-.094-.094-.11-.219-.11-.329l-.704-.704-1.252 1.252a.402.402 0 01-.281.11.377.377 0 01-.282-.11c-.047-.047-.063-.125-.078-.203 0 .11-.031.203-.11.266a.397.397 0 01-.563 0l-1.612-1.612-.955.954.126.126a.397.397 0 01.563 0c.14.156.14.39 0 .547l-.016.016.11.11a.378.378 0 010 .547.378.378 0 01-.548 0l-.11-.11zm1.987 4.429c-4.757-.673-6.228-3.115-6.056-5.18.329-4.053 6.792-3.694 10.657-3.49 1.894.094-.172.11 16.87-.266 1.627-.031 3.474-.078 5.148.626 4.21 1.737 4.288 6.76-.062 8.42-2.77 1.063-23.349.343-26.557-.11zM47.326 12.176l.485-.47-.156-.156c-.032-.031-.032-.078-.047-.125-.172-.031-.313-.094-.485-.11a3.763 3.763 0 00-.58-.046c-.046 0-.078.015-.109.015l.892.892zm-3.02.454l1.19-1.19-.032-.015a4.053 4.053 0 00-1.58.783l.422.422zm-.642 1.19c-.156-.157-.172-.376.094-.642l-.438-.438c-.297.375-.5.954-.58 1.627l1.738 1.737.923-.923a.412.412 0 01.235-.11l-1.33-1.33c-.266.25-.47.25-.642.079zm.814 3.38l-.908.907c.157.188.313.345.501.439.407.203.97.172 1.502.11 5.008-.47 5.76-3.084 4.68-5.196-.079-.173-.204-.314-.313-.47-.016.078-.032.14-.094.204a.366.366 0 01-.266.109.377.377 0 01-.282-.11l-.939-.938-.47.469.36.376a.397.397 0 010 .563.408.408 0 01-.547 0l-.376-.376-.063.063a.378.378 0 01-.547 0 .378.378 0 010-.548l.062-.078-.735-.72-1.19 1.174 1.346 1.33c.141.157.141.407 0 .563a.585.585 0 01-.25.11.378.378 0 010 .548l-.923.923.281.282a.378.378 0 010 .547.378.378 0 01-.547 0l-.282-.281zM42.71 15.43c.015.282.03.564.078.861.078.423.219.798.36 1.142l.782-.782-1.22-1.22zm8.935-2.676c3.036 5.931-5.493 8.607-8.294 7.183-1.033-.532-1.8-1.752-2.097-3.364-.939-5.024 2.833-7.262 6.072-6.808 1.894.235 3.474 1.33 4.32 2.99zM53.117 47.153a.79.79 0 011.08-.282.79.79 0 01.266 1.08L41.427 69.938a.794.794 0 01-.673.376.707.707 0 01-.391-.11.79.79 0 01-.282-1.08l13.036-21.971zM28.954 17.7l.517.501c.125.141.125.345.015.485.783.063 2.692-.172 3.835-.672 2.08-.908 2.66-2.77 1.752-4.554-.735-1.424-2.3-2.363-4.225-2.144l.767.782c.344-.344.657-.782.986-.438a.378.378 0 010 .548l-.423.438.767.767c.14.156.14.407 0 .563a.429.429 0 01-.563 0l-.767-.782a.397.397 0 01-.564.015c-.14-.156-.14-.407 0-.547l.016-.016-.563-.548-.689.689 1.753 1.752a.397.397 0 010 .564.444.444 0 01-.266.11.311.311 0 01-.11.25l-.986.986c0 .11-.031.219-.11.297a.377.377 0 01-.28.11h-.017l-.845.845zm1.816-2.848l-1.518-1.518-.94.955c-.03.031-.062.016-.078.031l1.503 1.503.908-.908c.03-.031.078-.031.125-.063zm-1.518-2.613l.704-.704h-.016c-.328.11-.641.25-.939.438l.25.266zm-2.238-.626c2.645-2.942 7.637-2.41 9.452 1.143 1.299 2.535.423 5.398-2.52 6.697-1.377.595-4.381 1.19-5.774.485-1.033-.532-1.8-1.752-2.113-3.364-.297-1.612-.11-3.772.955-4.96zm1.174 1.049c-.235.266-.392.672-.517 1.142.016.016.032.016.047.031.016-.031.016-.062.031-.094l.955-.954-.313-.313c-.063.062-.14.125-.203.188zm-.564 3.708l.783.783.767-.767-1.644-1.643c-.031.5-.015 1.017.079 1.55 0 .015.015.046.015.077zM27.06 57.622a27.565 27.565 0 018.295 6.26.79.79 0 01-.063 1.11.771.771 0 01-1.095-.062 26.21 26.21 0 00-8.936-6.432.785.785 0 01-.47-.61.791.791 0 01.298-.72l10.83-8.388a.776.776 0 011.095.14.776.776 0 01-.141 1.096l-9.812 7.606zM15.95 11.285l1.048 1.048.642-.642c-.689-.313-1.142-.39-1.69-.406zm-2.332 1.361l1.283-1.283a4.164 4.164 0 00-1.737.83l.454.453zm-.516 4.335l-1.096-1.096c.016.141.016.266.047.407.094.485.25.924.438 1.3l.61-.611zm3.349-4.085l-.986-.985-1.283 1.298 1.737 1.738a.378.378 0 010 .547.397.397 0 01-.564 0l-1.737-1.737-.344.344a.378.378 0 01-.548 0 .378.378 0 010-.547l.344-.345-.485-.485c-.344.438-.563 1.19-.61 2.02l1.675 1.674.532-.532a.397.397 0 01.563 0 .378.378 0 010 .547l-.548.548.61.595c.376.375-.187.923-.547.563l-.61-.61-.72.72c.125.125.25.219.39.297 1.566.798 8.42-.736 6.198-5.086a3.944 3.944 0 00-1.174-1.362l-.798.783.454.454a.397.397 0 010 .563c-.157.14-.407.14-.548 0l-.454-.454-.266.266a.378.378 0 01-.547 0 .397.397 0 010-.563l.266-.25zm-3.834 7.043c-1.033-.532-1.8-1.753-2.113-3.365-.297-1.612-.11-3.771.955-4.96 2.644-2.943 7.636-2.426 9.452 1.142 3.083 6.025-5.697 8.513-8.294 7.183z" fill="#1A064F"/><path d="M48.437 85.102l-.892.876 1.737-.03-.845-.846zm-4.194-.172l-1.095 1.095 2.175-.031-1.08-1.064zm-3.537-.141l-1.267 1.283 2.52-.031-1.253-1.252zm55.915-36.54l.736.75.046-1.533-.782.782zm.626 4.756l.016-.5-.266.266.25.234zm.376-13.614l-.36.375c-.032.016-.079.016-.11.032l.454.453.016-.86zm-.079 3.145l-1.017 1.002.955.954.062-1.956zM96.527 63.35l.407.407.031-.846-.438.439zM95.48 77.215l-2.66 2.676 1.83 1.815c.783-1.095 1.268-2.363 1.55-3.771l-.72-.72zm-5.415 5.414l1.299 1.284c.094.094.11.219.094.344 1.017-.47 1.94-1.064 2.707-1.91l-1.91-1.908-2.19 2.19zm2.27-8.278l-2.52 2.52 2.457 2.457 2.66-2.66-.751-.752-1.111 1.095a.378.378 0 01-.548 0 .378.378 0 010-.547l1.095-1.111-1.205-1.205c-.015.062-.03.14-.078.203zm-5.275 5.258l2.457 2.457 2.191-2.19-2.457-2.458-2.19 2.191zm-1.956-1.956l1.409 1.408 2.19-2.19-1.408-1.393-2.19 2.175zm-2.801 2.786l1.408 1.408 2.238-2.238-1.408-1.408-2.238 2.238zm-5.743.61l2.019 2.019 2.629-2.63-2.02-2.018-2.628 2.629zm.563 4.585l5.759-.063c2.801-.03 5.634-.187 7.997-1.08-.016 0-.047 0-.063-.015l-4.303-4.303-2.238 2.237 2.05 2.05a.378.378 0 010 .548.378.378 0 01-.548 0l-2.05-2.034-1.205 1.19a.397.397 0 01-.563 0 .378.378 0 010-.549l1.205-1.205-1.409-1.408-2.629 2.629 1.096 1.095a.378.378 0 010 .548.378.378 0 01-.548 0l-1.096-1.08-1.455 1.44zm21.299-74.506c.188-6.776-1.409-8.826-8.748-8.967a3383.06 3383.06 0 00-74.553-.579C5.636 1.613 4.212 4.51 4.025 11.3c-.079 3.02-.329 8.592-.642 15.352l94.615-.391.423-15.133zM72.819 84.805l-.908.892 4.084-.047 2.02-2.019-2.02-2.019-2.629 2.63.548.547a.397.397 0 010 .563c-.14.141-.391.141-.548 0l-.547-.547zm-4.867-.924l1.486 1.487a.44.44 0 01.094.36l1.518-.031c-.015-.126 0-.25.094-.345l1.111-1.11-2.316-2.332-1.987 1.971zm-.548.564l-1.315 1.314 2.598-.031-1.283-1.283zm-3.975-.564l1.377 1.393c.141.141.141.344.016.501h.5c-.046-.14-.046-.297.063-.423l1.471-1.47-1.47-1.456c-.126-.125-.126-.313-.048-.454l-1.909 1.91zm-.563.564l-1.362 1.361 2.708-.031-1.346-1.33zm-4.257 1.408l-1.361-1.361-1.393 1.392 2.754-.03zm-5.18.047l-1.205-1.19-1.236 1.221 2.441-.03zm29.483 1.236l-62.565.72c-7.528.079-16.01-.516-19.343-7.558-2.629-5.556.642-38.497 1.456-69.029C2.679 3.554 4.854.049 15.104.017c24.742-.078 49.827.11 74.6.58 8.263.156 10.501 2.957 10.282 10.562l-1.737 61.549c-.282 10.407-3.24 14.288-15.337 14.428zm-28.184-1.251l1.956-1.957-.986-.986a.378.378 0 010-.547.397.397 0 01.564 0l.986.986 3.208-3.209a.378.378 0 01.547 0 .378.378 0 010 .548l-3.208 3.208 1.518 1.518c.094.11.11.25.063.392l1.315-.016a.368.368 0 01.062-.376l1.565-1.565-1.127-1.11a.378.378 0 010-.548.397.397 0 01.564 0l1.11 1.11 3.913-3.912a.397.397 0 01.563 0c.141.157.141.407 0 .548l-1.846 1.862c.14-.078.313-.094.438.032l1.471 1.47 6.103-6.102c.141-.141.391-.141.548 0a.397.397 0 010 .563l-3.568 3.568 2.332 2.316 2.629-2.63-.908-.891a.397.397 0 010-.563.429.429 0 01.563 0l.892.907 4.805-4.788a.378.378 0 01.547 0 .378.378 0 010 .547l-1.611 1.612 2.018 2.019 2.238-2.238-1.252-1.252a.378.378 0 010-.548.397.397 0 01.564 0l1.251 1.237 2.176-2.176-.329-.344a.378.378 0 010-.548.378.378 0 01.548 0l.344.329 2.082-2.081a.397.397 0 01.563 0c.14.14.14.39 0 .547l-2.097 2.097 1.408 1.409 2.535-2.535c.047-.047.126-.063.188-.079l-1.893-1.893a.378.378 0 010-.548.397.397 0 01.563 0l3.537 3.537 1.643-1.659a.408.408 0 01.548 0 .397.397 0 010 .563l-1.643 1.644 1.643 1.643c.203-1.377.281-2.833.313-4.32l.094-3.051v-.016l.125-4.82c-.016-.015-.063-.015-.079-.031l-.845-.845-1.956 1.94a.378.378 0 01-.547 0 .378.378 0 010-.547l1.94-1.956-2.16-2.16c-.14-.14-.14-.391 0-.548a.397.397 0 01.564 0l2.16 2.16 1.017-1.017.094-3.208-.47-.47-1.987 1.988a.378.378 0 01-.548 0 .378.378 0 010-.548l1.987-1.988-1.47-1.47a.378.378 0 010-.548.378.378 0 01.547 0l1.471 1.455.454-.438c.016-.016.047-.016.063-.031l.078-2.755c-.032.016-.063.047-.11.047a.377.377 0 01-.281-.11l-.392-.39-1.44 1.455c-.156.14-.406.156-.563 0a.397.397 0 010-.563l1.455-1.44-.954-.955a.408.408 0 010-.548.397.397 0 01.563 0l.94.94.72-.705c.03-.031.077-.031.14-.047l.031-1.408h-.031l-1.236-1.236-.986.985a.378.378 0 01-.548 0 .378.378 0 010-.547l.986-.986-.11-.125a.378.378 0 010-.548.378.378 0 01.548 0l.11.11 1.377-1.362.016-.767-1.503-1.502c-.156.11-.313.125-.47-.032a.378.378 0 010-.547l1.534-1.534c.141-.156.391-.14.548 0l.016-.626-1.221-1.22a.378.378 0 010-.548c.063-.079.156-.094.25-.11 0-.094.032-.172.094-.25l.955-.955.297-10.422-94.63.391C1.02 77.31 1.097 76.824 2.427 79.625c3.036 6.447 11.143 6.745 17.887 6.65l8.905-.093.031-.032-.344-.328c-.141-.157-.141-.407 0-.548a.397.397 0 01.563 0l.329.329 3.083-3.083c.14-.14.391-.14.547 0a.397.397 0 010 .563l-3.082 3.067.015.016 2.833-.031.062-.063-.594-.594a.397.397 0 010-.564.378.378 0 01.547 0l.61.595 2.692-2.707a.429.429 0 01.564 0 .397.397 0 010 .563l-2.708 2.707.016.016s0 .031.016.031l3.505-.031-1.314-1.315a.378.378 0 010-.547.378.378 0 01.547 0l1.518 1.502 1.58-1.565a.357.357 0 01.11-.297.377.377 0 01.282-.11l.86-.86a.397.397 0 01.564 0 .378.378 0 010 .547l-.798.798 1.283 1.268 3.474-3.474c.157-.141.407-.141.548 0a.397.397 0 010 .563l-1.768 1.769 1.47 1.47c.048.047.048.094.063.157l.173-.016c.015-.03.015-.062.047-.093l1.33-1.346-.032-.032a.378.378 0 010-.547.397.397 0 01.564 0l.016.03 1.33-1.33a.397.397 0 01.563 0 .378.378 0 010 .549l-1.33 1.33 1.142 1.158 1.55-1.55-.423-.422a.378.378 0 010-.548.378.378 0 01.548 0l.422.423 1.925-1.925a.378.378 0 01.548 0 .378.378 0 010 .548l-1.925 1.924 1.612 1.597c.031.047.031.094.047.156l.297-.016z" fill="#1A064F"/></svg>