<svg width="122" height="24" viewBox="0 0 122 24" fill="none" xmlns="http://www.w3.org/2000/svg">
<g clip-path="url(#clip0_4_1550)">
<path fill-rule="evenodd" clip-rule="evenodd" d="M4.07412 2.23493C4.98238 1.44576 6.03788 0.844175 7.17974 0.464868C8.32161 0.0855613 9.52727 -0.0639673 10.7272 0.0249028C11.9271 0.113773 13.0976 0.439284 14.1711 0.982669C15.2447 1.52605 16.2 2.27656 16.9821 3.19093C18.6639 4.89166 19.6462 7.16163 19.7347 9.55185C19.8233 11.9421 19.0115 14.2785 17.4601 16.0989L10.2891 23.2699C8.85512 22.3139 6.46512 20.4019 7.42112 18.4889C9.33312 16.0989 11.7211 14.1889 13.6361 11.7959C15.0701 9.88393 14.1141 6.05893 11.2461 5.58093C10.6025 5.35597 9.91198 5.30002 9.24058 5.41843C8.56918 5.53684 7.93942 5.82565 7.41163 6.2572C6.88384 6.68875 6.47568 7.24858 6.22626 7.88308C5.97683 8.51758 5.89449 9.20549 5.98712 9.88093C5.98712 12.2709 7.89912 13.7049 9.33312 15.1399C7.89912 16.5739 5.98712 17.5299 5.98712 19.4399C4.55312 17.5279 2.16312 16.0939 1.20612 13.7029C0.332092 11.7461 0.139662 9.55272 0.659616 7.47363C1.17957 5.39454 2.38186 3.54993 4.07412 2.23493Z" fill="#6A7A99"/>
<path fill-rule="evenodd" clip-rule="evenodd" d="M34.6701 2.23512C35.1481 0.801117 36.5821 1.27912 37.5381 1.27912V18.9621H34.6701V17.5321C33.5191 18.4601 32.0851 18.9662 30.6066 18.9662C29.1281 18.9662 27.6941 18.4601 26.5431 17.5321C25.2192 16.3233 24.4262 14.6405 24.3366 12.85C24.2471 11.0594 24.8683 9.30597 26.0651 7.97112C27.1413 6.79981 28.6051 6.0577 30.186 5.88196C31.7669 5.70622 33.358 6.10874 34.6651 7.01512L34.6701 2.23512ZM30.3701 8.45012C27.9801 8.92812 26.0701 12.2741 27.9801 14.6651C28.3372 15.1861 28.8251 15.6039 29.3947 15.8766C29.9644 16.1494 30.5958 16.2675 31.2255 16.2191C31.8552 16.1706 32.4611 15.9574 32.9824 15.6007C33.5036 15.2441 33.9219 14.7565 34.1951 14.1871C35.6261 11.7961 33.2351 8.44912 30.3671 8.44912L30.3701 8.45012Z" fill="#6A7A99"/>
<path fill-rule="evenodd" clip-rule="evenodd" d="M39.9281 6.05883H42.7961V7.01483C43.7521 5.58083 45.6641 5.58083 47.5771 6.05883C47.0991 7.01483 46.6211 7.49283 46.6211 8.44883C44.7091 7.97083 42.7971 8.92683 42.7971 10.3608V17.5318C42.3181 18.9708 40.8841 18.9708 39.9281 18.9708V6.05883Z" fill="#6A7A99"/>
<path fill-rule="evenodd" clip-rule="evenodd" d="M51.8791 6.06009C56.6601 4.14809 61.4401 8.92809 60.4791 13.7091C59.5181 18.4901 52.8301 20.8801 49.4791 17.5331C45.6551 14.1871 47.0891 7.01609 51.8691 6.06009H51.8791ZM53.3131 8.45009C52.5104 8.66424 51.7783 9.08635 51.1908 9.67383C50.6034 10.2613 50.1813 10.9933 49.9671 11.7961C49.869 12.3415 49.8961 12.9021 50.0462 13.4355C50.1964 13.969 50.4658 14.4613 50.8341 14.8754C51.2024 15.2895 51.6599 15.6146 52.1721 15.826C52.6844 16.0375 53.238 16.1298 53.7911 16.0961C55.7031 16.0961 57.6151 14.6621 57.6151 12.7501C57.6151 10.3621 55.2261 7.97209 53.3151 8.45009H53.3131Z" fill="#6A7A99"/>
<path fill-rule="evenodd" clip-rule="evenodd" d="M62.3971 6.05879H65.2651V7.01479C66.5723 6.10841 68.1633 5.70589 69.7442 5.88163C71.3251 6.05737 72.789 6.79948 73.8651 7.97078C74.4561 8.58506 74.9148 9.31401 75.213 10.1126C75.5111 10.9112 75.6423 11.7624 75.5984 12.6136C75.5545 13.4649 75.3365 14.2982 74.9579 15.0619C74.5793 15.8256 74.0481 16.5035 73.3971 17.0538C71.4851 19.4438 67.6601 19.4438 65.2701 18.0098V22.3098C64.7921 23.7438 63.3581 23.7438 62.4021 23.7438V6.05879H62.3971ZM68.6121 8.44879C65.7441 8.92679 64.3121 12.2728 65.7441 14.1858C67.1781 16.5758 71.0031 16.5758 71.9591 14.1858C73.8701 11.7948 71.4801 8.44879 68.6121 8.44879Z" fill="#6A7A99"/>
<path fill-rule="evenodd" clip-rule="evenodd" d="M80.5631 6.53782C81.773 5.85935 83.1684 5.58612 84.5448 5.75815C85.9213 5.93018 87.2064 6.53844 88.2121 7.49382C87.7341 7.97182 87.2561 8.92782 86.3001 9.40582C85.8545 9.04481 85.3311 8.79233 84.7712 8.66831C84.2112 8.54429 83.6302 8.55212 83.0738 8.69119C82.5174 8.83026 82.001 9.09676 81.5652 9.46965C81.1295 9.84254 80.7865 10.3116 80.5631 10.8398C80.3554 11.4059 80.2809 12.0122 80.3455 12.6118C80.4102 13.2113 80.6122 13.7878 80.9359 14.2966C81.2596 14.8053 81.6962 15.2326 82.2119 15.5452C82.7276 15.8577 83.3083 16.0472 83.9091 16.0988C84.8651 16.0988 85.8211 15.6208 86.7771 15.6208C87.631 15.9968 88.3131 16.6789 88.6891 17.5328C85.3431 20.4008 79.6061 19.4448 78.1721 15.1428C76.2601 12.2738 77.6941 8.44782 80.5631 6.53782Z" fill="#6A7A99"/>
<path fill-rule="evenodd" clip-rule="evenodd" d="M88.6901 14.6641C87.2581 10.3621 90.6021 5.58105 94.9051 5.58105C96.6262 5.65618 98.2714 6.3111 99.5732 7.4394C100.875 8.5677 101.757 10.1031 102.076 11.7961V18.9671C100.642 18.9671 99.6861 18.9671 98.7301 18.0111C95.3841 20.4011 90.1301 18.4891 88.6911 14.6651L88.6901 14.6641ZM94.9051 8.44905C94.2468 8.57292 93.6276 8.85246 93.0993 9.26436C92.5709 9.67626 92.1488 10.2086 91.8681 10.8168C91.5874 11.4251 91.4563 12.0917 91.4857 12.761C91.5151 13.4302 91.7042 14.0827 92.0371 14.6641C93.9491 17.0541 97.7741 16.5761 98.7301 14.1861C98.9749 13.5557 99.0644 12.8756 98.991 12.2034C98.9176 11.5311 98.6834 10.8864 98.3082 10.3237C97.9331 9.76105 97.428 9.29696 96.8357 8.97067C96.2434 8.64437 95.5812 8.46546 94.9051 8.44905Z" fill="#6A7A99"/>
<path fill-rule="evenodd" clip-rule="evenodd" d="M103.988 6.06009H106.856V7.01609C108.29 5.10409 111.637 5.58209 113.549 7.49409C115.939 4.62609 120.72 5.58209 121.676 8.92809C122.154 11.7961 121.676 15.1431 121.676 18.0111C121.676 18.9671 120.242 18.9671 118.808 18.9671C118.808 16.0991 119.286 13.2301 118.808 10.3671C118.715 9.86519 118.448 9.41183 118.056 9.08556C117.663 8.75929 117.169 8.58068 116.658 8.58068C116.148 8.58068 115.653 8.75929 115.26 9.08556C114.868 9.41183 114.602 9.86519 114.508 10.3671V18.9671H111.64C111.719 15.9316 111.56 12.8945 111.162 9.88409C110.684 7.97209 107.338 8.45009 107.338 10.3621C106.941 13.2106 106.781 16.0871 106.86 18.9621H103.988V6.06009Z" fill="#6A7A99"/>
</g>
<defs>
<clipPath id="clip0_4_1550">
<rect width="121.516" height="23.743" fill="white" transform="translate(0.373108)"/>
</clipPath>
</defs>
</svg>
