<svg width="657" height="525" viewBox="0 0 657 525" fill="none" xmlns="http://www.w3.org/2000/svg">
<g clip-path="url(#clip0_4_686)">
<path d="M493.947 322.307C494.775 320.59 497.2 320.176 498.915 321.005C500.63 321.834 501.695 323.61 502.464 325.327C503.647 328.17 504.12 331.012 504.534 334.032C505.362 331.308 506.308 328.584 507.373 325.919C508.023 324.143 508.792 322.426 509.502 320.649C505.657 318.754 502.405 315.734 500.276 312.004C499.448 310.583 498.797 308.865 499.507 307.385C500.335 305.668 502.759 305.253 504.475 306.082C506.19 306.911 507.254 308.629 508.023 310.405C509.265 313.366 509.738 316.267 510.093 319.406C512.459 314.076 515.238 308.925 518.432 304.069C515.002 301.582 512.34 298.088 510.803 294.18C510.211 292.641 509.856 290.805 510.803 289.502C511.867 287.963 514.351 287.903 515.889 288.969C517.427 290.035 518.254 291.93 518.668 293.766C519.378 296.726 519.437 299.628 519.319 302.648C522.749 297.555 526.771 292.641 531.857 289.147C531.975 289.088 532.094 289.028 532.153 288.91C529.077 285.949 526.889 282.1 525.943 277.896C525.588 276.297 525.47 274.462 526.593 273.277C527.895 271.915 530.319 272.211 531.68 273.514C533.04 274.817 533.572 276.771 533.75 278.666C534.104 281.982 533.572 285.061 532.981 288.318C538.954 284.469 545.696 281.686 551.492 277.659C548.298 274.698 546.051 270.79 545.105 266.527C544.75 264.928 544.631 263.092 545.755 261.908C547.056 260.546 549.481 260.842 550.841 262.145C552.202 263.448 552.734 265.402 552.911 267.297C553.266 270.731 552.734 273.869 552.083 277.185C553.503 276.12 554.922 275.054 556.223 273.751C558.825 271.205 560.895 268.185 562.433 264.81C558.471 262.796 555.159 259.48 553.148 255.572C552.379 254.151 551.847 252.374 552.616 250.953C553.503 249.295 555.927 248.94 557.583 249.828C559.239 250.716 560.245 252.493 560.954 254.269C562.196 257.526 562.492 260.724 562.729 264.217C565.094 258.77 565.981 252.611 565.567 246.808C562.256 244.558 559.535 241.36 557.938 237.63C557.288 236.149 556.815 234.314 557.702 232.952C558.707 231.353 561.132 231.175 562.788 232.182C564.385 233.189 565.272 235.024 565.863 236.86C566.75 239.762 566.928 242.604 566.987 245.565C567.046 245.683 567.105 245.742 567.105 245.92C567.578 250.835 567.046 255.809 565.686 260.546C565.39 261.612 565.035 262.619 564.68 263.684C567.342 260.783 570.772 258.651 574.557 257.526C576.095 257.052 577.987 256.875 579.229 257.881C580.708 259.066 580.53 261.553 579.347 262.974C578.165 264.454 576.213 265.106 574.32 265.402C570.831 265.994 567.578 265.639 564.089 265.224C563.202 267.356 562.078 269.369 560.718 271.205C558.648 273.988 556.164 276.297 553.384 278.251C557.169 276.771 561.309 276.416 565.331 277.185C566.928 277.482 568.643 278.133 569.293 279.613C570.062 281.331 568.82 283.462 567.046 284.232C565.331 285.002 563.261 284.706 561.487 284.114C557.997 282.989 555.218 281.153 552.202 279.08C547.589 282.219 542.384 284.647 537.535 287.37C535.997 288.199 534.518 289.147 533.099 290.094C537.121 288.318 541.674 287.726 545.992 288.614C547.589 288.91 549.304 289.561 549.954 291.042C550.723 292.759 549.481 294.891 547.707 295.661C545.992 296.43 543.922 296.134 542.148 295.542C538.599 294.417 535.76 292.463 532.685 290.39C531.147 291.456 529.728 292.581 528.368 293.884C525.943 296.253 523.755 298.917 521.744 301.641C521.212 302.352 520.679 303.122 520.206 303.891C523.695 301.937 527.658 300.931 531.68 301.049C533.276 301.108 535.11 301.464 535.997 302.826C537.002 304.424 536.115 306.734 534.518 307.74C532.922 308.747 530.852 308.747 529.018 308.451C525.529 307.918 522.572 306.556 519.437 305.076C516.303 309.813 513.641 314.905 511.335 320.116C514.351 317.215 518.195 315.261 522.276 314.491C523.873 314.195 525.706 314.136 526.889 315.32C528.249 316.682 527.835 319.11 526.534 320.412C525.174 321.774 523.222 322.189 521.33 322.366C517.722 322.603 514.469 321.952 510.98 321.182C510.684 321.893 510.389 322.544 510.093 323.255C508.496 327.044 507.077 330.953 505.835 334.92C508.792 332.137 512.518 330.242 516.539 329.472C518.136 329.176 519.97 329.117 521.152 330.301C522.513 331.663 522.099 334.091 520.798 335.394C519.437 336.756 517.486 337.17 515.593 337.348C512.104 337.585 508.91 336.933 505.539 336.223C504.238 340.782 503.173 345.401 502.523 350.079C502.405 351.027 500.867 350.79 501.044 349.783C501.695 345.046 502.759 340.368 504.061 335.808C500.216 333.913 496.904 330.834 494.775 327.104C493.947 325.564 493.297 323.788 493.947 322.307Z" fill="url(#paint0_linear_4_686)"/>
<path d="M493.297 353.632L488.979 379.094C491.582 377.673 494.361 376.489 497.082 375.245C499.743 374.061 502.404 372.758 504.829 371.1C507.313 369.442 509.265 367.31 511.098 365.001C512.813 362.692 514.469 360.323 516.658 358.428C518.373 356.948 520.383 355.882 522.513 355.053C526.889 353.336 531.561 352.684 535.997 351.145C538.244 350.375 540.373 349.309 542.207 347.829C544.454 346.052 546.169 343.743 547.825 341.434C549.481 339.124 551.078 336.756 553.029 334.683C554.685 332.907 556.578 331.426 558.707 330.183C562.906 327.696 567.696 326.393 572.487 325.978C584.256 324.913 595.552 329.413 606.02 334.269C606.611 334.565 607.262 334.861 607.853 335.157C609.628 328.643 600.638 322.129 594.783 320.235C590.761 318.932 586.326 319.761 582.127 319.109C560.895 315.675 548.002 306.556 534.755 329.768C533.276 332.374 531.916 335.157 529.609 336.992C519.082 344.039 496.136 335.275 493.297 353.632Z" fill="url(#paint1_linear_4_686)"/>
<path d="M502.996 407.932C519.437 416.518 539.013 403.787 530.319 382.884C523.814 371.87 534.696 366.955 544.04 365.889C548.653 365.356 554.153 365.83 557.051 362.159C562.374 353.691 552.083 340.604 572.014 338.532C583.251 337.348 602.294 349.605 607.617 335.867C607.617 335.808 607.676 335.749 607.676 335.69C597.74 331.012 587.272 326.393 576.154 326.393C571.245 326.393 566.277 327.222 561.782 329.235C559.594 330.183 557.524 331.485 555.632 332.966C553.562 334.683 551.847 336.755 550.309 338.887C548.653 341.197 547.115 343.565 545.223 345.697C543.567 347.592 541.674 349.131 539.427 350.316C535.405 352.388 530.911 353.158 526.593 354.342C524.405 354.934 522.217 355.645 520.206 356.711C517.9 357.954 516.007 359.672 514.351 361.685C512.518 363.876 510.98 366.304 509.028 368.376C507.136 370.39 504.829 371.988 502.405 373.291C498.028 375.719 493.297 377.318 488.98 379.746C488.861 379.746 484.485 398.28 502.996 407.932Z" fill="url(#paint2_linear_4_686)"/>
<path d="M488.979 379.094L488.861 379.746C493.178 377.318 497.969 375.66 502.286 373.291C504.711 371.929 507.018 370.39 508.91 368.376C510.921 366.304 512.459 363.876 514.233 361.685C515.889 359.672 517.781 357.954 520.088 356.711C522.099 355.645 524.287 354.934 526.475 354.342C530.792 353.158 535.287 352.388 539.309 350.316C541.556 349.191 543.449 347.592 545.105 345.697C546.997 343.565 548.535 341.197 550.191 338.887C551.787 336.755 553.443 334.683 555.513 332.966C557.347 331.426 559.476 330.183 561.664 329.235C566.159 327.222 571.127 326.393 576.035 326.393C587.213 326.393 597.622 331.012 607.558 335.69C607.617 335.512 607.676 335.334 607.735 335.157C607.085 334.861 606.493 334.565 605.902 334.268C595.434 329.413 584.138 324.912 572.369 325.978C567.578 326.393 562.788 327.755 558.589 330.183C556.519 331.426 554.567 332.907 552.911 334.683C550.96 336.755 549.363 339.124 547.707 341.433C546.051 343.743 544.277 346.052 542.088 347.829C540.255 349.309 538.126 350.375 535.878 351.145C531.443 352.744 526.771 353.395 522.394 355.053C520.265 355.882 518.254 356.948 516.539 358.428C514.351 360.323 512.695 362.692 510.98 365.001C509.206 367.37 507.195 369.442 504.711 371.1C502.286 372.758 499.625 374.002 496.964 375.245C494.361 376.489 491.582 377.673 488.979 379.094Z" fill="white"/>
<path d="M163.053 189.547C162.225 187.83 159.8 187.415 158.085 188.244C156.37 189.073 155.305 190.85 154.536 192.567C153.353 195.409 152.88 198.252 152.466 201.272C151.638 198.548 150.692 195.824 149.628 193.159C148.977 191.383 148.208 189.666 147.498 187.889C151.343 185.994 154.595 182.974 156.724 179.244C157.552 177.823 158.203 176.105 157.493 174.625C156.665 172.908 154.241 172.493 152.525 173.322C150.81 174.151 149.746 175.868 148.977 177.645C147.735 180.606 147.262 183.507 146.907 186.646C144.541 181.316 141.762 176.165 138.568 171.309C141.998 168.822 144.66 165.328 146.197 161.42C146.789 159.88 147.144 158.045 146.197 156.742C145.133 155.202 142.649 155.143 141.111 156.209C139.573 157.275 138.746 159.17 138.332 161.005C137.622 163.966 137.563 166.868 137.681 169.888C134.251 164.795 130.229 159.88 125.143 156.387C125.025 156.328 124.906 156.268 124.847 156.15C127.923 153.189 130.111 149.34 131.057 145.136C131.412 143.537 131.53 141.701 130.407 140.517C129.105 139.155 126.681 139.451 125.32 140.754C123.96 142.057 123.428 144.011 123.251 145.906C122.896 149.222 123.428 152.301 124.019 155.558C118.046 151.709 111.304 148.926 105.508 144.899C108.702 141.938 110.949 138.03 111.895 133.767C112.25 132.168 112.369 130.332 111.245 129.148C109.944 127.786 107.519 128.082 106.159 129.385C104.798 130.687 104.266 132.642 104.089 134.536C103.734 137.971 104.266 141.109 104.917 144.425C103.497 143.359 102.078 142.294 100.777 140.991C98.1746 138.445 96.1047 135.425 94.567 132.049C98.5295 130.036 101.841 126.72 103.852 122.812C104.621 121.391 105.153 119.614 104.384 118.193C103.497 116.535 101.073 116.18 99.4166 117.068C97.7606 117.956 96.7552 119.733 96.0455 121.509C94.8036 124.766 94.5079 127.964 94.2713 131.457C91.9056 126.009 91.0185 119.851 91.4325 114.048C94.7444 111.798 97.4649 108.6 99.0617 104.87C99.7123 103.389 100.185 101.554 99.2983 100.192C98.2929 98.5929 95.8681 98.4152 94.2122 99.4219C92.6153 100.429 91.7282 102.264 91.1368 104.1C90.2497 107.001 90.0723 109.844 90.0131 112.804C89.954 112.923 89.8948 112.982 89.8948 113.16C89.4217 118.075 89.954 123.049 91.3142 127.786C91.6099 128.852 91.9648 129.858 92.3196 130.924C89.6583 128.023 86.2281 125.891 82.443 124.766C80.9054 124.292 79.0129 124.115 77.7709 125.121C76.2924 126.306 76.4698 128.793 77.6526 130.214C78.8354 131.694 80.7871 132.345 82.6796 132.642C86.169 133.234 89.4217 132.878 92.9111 132.464C93.7982 134.596 94.9219 136.609 96.2821 138.445C98.3521 141.228 100.836 143.537 103.616 145.491C99.8306 144.011 95.6907 143.655 91.6691 144.425C90.0723 144.721 88.3572 145.373 87.7066 146.853C86.9378 148.57 88.1798 150.702 89.954 151.472C91.6691 152.242 93.739 151.946 95.5133 151.353C99.0026 150.228 101.782 148.393 104.798 146.32C109.411 149.459 114.616 151.886 119.465 154.61C121.003 155.439 122.482 156.387 123.901 157.334C119.879 155.558 115.326 154.966 111.008 155.854C109.411 156.15 107.696 156.801 107.046 158.282C106.277 159.999 107.519 162.131 109.293 162.9C111.008 163.67 113.078 163.374 114.852 162.782C118.401 161.657 121.24 159.703 124.315 157.63C125.853 158.696 127.272 159.821 128.632 161.124C131.057 163.493 133.245 166.157 135.256 168.881C135.788 169.592 136.321 170.361 136.794 171.131C133.305 169.177 129.342 168.171 125.32 168.289C123.724 168.348 121.89 168.703 121.003 170.065C119.998 171.664 120.885 173.974 122.482 174.98C124.078 175.987 126.148 175.987 127.982 175.691C131.471 175.158 134.428 173.796 137.563 172.316C140.697 177.053 143.359 182.145 145.665 187.356C142.649 184.455 138.805 182.501 134.724 181.731C133.127 181.435 131.294 181.375 130.111 182.56C128.751 183.922 129.165 186.35 130.466 187.652C131.826 189.014 133.778 189.429 135.67 189.606C139.278 189.843 142.531 189.192 146.02 188.422C146.316 189.133 146.611 189.784 146.907 190.495C148.504 194.284 149.923 198.192 151.165 202.16C148.208 199.377 144.482 197.482 140.461 196.712C138.864 196.416 137.03 196.357 135.848 197.541C134.487 198.903 134.901 201.331 136.202 202.634C137.563 203.996 139.514 204.41 141.407 204.588C144.896 204.825 148.09 204.173 151.461 203.463C152.762 208.022 153.827 212.641 154.477 217.319C154.595 218.266 156.133 218.03 155.956 217.023C155.305 212.286 154.241 207.608 152.939 203.048C156.784 201.153 160.095 198.074 162.225 194.344C163.112 192.804 163.762 191.027 163.053 189.547Z" fill="url(#paint3_linear_4_686)"/>
<path d="M163.762 220.872L168.08 246.334C165.477 244.913 162.698 243.729 159.977 242.485C157.316 241.301 154.654 239.998 152.23 238.34C149.746 236.682 147.794 234.551 145.961 232.241C144.246 229.932 142.59 227.563 140.401 225.668C138.686 224.188 136.676 223.122 134.546 222.293C130.17 220.576 125.498 219.925 121.062 218.385C118.815 217.615 116.686 216.549 114.852 215.069C112.605 213.292 110.89 210.983 109.234 208.674C107.578 206.364 105.981 203.996 104.03 201.923C102.374 200.147 100.481 198.666 98.352 197.423C94.153 194.936 89.3626 193.633 84.5721 193.219C72.803 192.153 61.507 196.653 51.039 201.509C50.4476 201.805 49.7971 202.101 49.2057 202.397C47.4314 195.883 56.4209 189.37 62.2759 187.475C66.2975 186.172 70.7331 187.001 74.9321 186.35C96.1638 182.915 109.057 173.796 122.304 197.008C123.783 199.614 125.143 202.397 127.45 204.233C137.977 211.279 160.923 202.515 163.762 220.872Z" fill="url(#paint4_linear_4_686)"/>
<path d="M154.004 275.113C137.563 283.699 117.987 270.968 126.681 250.065C133.186 239.051 122.304 234.136 112.96 233.07C108.347 232.537 102.847 233.011 99.9489 229.34C94.6262 220.872 104.917 207.785 84.9862 205.713C73.7494 204.529 54.7059 216.786 49.3832 203.107C49.3832 203.048 49.324 202.989 49.324 202.93C59.2598 198.252 69.7278 193.633 80.8463 193.633C85.755 193.633 90.7229 194.462 95.2176 196.475C97.4059 197.423 99.4758 198.725 101.368 200.206C103.438 201.923 105.153 203.996 106.691 206.127C108.347 208.437 109.885 210.805 111.777 212.937C113.433 214.832 115.326 216.372 117.573 217.556C121.595 219.628 126.089 220.398 130.407 221.582C132.595 222.175 134.783 222.885 136.794 223.951C139.1 225.195 140.993 226.912 142.649 228.925C144.482 231.116 146.02 233.544 147.972 235.616C149.864 237.63 152.171 239.229 154.595 240.531C158.972 242.959 163.703 244.558 168.021 246.986C168.139 246.986 172.574 265.52 154.004 275.113Z" fill="url(#paint5_linear_4_686)"/>
<path d="M168.08 246.334L168.198 246.986C163.881 244.558 159.09 242.9 154.773 240.531C152.348 239.169 150.042 237.63 148.149 235.616C146.138 233.544 144.601 231.116 142.826 228.925C141.17 226.912 139.278 225.195 136.971 223.951C134.961 222.885 132.772 222.175 130.584 221.582C126.267 220.398 121.772 219.628 117.75 217.556C115.503 216.431 113.611 214.832 111.955 212.937C110.062 210.805 108.524 208.437 106.868 206.127C105.272 203.996 103.616 201.923 101.546 200.206C99.7124 198.666 97.5833 197.423 95.3951 196.475C90.9003 194.462 85.9325 193.633 81.0237 193.633C69.846 193.633 59.4372 198.252 49.5015 202.93C49.4423 202.752 49.3832 202.574 49.324 202.397C49.9746 202.101 50.566 201.805 51.1574 201.509C61.6254 196.653 72.9214 192.153 84.6905 193.218C89.4809 193.633 94.2714 194.995 98.4704 197.423C100.54 198.666 102.492 200.147 104.148 201.923C106.1 203.996 107.696 206.364 109.352 208.674C111.008 210.983 112.783 213.292 114.971 215.069C116.804 216.549 118.933 217.615 121.181 218.385C125.616 219.984 130.288 220.635 134.665 222.293C136.794 223.122 138.805 224.188 140.52 225.668C142.708 227.563 144.364 229.932 146.079 232.241C147.853 234.61 149.864 236.682 152.348 238.34C154.773 239.998 157.434 241.242 160.096 242.485C162.639 243.729 165.418 244.913 168.08 246.334Z" fill="white"/>
<path d="M465.323 426.526C466.861 435.467 467.985 443.461 468.221 450.804C468.635 463.949 468.221 480.352 465.915 502.38L456.866 501.847C456.866 501.847 449 464.364 444.801 438.783C443.737 432.269 442.909 426.466 442.495 422.144C440.188 397.333 452.49 329.058 453.318 324.617L453.377 324.439V324.38L482.415 322.011C496.609 372.285 478.098 382.647 465.323 426.526Z" fill="#F1CCCD"/>
<path d="M517.486 497.406C516.658 493.498 503.824 465.904 491.996 448.85C489.157 444.764 486.673 441.092 484.308 438.605C468.34 422.025 455.269 329.235 455.269 329.235L485.136 322.011C505.48 343.269 494.717 371.87 497.792 402.78C498.856 413.498 502.227 423.683 507.314 432.329C508.319 434.105 509.324 435.882 510.212 437.658C516.658 450.389 520.62 469.93 525.174 494.149C525.174 494.208 517.486 497.406 517.486 497.406Z" fill="#F1CCCD"/>
<path d="M430.43 410.419C430.43 412.077 431.849 413.38 433.505 413.202C461.716 409.59 479.695 419.005 502.109 415.393C503.41 415.216 504.711 414.919 506.012 414.623C508.378 414.09 510.093 412.018 510.271 409.649C512.695 373.232 510.803 340.427 500.808 319.406H448.35C448.35 319.406 431.021 378.384 430.43 410.419Z" fill="url(#paint6_linear_4_686)"/>
<path d="M502.227 380.456C502.227 398.458 502.109 409.412 502.109 415.452C503.41 415.275 504.711 414.979 506.012 414.682C508.378 414.15 510.093 412.077 510.271 409.708C512.695 373.291 510.803 340.486 500.808 319.465H498.324L495.485 322.248C495.485 322.189 502.287 349.901 502.227 380.456Z" fill="#E6E6E6"/>
<path d="M460.533 201.982C460.533 198.666 461.538 195.173 463.963 192.863C466.979 190.08 471.77 189.606 475.791 190.199C479.872 190.791 484.307 192.33 487.619 194.758C492.824 198.548 497.082 204.884 498.62 211.161C500.394 218.444 496.195 226.379 498.738 233.366C500.512 238.4 505.303 241.656 509.147 245.387C512.991 249.117 516.244 254.802 513.996 259.658C511.394 265.165 506.367 264.395 503.351 269.724C501.458 273.1 501.104 279.554 499.625 283.107C498.087 286.778 493.001 289.265 488.152 288.555C484.248 287.962 480.522 285.535 479.34 281.745C478.571 279.199 478.807 276.475 477.979 273.929C476.678 270.08 473.13 267.533 470.409 264.513C463.845 257.289 462.011 246.157 467.038 237.215C462.898 229.577 461.006 221.346 463.667 211.812C461.479 208.555 460.533 205.298 460.533 201.982Z" fill="url(#paint7_linear_4_686)"/>
<path d="M423.569 257.704L410.617 262.382L401.51 236.86L414.462 232.241L423.569 257.704Z" fill="url(#paint8_linear_4_686)"/>
<path d="M446.99 286.305C446.99 286.305 445.984 307.326 434.984 308.214C425.758 308.984 415.231 273.633 407.956 264.336C400.978 255.394 397.015 248.111 401.746 245.269C414.284 237.748 414.994 250.539 415.467 260.368L430.193 283.107L449.592 245.802L446.99 286.305Z" fill="#F1CCCD"/>
<path d="M536.115 367.429C530.497 368.85 524.701 360.027 524.701 360.027C524.701 360.027 522.394 365.771 520.679 363.166C518.905 360.56 521.744 353.514 521.744 353.514L520.147 348.184L502.109 288.851L495.544 240.887C506.959 245.742 525.351 323.195 528.308 345.993C528.841 350.197 529.136 352.625 529.136 352.625C529.136 352.625 542.148 365.889 536.115 367.429Z" fill="#F1CCCD"/>
<path d="M407.661 264.928C411.682 276.356 425.995 308.688 435.162 308.688C435.694 308.688 436.226 308.569 436.758 308.332C440.543 306.734 444.21 299.924 446.931 293.351C449.592 286.897 451.425 280.738 451.603 279.909V279.85C452.608 289.976 448.705 320.768 447.522 320.353C460.533 324.853 476.62 325.801 492.233 322.959H492.351C495.663 322.366 498.975 321.597 502.228 320.649C493.711 308.214 491.109 286.423 495.486 279.021C495.545 279.317 495.604 279.732 495.663 280.146C498.029 292.285 519.674 353.158 519.852 353.158C522.217 352.625 530.142 350.908 530.142 350.73C527.008 327.577 506.841 246.394 496.964 238.992C488.448 232.656 478.985 231.175 478.867 231.175L468.34 231.353C468.281 231.353 451.366 237.215 446.694 247.223C442.495 256.164 430.549 282.515 430.549 282.515C430.43 282.811 430.016 282.87 429.839 282.574L416 258.71C415.881 258.473 407.602 264.809 407.661 264.928Z" fill="url(#paint9_linear_4_686)"/>
<path d="M478.866 231.175C478.571 231.649 478.275 232.064 477.979 232.419C475.081 236.09 471.947 236.268 468.339 231.353C468.576 230.228 469.167 226.32 469.581 223.833C469.759 222.885 469.877 222.116 469.936 221.819L477.743 221.227L478.866 231.175Z" fill="#F1CCCD"/>
<path d="M478.867 231.175C478.571 231.649 478.275 232.064 477.979 232.419C477.743 230.228 476.915 226.142 474.549 226.142C471.415 226.083 469.759 224.07 469.581 223.892C469.759 222.945 469.877 222.175 469.936 221.879L477.743 221.286L478.867 231.175Z" fill="#F1BABB"/>
<path d="M495.663 280.146L495.485 279.021C495.544 279.317 495.604 279.732 495.663 280.146Z" fill="#DB85B4"/>
<path d="M495.485 322.189L502.228 320.59C493.711 308.155 491.109 286.423 495.485 279.08L493.238 272.448C488.034 282.633 484.84 297.792 495.485 322.189Z" fill="#E6E6E6"/>
<path d="M436.758 308.333C440.543 306.734 444.21 299.924 446.93 293.351L451.602 279.909V279.85C449.592 271.738 450.006 267.711 451.011 260.901C446.043 269.547 447.699 299.51 436.758 308.333Z" fill="#E6E6E6"/>
<path d="M466.033 501.61L468.221 508.894L466.683 521.21L464.259 521.329L462.07 510.552L458.108 517.717C457.043 519.612 455.447 521.21 453.258 521.507C447.522 522.217 436.285 522.395 435.871 518.664C435.398 514.815 446.28 514.638 449.473 510.374C452.549 506.229 456.866 501.373 456.866 501.373L466.033 501.61Z" fill="url(#paint10_linear_4_686)"/>
<path d="M524.169 489.59L530.26 494.09L536.352 504.867L534.459 506.407L526.239 499.064L527.362 507.176C527.658 509.367 527.303 511.558 525.766 513.098C521.626 517.125 512.695 523.993 510.093 521.21C507.373 518.368 514.765 511.618 516.066 506.466C517.368 501.136 516.658 494.86 516.658 494.86L524.169 489.59Z" fill="url(#paint11_linear_4_686)"/>
<path d="M466.388 221.76C477.093 230.879 483.125 214.358 483.125 214.358C483.125 214.358 487.856 212.167 486.023 207.845C484.367 203.996 480.227 208.733 480.227 208.733C474.609 208.733 470.114 203.818 467.748 200.561C466.92 199.436 465.146 199.673 464.732 200.976C463.667 204.233 462.366 209.325 462.78 214.003C463.076 217.023 464.081 219.806 466.388 221.76Z" fill="#F1CCCD"/>
<path d="M387.789 114.344V496.044C387.789 503.801 381.461 510.137 373.713 510.137H173.579C165.832 510.137 159.504 503.801 159.504 496.044V114.344C159.504 106.587 165.832 100.251 173.579 100.251H373.713C381.461 100.251 387.789 106.528 387.789 114.344Z" fill="white"/>
<path d="M383.353 88.7041H163.644C155.541 88.7041 148.977 95.4546 148.977 103.804V505.933C148.977 514.282 155.541 521.033 163.644 521.033H383.353C391.456 521.033 398.02 514.282 398.02 505.933V103.804C398.079 95.4546 391.515 88.7041 383.353 88.7041ZM387.789 496.044C387.789 503.801 381.461 510.137 373.713 510.137H173.579C165.832 510.137 159.504 503.801 159.504 496.044V114.344C159.504 106.528 165.832 100.251 173.579 100.251H252.769C253.775 100.251 254.603 101.08 254.662 102.087C255.076 112.035 263.474 120.147 273.646 120.147C283.76 120.147 292.158 112.035 292.572 102.087C292.631 101.08 293.459 100.251 294.464 100.251H373.654C381.461 100.251 387.73 106.587 387.73 114.344V496.044H387.789Z" fill="url(#paint12_linear_4_686)"/>
<path d="M279.567 105.379C280.34 102.101 278.313 98.816 275.038 98.0419C271.764 97.2678 268.483 99.2978 267.71 102.576C266.937 105.854 268.965 109.139 272.239 109.913C275.513 110.687 278.794 108.657 279.567 105.379Z" fill="white"/>
<path d="M269.093 103.982C269.093 101.494 271.103 99.4812 273.587 99.4812C276.071 99.4812 278.082 101.494 278.082 103.982C278.082 106.469 276.071 108.482 273.587 108.482C271.103 108.482 269.093 106.469 269.093 103.982Z" fill="url(#paint13_linear_4_686)"/>
<path d="M271.221 101.968C271.221 101.258 271.813 100.665 272.523 100.665C273.232 100.665 273.824 101.258 273.824 101.968C273.824 102.679 273.232 103.271 272.523 103.271C271.813 103.271 271.221 102.679 271.221 101.968Z" fill="white"/>
<path d="M352.068 162.19H195.166C185.881 162.19 178.37 169.71 178.37 179.007V257.348C178.37 266.645 185.881 274.165 195.166 274.165H352.068C361.353 274.165 368.864 266.645 368.864 257.348V179.007C368.864 169.71 361.353 162.19 352.068 162.19Z" fill="url(#paint14_linear_4_686)"/>
<path d="M366.261 283.699H180.972C179.553 283.699 178.37 284.883 178.37 286.305C178.37 287.726 179.553 288.91 180.972 288.91H366.321C367.74 288.91 368.923 287.726 368.923 286.305C368.864 284.883 367.74 283.699 366.261 283.699Z" fill="#C7E2FF"/>
<path d="M180.972 301.878H262.291C263.711 301.878 264.893 300.694 264.893 299.272C264.893 297.851 263.711 296.667 262.291 296.667H180.972C179.553 296.667 178.37 297.851 178.37 299.272C178.37 300.753 179.553 301.878 180.972 301.878Z" fill="#C7E2FF"/>
<path d="M366.261 342.736H250.463C249.044 342.736 247.861 343.921 247.861 345.342C247.861 346.763 249.044 347.947 250.463 347.947H366.321C367.74 347.947 368.923 346.763 368.923 345.342C368.864 343.861 367.74 342.736 366.261 342.736Z" fill="#C7E2FF"/>
<path d="M300.26 360.915C301.679 360.915 302.862 359.731 302.862 358.31C302.862 356.889 301.679 355.705 300.26 355.705H250.463C249.044 355.705 247.861 356.889 247.861 358.31C247.861 359.731 249.044 360.915 250.463 360.915H300.26Z" fill="#C7E2FF"/>
<path d="M366.261 454.001H250.463C249.044 454.001 247.861 455.186 247.861 456.607C247.861 458.028 249.044 459.212 250.463 459.212H366.321C367.74 459.212 368.923 458.028 368.923 456.607C368.864 455.126 367.74 454.001 366.261 454.001Z" fill="#C7E2FF"/>
<path d="M300.26 467.029H250.463C249.044 467.029 247.861 468.213 247.861 469.634C247.861 471.055 249.044 472.24 250.463 472.24H300.26C301.679 472.24 302.862 471.055 302.862 469.634C302.803 468.154 301.679 467.029 300.26 467.029Z" fill="#C7E2FF"/>
<path d="M248.275 400.057C248.275 398.635 249.457 397.451 250.877 397.451H366.675C368.095 397.451 369.278 398.635 369.278 400.057C369.278 401.478 368.095 402.662 366.675 402.662H250.818C249.398 402.662 248.275 401.478 248.275 400.057Z" fill="#C7E2FF"/>
<path d="M248.275 413.084C248.275 411.663 249.457 410.478 250.877 410.478H300.674C302.093 410.478 303.276 411.663 303.276 413.084C303.276 414.505 302.093 415.689 300.674 415.689H250.877C249.398 415.689 248.275 414.505 248.275 413.084Z" fill="#C7E2FF"/>
<path d="M267.969 231.175C266.195 232.063 264.125 230.761 264.065 228.747L263.947 218.918L263.829 209.088C263.829 207.134 265.84 205.772 267.673 206.601L278.792 211.693L288.609 216.194C290.679 217.141 290.679 220.102 288.668 221.109L278.969 225.846L267.969 231.175Z" fill="white"/>
<path d="M273.646 242.485C260.281 242.485 249.399 231.59 249.399 218.207C249.399 204.825 260.281 193.929 273.646 193.929C287.012 193.929 297.894 204.825 297.894 218.207C297.894 231.59 287.012 242.485 273.646 242.485ZM273.646 195.587C261.227 195.587 251.114 205.713 251.114 218.148C251.114 230.583 261.227 240.709 273.646 240.709C286.066 240.709 296.179 230.583 296.179 218.148C296.179 205.713 286.066 195.587 273.646 195.587Z" fill="white"/>
<path d="M223.317 330.538H190.849C186.295 330.538 182.569 334.269 182.569 338.828V364.883C182.569 369.442 186.295 373.173 190.849 373.173H223.317C227.871 373.173 231.597 369.442 231.597 364.883V338.828C231.597 334.209 227.871 330.538 223.317 330.538Z" fill="#C7E2FF"/>
<path d="M203.446 360.205C202.322 360.738 200.962 359.909 200.962 358.665L200.903 352.329L200.843 345.993C200.843 344.69 202.145 343.861 203.327 344.394L210.483 347.71L216.812 350.612C218.172 351.204 218.172 353.099 216.871 353.75L210.602 356.77L203.446 360.205Z" fill="white"/>
<path d="M207.053 367.488C198.419 367.488 191.381 360.442 191.381 351.796C191.381 343.151 198.419 336.104 207.053 336.104C215.688 336.104 222.726 343.151 222.726 351.796C222.726 360.501 215.747 367.488 207.053 367.488ZM207.053 337.229C199.01 337.229 192.505 343.802 192.505 351.796C192.505 359.85 199.069 366.363 207.053 366.363C215.097 366.363 221.602 359.79 221.602 351.796C221.661 343.743 215.097 337.229 207.053 337.229Z" fill="white"/>
<path d="M223.317 441.803H190.849C186.295 441.803 182.569 445.534 182.569 450.093V476.148C182.569 480.707 186.295 484.438 190.849 484.438H223.317C227.871 484.438 231.597 480.707 231.597 476.148V450.093C231.597 445.474 227.871 441.803 223.317 441.803Z" fill="#C7E2FF"/>
<path d="M203.446 471.47C202.322 472.003 200.962 471.174 200.962 469.93L200.903 463.594L200.843 457.258C200.843 455.955 202.145 455.126 203.327 455.659L210.483 458.975L216.812 461.877C218.172 462.469 218.172 464.364 216.871 465.015L210.602 468.035L203.446 471.47Z" fill="white"/>
<path d="M207.053 478.812C198.419 478.812 191.381 471.766 191.381 463.12C191.381 454.475 198.419 447.429 207.053 447.429C215.688 447.429 222.726 454.475 222.726 463.12C222.726 471.766 215.747 478.812 207.053 478.812ZM207.053 448.494C199.01 448.494 192.505 455.067 192.505 463.061C192.505 471.115 199.069 477.628 207.053 477.628C215.097 477.628 221.602 471.055 221.602 463.061C221.661 455.008 215.097 448.494 207.053 448.494Z" fill="white"/>
<path d="M190.849 385.312H223.317C227.871 385.312 231.597 389.043 231.597 393.602V419.657C231.597 424.216 227.871 427.947 223.317 427.947H190.849C186.295 427.947 182.569 424.216 182.569 419.657V393.602C182.569 388.983 186.295 385.312 190.849 385.312Z" fill="#C7E2FF"/>
<path d="M203.446 414.979C202.322 415.512 200.962 414.683 200.962 413.439L200.903 407.103L200.844 400.767C200.844 399.464 202.145 398.635 203.327 399.168L210.484 402.484L216.812 405.386C218.172 405.978 218.172 407.873 216.871 408.524L210.543 411.544L203.446 414.979Z" fill="white"/>
<path d="M207.113 422.262C198.478 422.262 191.44 415.216 191.44 406.57C191.44 397.925 198.478 390.878 207.113 390.878C215.747 390.878 222.785 397.925 222.785 406.57C222.785 415.216 215.747 422.262 207.113 422.262ZM207.113 392.003C199.069 392.003 192.564 398.576 192.564 406.57C192.564 414.623 199.129 421.137 207.113 421.137C215.156 421.137 221.661 414.564 221.661 406.57C221.661 398.517 215.097 392.003 207.113 392.003Z" fill="white"/>
<path d="M330.422 135.484H191.263C188.246 135.484 185.762 137.971 185.762 140.991C185.762 144.011 188.246 146.498 191.263 146.498H330.422C333.438 146.498 335.922 144.011 335.922 140.991C335.922 137.971 333.438 135.484 330.422 135.484Z" fill="#C7E2FF"/>
<path d="M355.971 146.498H346.213C343.196 146.498 340.712 144.011 340.712 140.991C340.712 137.971 343.196 135.484 346.213 135.484H355.971C358.987 135.484 361.471 137.971 361.471 140.991C361.471 144.011 358.987 146.498 355.971 146.498Z" fill="#C7E2FF"/>
<path d="M355.557 144.189L352.718 142.175C352.659 142.175 352.659 142.116 352.6 142.116C352.895 141.583 353.014 140.991 353.014 140.399C353.014 138.326 351.358 136.668 349.288 136.668C347.218 136.668 345.562 138.326 345.562 140.399C345.562 142.471 347.218 144.129 349.288 144.129C350.234 144.129 351.062 143.774 351.713 143.182C351.772 143.241 351.772 143.3 351.831 143.3L354.67 145.314C354.847 145.432 355.024 145.491 355.202 145.432C355.379 145.373 355.557 145.314 355.675 145.136C355.971 144.899 355.912 144.425 355.557 144.189ZM349.288 143.063C347.809 143.063 346.626 141.879 346.626 140.399C346.626 138.918 347.809 137.734 349.288 137.734C350.766 137.734 351.949 138.918 351.949 140.399C351.949 141.879 350.766 143.063 349.288 143.063Z" fill="white"/>
<path d="M131.234 508.538C128.1 495.156 126.089 456.666 133.245 430.907C139.455 408.583 133.363 395.497 133.304 395.378L134.605 394.727C134.842 395.26 140.993 408.406 134.665 431.322C127.568 456.843 129.638 494.978 132.713 508.242L131.234 508.538Z" fill="#0D3F75"/>
<path d="M138.568 509.604C137.562 509.249 132.654 505.637 134.664 468.805C136.675 431.677 117.395 425.696 117.159 425.637L117.573 424.216C118.401 424.453 138.154 430.611 136.143 468.864C134.25 504.867 139.1 508.183 139.159 508.183L138.568 509.604Z" fill="#0D3F75"/>
<path d="M136.025 507.531C134.96 502.853 136.971 492.668 139.041 481.832C140.46 474.549 141.939 467.028 142.234 461.936C142.53 456.725 141.702 450.507 140.933 444.527C139.81 436.118 138.804 428.183 140.519 422.558C141.643 419.005 144.186 416.4 147.557 415.334C151.224 414.209 155.305 415.038 158.498 417.525L157.611 418.709C154.772 416.459 151.165 415.748 147.971 416.755C145.014 417.702 142.826 419.893 141.88 423.032C140.224 428.361 141.229 436.118 142.353 444.408C143.121 450.507 143.949 456.784 143.654 462.114C143.358 467.324 141.88 474.904 140.401 482.247C138.39 492.432 136.32 502.972 137.326 507.354L136.025 507.531Z" fill="#0D3F75"/>
<path d="M93.7387 442.395C97.9969 440.619 102.906 432.329 107.578 432.506C108.642 437.776 100.836 438.013 97.8786 441.152C95.4538 444.408 106.986 446.185 111.954 442.869C116.153 440.323 114.379 434.342 118.815 425.341C122.541 417.584 125.32 417.347 125.616 412.728C126.148 404.261 117.395 396.563 116.449 397.155C116.094 397.392 117.159 398.813 117.632 402.662C117.987 402.958 117.987 417.939 114.083 413.024C111.363 406.807 118.401 402.188 113.669 395.142C110.121 389.871 100.954 390.049 100.777 390.7C105.39 391.766 108.406 403.668 106.395 408.465C104.976 411.248 103.793 408.939 103.379 406.096C100.777 397.036 100.067 392.122 93.3839 388.509C85.2224 384.128 78.8352 391.885 68.5446 393.72C68.5446 393.72 66.1789 406.333 71.3242 413.261C76.2329 419.953 82.975 413.557 88.416 415.097C90.8408 415.571 91.4322 418.591 89.9537 420.13C87.8838 423.209 83.0342 423.506 79.5449 423.683C73.749 423.979 71.6791 422.795 71.0285 423.861C69.1951 426.644 78.3029 434.283 83.2116 432.506C89.4214 432.921 96.2227 422.38 102.492 425.045C102.669 429.96 90.4268 435.585 85.1633 436C82.3836 435.881 80.432 434.638 80.1954 435.112C81.4965 437.776 89.8354 443.698 93.7387 442.395Z" fill="url(#paint15_linear_4_686)"/>
<path d="M104.147 441.329C105.567 441.152 106.927 440.619 108.11 439.79C109.234 438.961 110.121 437.954 110.83 436.71C111.599 435.408 112.072 433.987 112.664 432.565C113.255 431.026 113.965 429.545 114.734 428.124C115.089 427.473 115.443 426.822 115.857 426.17C116.212 425.637 116.685 425.164 117.336 425.104C117.454 425.164 117.513 425.223 117.632 425.282C117.987 425.46 118.282 425.696 118.578 425.874C118.578 425.815 118.637 425.756 118.637 425.756C118.046 425.341 117.454 424.986 116.863 424.69C116.626 424.512 116.449 424.216 116.331 423.979C116.212 423.742 116.035 423.446 116.035 423.15C116.035 422.736 116.212 422.262 116.39 421.907C116.567 421.492 116.745 421.137 116.922 420.722C118.164 417.939 119.82 415.393 120.766 412.491C121.535 410.123 121.772 407.458 120.825 405.09C120.766 404.971 120.648 405.09 120.707 405.149C121.239 406.511 121.358 408.05 121.239 409.531C120.944 412.432 119.642 415.038 118.341 417.584C117.632 419.005 116.863 420.426 116.271 421.847C116.035 422.38 115.798 423.032 116.035 423.624C116.153 423.92 116.331 424.275 116.567 424.571C114.793 423.683 112.9 423.15 111.067 422.558C111.008 422.558 110.89 422.499 110.83 422.499C109.825 421.433 109.234 420.13 108.938 418.709C108.287 415.867 108.938 413.024 109.648 410.241C109.825 409.472 110.062 408.702 110.239 407.991C110.416 407.281 110.594 406.57 110.653 405.8C110.771 404.557 110.594 403.195 109.648 402.247C109.588 402.188 109.47 402.307 109.529 402.366C110.712 403.491 110.653 405.267 110.357 406.748C109.766 409.708 108.583 412.61 108.465 415.689C108.406 418.058 108.938 420.545 110.535 422.38C108.76 421.847 107.045 421.255 105.389 420.426C104.502 419.953 103.674 419.42 102.846 418.768C102.137 418.235 101.427 417.584 100.776 416.992C99.6527 415.926 98.6473 414.86 97.5236 413.794C96.8731 412.314 96.5774 410.715 96.4591 409.175C96.1634 406.333 96.4 403.432 95.4537 400.708C94.6257 398.28 92.6149 395.971 89.8944 395.852C89.7761 395.852 89.7761 396.03 89.8944 396.03C91.4321 396.089 92.7923 396.918 93.7386 397.984C95.6311 400.175 95.986 403.136 96.1043 405.919C96.2225 408.465 96.2817 411.13 97.2279 413.557C97.1097 413.439 96.9322 413.261 96.814 413.143C95.3946 411.84 93.8569 410.656 92.1418 409.708C88.7116 407.695 84.9266 406.452 81.2007 405.149C81.0824 405.09 81.0232 405.267 81.1415 405.326C81.6146 405.504 82.0878 405.623 82.5018 405.8C86.1094 407.044 89.717 408.346 92.9698 410.419C91.9644 410.241 90.8998 410.478 89.8944 410.656C88.6525 410.952 87.1739 411.189 86.1094 410.36C86.0502 410.301 85.932 410.419 85.9911 410.478C86.9965 411.248 88.4159 411.07 89.5987 410.833C90.8407 410.597 92.2009 410.182 93.3838 410.597C94.9806 411.663 96.4 412.906 97.7602 414.268C99.0613 415.571 100.362 416.873 101.723 418.058C101.841 418.176 102.018 418.295 102.137 418.413C100.776 417.88 99.1796 418.176 97.8194 418.709C96.2817 419.36 94.9806 420.486 93.7386 421.611C92.4966 422.676 91.1955 423.683 89.7761 424.512C86.9965 426.111 83.862 426.999 80.6684 427.236C80.5501 427.236 80.6092 427.414 80.6684 427.414C82.3835 427.295 84.0986 426.999 85.7545 426.466C87.2331 425.993 88.6525 425.341 90.0127 424.571C91.373 423.742 92.6149 422.736 93.8569 421.729C95.0989 420.604 96.4 419.479 97.9968 418.887C99.4753 418.295 101.25 418.117 102.61 418.887C103.793 419.775 105.035 420.545 106.395 421.137C108.228 421.966 110.18 422.499 112.132 423.091C112.309 423.15 112.486 423.209 112.605 423.269C111.481 423.446 110.476 423.92 109.588 424.571C108.642 425.282 107.814 426.17 107.045 427.058C106.217 428.006 105.389 428.894 104.502 429.723C102.728 431.322 100.776 432.743 98.6473 433.809C98.5291 433.868 98.6473 433.987 98.7065 433.927C99.8893 433.335 101.013 432.625 102.078 431.855C103.024 431.144 103.911 430.434 104.798 429.605C105.685 428.776 106.454 427.887 107.282 426.999C108.11 426.111 108.879 425.223 109.884 424.512C110.83 423.861 111.895 423.387 113.019 423.328C114.438 423.802 115.857 424.334 117.218 425.045C116.685 425.163 116.212 425.578 115.917 426.052C115.443 426.703 115.029 427.473 114.675 428.183C113.906 429.605 113.255 431.026 112.664 432.565C112.072 433.987 111.599 435.467 110.771 436.829C110.062 438.072 109.115 439.079 107.933 439.908C106.809 440.619 105.567 441.092 104.266 441.27C104.029 441.211 104.029 441.388 104.147 441.329Z" fill="white"/>
<path d="M186.295 407.814C181.741 408.524 174.999 415.393 170.504 414.09C170.741 408.702 178.37 410.36 181.978 407.991C185.112 405.445 174.348 400.945 168.671 402.958C163.999 404.438 164.294 410.656 157.789 418.354C152.348 424.986 149.568 424.571 148.149 428.953C145.606 437.066 152.289 446.599 153.353 446.303C153.767 446.185 153.057 444.527 153.531 440.678C153.294 440.323 156.843 425.756 159.445 431.44C160.628 438.132 152.643 440.915 155.601 448.909C157.789 454.889 166.719 456.903 167.074 456.311C162.816 454.179 162.757 441.921 165.832 437.717C167.902 435.349 168.434 437.895 168.198 440.737C168.552 450.152 168.079 455.126 173.698 460.16C180.558 466.377 188.601 460.337 199.069 461.048C199.069 461.048 204.333 449.382 201.021 441.388C197.827 433.75 189.784 438.309 184.875 435.526C182.628 434.52 182.746 431.381 184.58 430.256C187.3 427.769 192.091 428.657 195.521 429.309C201.198 430.374 202.973 432.092 203.86 431.203C206.285 428.894 199.247 419.301 194.101 419.893C188.187 417.999 179.08 426.644 173.579 422.558C174.585 417.702 187.833 415.215 193.037 416.044C195.757 416.814 197.295 418.472 197.65 418.117C197.059 415.215 190.376 407.517 186.295 407.814Z" fill="url(#paint16_linear_4_686)"/>
<path d="M175.886 406.333C174.466 406.156 172.988 406.392 171.687 406.925C170.386 407.458 169.262 408.228 168.316 409.235C167.251 410.36 166.423 411.603 165.536 412.847C164.59 414.209 163.584 415.452 162.461 416.696C161.988 417.229 161.455 417.821 160.923 418.295C160.45 418.709 159.918 419.064 159.267 419.005C159.208 418.946 159.09 418.828 159.031 418.768C158.735 418.472 158.498 418.235 158.203 417.939C158.143 417.999 158.143 417.999 158.084 418.058C158.557 418.591 159.031 419.064 159.563 419.538C159.74 419.775 159.859 420.071 159.918 420.367C159.977 420.663 160.095 420.959 159.977 421.255C159.859 421.67 159.622 422.084 159.326 422.38C159.09 422.736 158.794 423.091 158.557 423.387C156.665 425.756 154.477 427.887 152.88 430.493C151.579 432.625 150.692 435.112 151.046 437.658C151.046 437.776 151.224 437.717 151.224 437.599C151.046 436.118 151.283 434.638 151.756 433.217C152.702 430.493 154.595 428.243 156.487 426.052C157.552 424.867 158.557 423.683 159.504 422.38C159.859 421.907 160.273 421.374 160.154 420.722C160.095 420.367 160.036 420.012 159.859 419.716C161.396 420.959 163.052 421.966 164.767 422.973C164.826 423.032 164.945 423.091 165.004 423.091C165.714 424.335 166.009 425.756 165.95 427.236C165.891 430.138 164.59 432.743 163.23 435.289C162.875 436 162.461 436.651 162.106 437.362C161.751 438.013 161.396 438.665 161.16 439.375C160.746 440.559 160.627 441.921 161.278 443.046C161.337 443.106 161.455 443.046 161.396 442.987C160.509 441.566 160.982 439.908 161.633 438.546C162.934 435.822 164.767 433.276 165.595 430.315C166.246 428.065 166.305 425.46 165.181 423.328C166.778 424.275 168.316 425.282 169.735 426.466C170.504 427.118 171.155 427.887 171.805 428.657C172.396 429.368 172.87 430.138 173.402 430.848C174.23 432.092 174.999 433.454 175.768 434.697C176.063 436.237 175.945 437.895 175.708 439.434C175.294 442.277 174.407 445.06 174.644 447.902C174.88 450.448 176.3 453.231 178.902 453.942C179.02 453.942 179.079 453.824 178.961 453.764C177.483 453.35 176.359 452.225 175.708 450.922C174.348 448.376 174.762 445.356 175.294 442.632C175.768 440.145 176.359 437.48 176.004 434.934C176.122 435.112 176.182 435.289 176.3 435.408C177.364 437.007 178.606 438.546 179.967 439.849C182.805 442.632 186.176 444.764 189.547 446.895C189.607 446.955 189.725 446.836 189.666 446.777C189.252 446.54 188.838 446.244 188.424 446.007C185.23 443.935 182.037 441.803 179.375 439.02C180.321 439.434 181.386 439.494 182.451 439.494C183.692 439.494 185.171 439.612 186.058 440.678C186.117 440.737 186.236 440.678 186.176 440.559C185.348 439.553 183.988 439.375 182.805 439.316C181.563 439.257 180.144 439.316 179.079 438.605C177.778 437.184 176.714 435.645 175.708 433.987C174.762 432.447 173.816 430.848 172.751 429.309C172.633 429.19 172.515 429.013 172.456 428.894C173.698 429.723 175.294 429.842 176.714 429.605C178.37 429.368 179.907 428.539 181.386 427.769C182.864 426.999 184.343 426.348 185.94 425.874C189.015 424.986 192.268 424.867 195.402 425.4C195.521 425.4 195.521 425.282 195.402 425.223C193.687 424.927 191.972 424.808 190.198 424.927C188.66 425.045 187.123 425.282 185.585 425.756C184.047 426.229 182.569 426.881 181.149 427.651C179.671 428.42 178.133 429.19 176.418 429.427C174.88 429.664 173.106 429.427 171.923 428.302C170.977 427.177 169.972 426.111 168.789 425.223C167.192 423.979 165.418 422.973 163.703 421.966C163.525 421.848 163.407 421.788 163.289 421.67C164.412 421.788 165.536 421.551 166.541 421.137C167.665 420.722 168.671 420.012 169.617 419.36C170.622 418.65 171.628 417.999 172.751 417.406C174.821 416.281 177.069 415.393 179.375 414.801C179.493 414.801 179.434 414.623 179.375 414.623C178.074 414.919 176.832 415.334 175.649 415.808C174.585 416.222 173.52 416.755 172.456 417.347C171.391 417.939 170.445 418.591 169.439 419.301C168.434 419.953 167.429 420.663 166.305 421.078C165.24 421.492 164.117 421.67 162.993 421.492C161.692 420.663 160.45 419.834 159.326 418.828C159.918 418.828 160.391 418.531 160.864 418.176C161.514 417.643 162.047 416.992 162.638 416.4C163.703 415.215 164.708 413.972 165.654 412.669C166.541 411.426 167.429 410.123 168.493 408.998C169.499 407.991 170.622 407.162 171.982 406.688C173.224 406.215 174.585 406.096 175.886 406.215C176.004 406.511 176.004 406.392 175.886 406.333Z" fill="white"/>
<path d="M105.626 387.799C109.648 389.99 119.229 388.509 122.008 392.24C118.578 396.444 113.433 390.523 109.175 390.227C105.153 390.404 111.126 400.471 116.804 402.188C121.417 403.787 124.906 398.635 134.724 396.385C143.062 394.372 145.014 396.326 148.799 393.661C155.66 388.687 156.014 377.022 155.009 376.666C154.595 376.489 154.181 378.265 151.52 381.048C151.52 381.522 139.928 391.056 141.229 384.897C144.304 378.857 152.348 381.344 154.772 373.232C156.606 367.133 150.633 360.205 149.982 360.442C152.111 364.705 144.837 374.594 139.869 376.074C136.793 376.726 137.858 374.357 139.751 372.285C145.073 364.527 148.385 360.856 146.966 353.395C145.192 344.276 135.138 344.335 127.153 337.525C127.153 337.525 115.917 343.743 113.847 352.092C111.836 360.145 121.003 361.33 123.25 366.481C124.433 368.613 122.481 371.041 120.352 370.863C116.685 371.219 113.374 367.666 111.008 365.06C107.105 360.797 106.691 358.369 105.449 358.606C102.137 359.02 102.018 370.863 106.513 373.528C110.121 378.621 122.6 377.14 124.551 383.654C120.885 386.97 108.761 381.048 105.094 377.199C103.379 374.949 103.142 372.699 102.61 372.758C101.368 375.423 102.078 385.608 105.626 387.799Z" fill="url(#paint17_linear_4_686)"/>
<path d="M113.019 395.201C114.083 396.207 115.325 396.859 116.744 397.273C118.105 397.629 119.465 397.688 120.825 397.451C122.304 397.214 123.723 396.681 125.202 396.207C126.739 395.734 128.336 395.26 129.933 394.964C130.643 394.845 131.411 394.668 132.121 394.609C132.713 394.549 133.422 394.609 133.895 395.082C133.895 395.201 133.955 395.319 133.955 395.438C134.014 395.793 134.073 396.207 134.073 396.563C134.132 396.563 134.191 396.563 134.25 396.503C134.191 395.793 134.073 395.142 133.955 394.431C133.955 394.135 134.073 393.839 134.132 393.543C134.25 393.247 134.369 392.951 134.605 392.773C134.96 392.477 135.374 392.358 135.788 392.24C136.202 392.122 136.616 392.003 137.03 391.885C139.987 391.115 143.003 390.76 145.842 389.575C148.148 388.628 150.337 387.148 151.579 384.957C151.638 384.838 151.46 384.779 151.46 384.897C150.751 386.2 149.686 387.266 148.444 388.095C146.019 389.694 143.181 390.404 140.401 390.996C138.863 391.352 137.266 391.648 135.788 392.122C135.256 392.299 134.605 392.477 134.25 393.01C134.073 393.306 133.955 393.661 133.895 394.016C133.422 392.122 132.653 390.286 131.944 388.45C131.885 388.391 131.885 388.273 131.825 388.213C132.003 386.792 132.653 385.49 133.541 384.305C135.315 381.996 137.917 380.693 140.519 379.509C141.229 379.213 141.939 378.857 142.648 378.502C143.299 378.206 144.009 377.851 144.6 377.436C145.665 376.726 146.552 375.719 146.67 374.416C146.67 374.298 146.492 374.298 146.492 374.357C146.374 376.015 144.955 377.081 143.595 377.792C140.933 379.213 137.976 380.16 135.492 381.996C133.6 383.417 132.062 385.49 131.648 387.858C130.938 386.141 130.288 384.424 129.874 382.647C129.637 381.641 129.578 380.634 129.519 379.686C129.519 379.686 129.519 379.686 129.519 379.627C129.519 378.739 129.519 377.792 129.578 376.903C129.696 375.364 129.874 373.883 129.992 372.403C130.702 370.982 131.766 369.738 132.89 368.613C134.901 366.6 137.266 364.883 138.804 362.455C140.164 360.264 140.638 357.244 138.982 355.053C138.922 354.994 138.804 355.053 138.863 355.171C139.81 356.356 140.046 357.955 139.81 359.435C139.336 362.277 137.266 364.409 135.197 366.304C133.304 368.021 131.293 369.798 130.051 372.048C130.051 371.87 130.11 371.633 130.11 371.456C130.229 369.501 130.11 367.607 129.815 365.652C129.164 361.744 127.745 358.014 126.384 354.283C126.325 354.165 126.207 354.224 126.207 354.342C126.384 354.816 126.562 355.231 126.739 355.704C128.1 359.257 129.342 362.929 129.815 366.718C129.342 365.83 128.454 365.12 127.686 364.527C126.68 363.758 125.556 362.81 125.497 361.448C125.497 361.33 125.32 361.33 125.32 361.448C125.379 362.751 126.384 363.698 127.331 364.468C128.336 365.238 129.46 366.067 129.933 367.251C130.11 369.146 130.051 371.1 129.874 372.995C129.696 374.831 129.519 376.666 129.46 378.502C129.46 378.68 129.46 378.857 129.46 379.035C128.987 377.614 127.745 376.548 126.444 375.897C124.965 375.127 123.25 374.831 121.594 374.535C119.938 374.239 118.341 373.883 116.804 373.291C113.847 372.166 111.126 370.33 108.938 367.962C108.879 367.903 108.76 368.021 108.82 368.08C110.002 369.383 111.363 370.508 112.782 371.396C114.083 372.225 115.502 372.936 116.981 373.469C118.519 374.002 120.056 374.357 121.653 374.594C123.309 374.89 125.024 375.186 126.503 375.956C127.863 376.726 129.164 377.969 129.401 379.568C129.46 381.048 129.637 382.47 130.051 383.891C130.583 385.845 131.411 387.68 132.18 389.575C132.239 389.753 132.299 389.871 132.358 390.049C131.53 389.338 130.465 388.806 129.401 388.509C128.277 388.213 127.035 388.154 125.852 388.095C124.61 388.036 123.427 387.977 122.185 387.799C119.82 387.444 117.513 386.851 115.325 385.904C115.207 385.845 115.148 386.022 115.266 386.022C116.449 386.555 117.691 386.97 118.992 387.325C120.115 387.621 121.298 387.858 122.422 387.977C123.605 388.154 124.788 388.154 126.03 388.213C127.212 388.273 128.454 388.332 129.578 388.687C130.643 388.983 131.707 389.516 132.476 390.345C133.008 391.766 133.481 393.187 133.777 394.668C133.304 394.313 132.713 394.253 132.18 394.253C131.352 394.313 130.524 394.49 129.696 394.668C128.1 394.964 126.562 395.378 125.024 395.911C123.546 396.385 122.067 396.918 120.589 397.155C119.169 397.392 117.809 397.333 116.449 396.918C115.207 396.503 114.024 395.852 113.019 394.964C113.078 395.023 112.959 395.142 113.019 395.201Z" fill="white"/>
<path d="M152.17 495.689C151.993 498.057 148.858 517.361 148.562 521.033H120.944C120.589 517.125 117.159 498.235 116.981 495.689H152.17Z" fill="url(#paint18_linear_4_686)"/>
<path d="M116.981 495.689C117.04 496.044 117.099 497.169 117.277 498.886H127.922C138.272 499.123 146.197 500.367 145.073 509.19C144.777 511.321 144.245 517.539 143.713 521.033H148.622C148.917 517.302 152.052 498.057 152.229 495.689H116.981Z" fill="#CCCCCC"/>
<path d="M151.461 495.689H117.632C115.384 495.689 113.492 494.208 113.492 492.373C113.492 490.537 115.325 489.057 117.632 489.057H151.461C153.708 489.057 155.6 490.537 155.6 492.373C155.6 494.208 153.767 495.689 151.461 495.689Z" fill="url(#paint19_linear_4_686)"/>
<path d="M141.821 42.8718H261.582C261.582 42.8718 268.619 39.8518 252.71 38.5491C236.801 37.1871 241.296 29.4892 237.452 30.8511C233.608 32.2131 229.882 36.6542 223.021 30.6735C213.145 22.0873 204.924 15.5737 199.72 24.6336C194.515 33.6934 188.483 31.7986 185.822 29.7853C180.972 26.1731 172.574 23.923 168.198 29.7853C163.821 35.6475 157.138 28.8378 152.289 28.4825C147.735 28.1272 148.444 36.5358 141.407 37.5424C134.369 38.5491 127.981 37.5424 128.159 39.7334C128.218 41.8651 140.283 42.8718 141.821 42.8718Z" fill="url(#paint20_linear_4_686)"/>
<path d="M462.839 135.129H582.541C582.541 135.129 589.579 132.109 573.67 130.806C557.761 129.444 562.256 121.746 558.412 123.108C554.568 124.47 550.842 128.911 543.981 122.93C534.105 114.344 525.884 107.83 520.68 116.89C515.475 125.95 509.443 124.055 506.781 122.042C501.932 118.43 493.534 116.18 489.157 122.042C484.781 127.904 478.098 121.095 473.248 120.739C468.694 120.384 469.404 128.793 462.366 129.799C455.329 130.806 448.941 129.799 449.119 131.99C449.237 134.122 461.302 135.129 462.839 135.129Z" fill="url(#paint21_linear_4_686)"/>
<path d="M385.719 57.0241C383.709 53.3528 378.622 50.7473 373.655 52.0501C368.391 53.4712 366.38 58.919 366.144 59.5112C366.144 59.748 366.144 59.9849 366.144 60.2217C366.144 59.9849 366.144 59.748 366.144 59.5112C365.907 58.8598 363.896 53.4712 358.633 52.0501C353.724 50.6881 348.638 53.2936 346.568 57.0241C342.901 63.7746 350.649 72.1239 351.536 73.0714C356.799 78.756 363.719 79.6442 366.262 79.8811C366.321 79.8811 366.38 79.8811 366.439 79.8811C366.498 79.8811 366.558 79.8811 366.617 79.8811C369.101 79.6442 375.724 78.5784 380.811 73.0714C381.698 72.1239 389.386 63.7746 385.719 57.0241Z" fill="url(#paint22_linear_4_686)"/>
<path d="M426.94 43.5823C426.586 40.5624 423.865 37.3648 420.139 36.9503C416.177 36.4765 413.338 39.5557 412.983 39.911C412.924 40.0886 412.865 40.2071 412.806 40.3847C412.865 40.2071 412.924 40.0886 412.983 39.911C412.983 39.4373 413.101 35.233 409.908 32.8052C406.951 30.555 402.811 30.9103 400.386 32.8644C396.01 36.4173 399.026 44.2337 399.322 45.1219C401.332 50.3921 405.768 52.9383 407.424 53.7673C407.483 53.7673 407.483 53.8265 407.542 53.8265C407.601 53.8265 407.66 53.8265 407.66 53.8857C409.435 54.4187 414.166 55.4845 419.134 53.1752C420.021 52.7014 427.591 49.1485 426.94 43.5823Z" fill="url(#paint23_linear_4_686)"/>
<path d="M399.085 2.6055C397.666 0.532971 394.531 -0.710543 391.692 0.414541C388.676 1.59884 387.789 4.85566 387.671 5.27017C387.671 5.3886 387.671 5.56624 387.73 5.68467C387.73 5.56624 387.671 5.3886 387.671 5.27017C387.493 4.91488 386.015 1.8357 382.821 1.30277C379.864 0.829046 376.966 2.66471 376.02 4.91488C374.246 9.11914 379.332 13.6195 379.864 14.0932C383.294 17.1132 387.434 17.2908 388.913 17.2316C388.972 17.2316 388.972 17.2316 389.031 17.2316C389.09 17.2316 389.09 17.2316 389.149 17.2316C390.628 16.9355 394.472 15.9289 397.133 12.376C397.547 11.7246 401.628 6.39525 399.085 2.6055Z" fill="url(#paint24_linear_4_686)"/>
<path d="M308.362 25.6402C308.717 25.2849 308.54 24.6335 308.008 24.5743L305.169 24.1598C304.932 24.1006 304.755 23.9822 304.696 23.8045L303.454 21.1991C303.217 20.7254 302.567 20.7254 302.33 21.1991L301.029 23.8045C300.911 23.9822 300.733 24.1006 300.556 24.1598L297.658 24.5743C297.126 24.6335 296.948 25.2849 297.303 25.6402L299.373 27.7127C299.55 27.8311 299.61 28.068 299.55 28.3049L299.018 31.1472C298.9 31.6801 299.491 32.0946 299.964 31.7986L302.567 30.4958C302.744 30.3774 302.981 30.3774 303.158 30.4958L305.701 31.8578C306.174 32.0946 306.707 31.7393 306.647 31.2064L306.174 28.3641C306.115 28.1272 306.233 27.9496 306.352 27.7719L308.362 25.6402Z" fill="url(#paint25_linear_4_686)"/>
<path d="M547.116 436.414C547.47 436.059 547.293 435.408 546.761 435.349L543.922 434.934C543.685 434.875 543.508 434.756 543.449 434.579L542.207 431.973C541.97 431.5 541.32 431.5 541.083 431.973L539.782 434.579C539.664 434.756 539.486 434.875 539.309 434.934L536.411 435.349C535.879 435.408 535.701 436.059 536.056 436.414L538.126 438.487C538.304 438.605 538.363 438.842 538.304 439.079L537.771 441.921C537.653 442.454 538.244 442.869 538.718 442.573L541.32 441.27C541.497 441.152 541.734 441.152 541.911 441.27L544.454 442.632C544.927 442.869 545.46 442.514 545.401 441.981L544.927 439.138C544.868 438.901 544.987 438.724 545.105 438.546L547.116 436.414Z" fill="url(#paint26_linear_4_686)"/>
<path d="M505.362 42.9309C505.776 42.8125 506.19 42.8717 506.545 43.1085C507.018 43.4046 507.313 43.9375 507.313 44.4705V49.9775C507.313 50.5696 507.018 51.0433 506.545 51.3394C506.071 51.6355 505.48 51.6355 504.948 51.3394L500.157 48.5563C499.684 48.2602 499.388 47.7273 499.388 47.1944C499.388 46.6022 499.684 46.1285 500.157 45.8324L504.948 43.1085C505.066 42.9901 505.184 42.9901 505.362 42.9309ZM505.835 50.3328C505.894 50.3328 505.894 50.3328 505.894 50.2735C505.953 50.2735 506.071 50.1551 506.071 49.9775V44.4705C506.071 44.2928 505.953 44.2336 505.894 44.1744C505.835 44.1744 505.717 44.1152 505.539 44.1744L500.749 46.8983C500.571 46.9575 500.571 47.1351 500.571 47.1944C500.571 47.2536 500.571 47.372 500.749 47.4904L505.539 50.2735C505.657 50.3328 505.776 50.3328 505.835 50.3328Z" fill="url(#paint27_linear_4_686)"/>
<path d="M50.3292 273.455C50.7432 273.336 51.1572 273.396 51.512 273.633C51.9852 273.929 52.2809 274.462 52.2809 274.994V280.501C52.2809 281.094 51.9852 281.567 51.512 281.863C51.0389 282.159 50.4475 282.159 49.9152 281.863L45.1248 279.08C44.6517 278.784 44.356 278.251 44.356 277.718C44.356 277.126 44.6517 276.653 45.1248 276.356L49.9152 273.633C50.0335 273.514 50.1518 273.455 50.3292 273.455ZM50.8024 280.798C50.8615 280.798 50.8615 280.798 50.8615 280.738C50.9206 280.738 51.0389 280.62 51.0389 280.442V274.935C51.0389 274.758 50.9206 274.698 50.8615 274.639C50.8024 274.639 50.6841 274.58 50.5066 274.639L45.7162 277.363C45.5388 277.422 45.5388 277.6 45.5388 277.659C45.5388 277.718 45.5388 277.837 45.7162 277.955L50.5066 280.738C50.6249 280.857 50.7432 280.857 50.8024 280.798Z" fill="url(#paint28_linear_4_686)"/>
<path d="M128.751 88.1119C126.503 88.1119 124.67 86.2762 124.67 84.026C124.67 81.7759 126.503 79.9402 128.751 79.9402C130.998 79.9402 132.831 81.7759 132.831 84.026C132.772 86.3354 130.939 88.1119 128.751 88.1119ZM128.751 81.3022C127.213 81.3022 125.971 82.5457 125.971 84.0853C125.971 85.6249 127.213 86.8684 128.751 86.8684C130.288 86.8684 131.53 85.6249 131.53 84.0853C131.53 82.5457 130.288 81.3022 128.751 81.3022Z" fill="url(#paint29_linear_4_686)"/>
<path d="M503.351 180.073C501.104 180.073 499.27 178.237 499.27 175.987C499.27 173.737 501.104 171.901 503.351 171.901C505.598 171.901 507.432 173.737 507.432 175.987C507.432 178.237 505.598 180.073 503.351 180.073ZM503.351 173.204C501.813 173.204 500.571 174.447 500.571 175.987C500.571 177.527 501.813 178.77 503.351 178.77C504.889 178.77 506.131 177.527 506.131 175.987C506.131 174.447 504.889 173.204 503.351 173.204Z" fill="url(#paint30_linear_4_686)"/>
<path d="M80.4323 485.622C78.1849 485.622 76.3516 483.786 76.3516 481.536C76.3516 479.286 78.1849 477.45 80.4323 477.45C82.6797 477.45 84.513 479.286 84.513 481.536C84.513 483.846 82.6797 485.622 80.4323 485.622ZM80.4323 478.812C78.8946 478.812 77.6527 480.056 77.6527 481.595C77.6527 483.135 78.8946 484.379 80.4323 484.379C81.97 484.379 83.2119 483.135 83.2119 481.595C83.2119 480.056 81.97 478.812 80.4323 478.812Z" fill="url(#paint31_linear_4_686)"/>
</g>
<defs>
<linearGradient id="paint0_linear_4_686" x1="566.734" y1="244.97" x2="511.504" y2="329.276" gradientUnits="userSpaceOnUse">
<stop stop-color="#84D4FF"/>
<stop offset="1" stop-color="#F5CBFB"/>
</linearGradient>
<linearGradient id="paint1_linear_4_686" x1="584.412" y1="318.03" x2="469.838" y2="397.611" gradientUnits="userSpaceOnUse">
<stop stop-color="#FF66BA"/>
<stop offset="1" stop-color="#8A1988"/>
</linearGradient>
<linearGradient id="paint2_linear_4_686" x1="573.696" y1="324.556" x2="501.459" y2="419.729" gradientUnits="userSpaceOnUse">
<stop stop-color="#FF66BA"/>
<stop offset="1" stop-color="#8A1988"/>
</linearGradient>
<linearGradient id="paint3_linear_4_686" x1="90.2878" y1="112.2" x2="145.518" y2="196.506" gradientUnits="userSpaceOnUse">
<stop stop-color="#84D4FF"/>
<stop offset="1" stop-color="#F5CBFB"/>
</linearGradient>
<linearGradient id="paint4_linear_4_686" x1="72.6103" y1="185.261" x2="187.184" y2="264.842" gradientUnits="userSpaceOnUse">
<stop stop-color="#FF66BA"/>
<stop offset="1" stop-color="#8A1988"/>
</linearGradient>
<linearGradient id="paint5_linear_4_686" x1="83.326" y1="191.786" x2="155.564" y2="286.959" gradientUnits="userSpaceOnUse">
<stop stop-color="#FF66BA"/>
<stop offset="1" stop-color="#8A1988"/>
</linearGradient>
<linearGradient id="paint6_linear_4_686" x1="434.478" y1="331.626" x2="486.576" y2="388.162" gradientUnits="userSpaceOnUse">
<stop stop-color="#174F8C"/>
<stop offset="1" stop-color="#032747"/>
</linearGradient>
<linearGradient id="paint7_linear_4_686" x1="451.903" y1="191.287" x2="499.509" y2="260.355" gradientUnits="userSpaceOnUse">
<stop stop-color="#174F8C"/>
<stop offset="1" stop-color="#032747"/>
</linearGradient>
<linearGradient id="paint8_linear_4_686" x1="414.881" y1="231.805" x2="411.371" y2="254.845" gradientUnits="userSpaceOnUse">
<stop stop-color="#174F8C"/>
<stop offset="1" stop-color="#032747"/>
</linearGradient>
<linearGradient id="paint9_linear_4_686" x1="435.826" y1="234.444" x2="500.467" y2="323.777" gradientUnits="userSpaceOnUse">
<stop stop-color="#FFDD4F"/>
<stop offset="1" stop-color="#FF8F5C"/>
</linearGradient>
<linearGradient id="paint10_linear_4_686" x1="445.708" y1="504.803" x2="455.977" y2="515.685" gradientUnits="userSpaceOnUse">
<stop stop-color="#174F8C"/>
<stop offset="1" stop-color="#032747"/>
</linearGradient>
<linearGradient id="paint11_linear_4_686" x1="508.423" y1="498.35" x2="522.945" y2="509.853" gradientUnits="userSpaceOnUse">
<stop stop-color="#174F8C"/>
<stop offset="1" stop-color="#032747"/>
</linearGradient>
<linearGradient id="paint12_linear_4_686" x1="154.715" y1="89.1946" x2="388.538" y2="512.705" gradientUnits="userSpaceOnUse">
<stop stop-color="#78B0FA"/>
<stop offset="1" stop-color="#003780"/>
</linearGradient>
<linearGradient id="paint13_linear_4_686" x1="270.288" y1="99.8192" x2="277.428" y2="108.701" gradientUnits="userSpaceOnUse">
<stop stop-color="#78B0FA"/>
<stop offset="1" stop-color="#003780"/>
</linearGradient>
<linearGradient id="paint14_linear_4_686" x1="182.805" y1="162.089" x2="363.026" y2="273.087" gradientUnits="userSpaceOnUse">
<stop stop-color="#84D4FF"/>
<stop offset="1" stop-color="#F5CBFB"/>
</linearGradient>
<linearGradient id="paint15_linear_4_686" x1="68.0615" y1="415.909" x2="125.658" y2="415.909" gradientUnits="userSpaceOnUse">
<stop stop-color="#FFDD4F"/>
<stop offset="1" stop-color="#FF8F5C"/>
</linearGradient>
<linearGradient id="paint16_linear_4_686" x1="147.651" y1="432.793" x2="204.396" y2="432.793" gradientUnits="userSpaceOnUse">
<stop stop-color="#FFDD4F"/>
<stop offset="1" stop-color="#FF8F5C"/>
</linearGradient>
<linearGradient id="paint17_linear_4_686" x1="102.061" y1="369.985" x2="155.388" y2="369.985" gradientUnits="userSpaceOnUse">
<stop stop-color="#FFDD4F"/>
<stop offset="1" stop-color="#FF8F5C"/>
</linearGradient>
<linearGradient id="paint18_linear_4_686" x1="115.188" y1="485.75" x2="145.744" y2="518.02" gradientUnits="userSpaceOnUse">
<stop stop-color="#FF66BA"/>
<stop offset="1" stop-color="#8A1988"/>
</linearGradient>
<linearGradient id="paint19_linear_4_686" x1="122.124" y1="479.182" x2="152.681" y2="511.452" gradientUnits="userSpaceOnUse">
<stop stop-color="#FF66BA"/>
<stop offset="1" stop-color="#8A1988"/>
</linearGradient>
<linearGradient id="paint20_linear_4_686" x1="145.786" y1="15.5679" x2="244.889" y2="65.0577" gradientUnits="userSpaceOnUse">
<stop stop-color="#84D4FF"/>
<stop offset="1" stop-color="#F5CBFB"/>
</linearGradient>
<linearGradient id="paint21_linear_4_686" x1="462.303" y1="107.325" x2="566.656" y2="156.062" gradientUnits="userSpaceOnUse">
<stop stop-color="#84D4FF"/>
<stop offset="1" stop-color="#F5CBFB"/>
</linearGradient>
<linearGradient id="paint22_linear_4_686" x1="351.294" y1="44.5074" x2="380.664" y2="79.0788" gradientUnits="userSpaceOnUse">
<stop stop-color="#FF66BA"/>
<stop offset="1" stop-color="#8A1988"/>
</linearGradient>
<linearGradient id="paint23_linear_4_686" x1="407.056" y1="25.6539" x2="417.452" y2="57.1019" gradientUnits="userSpaceOnUse">
<stop stop-color="#FF66BA"/>
<stop offset="1" stop-color="#8A1988"/>
</linearGradient>
<linearGradient id="paint24_linear_4_686" x1="378.048" y1="-2.7467" x2="397.388" y2="15.8985" gradientUnits="userSpaceOnUse">
<stop stop-color="#FF66BA"/>
<stop offset="1" stop-color="#8A1988"/>
</linearGradient>
<linearGradient id="paint25_linear_4_686" x1="297.057" y1="26.276" x2="308.565" y2="26.276" gradientUnits="userSpaceOnUse">
<stop stop-color="#FFDD4F"/>
<stop offset="1" stop-color="#FF8F5C"/>
</linearGradient>
<linearGradient id="paint26_linear_4_686" x1="535.787" y1="437.062" x2="547.296" y2="437.062" gradientUnits="userSpaceOnUse">
<stop stop-color="#FFDD4F"/>
<stop offset="1" stop-color="#FF8F5C"/>
</linearGradient>
<linearGradient id="paint27_linear_4_686" x1="499.377" y1="47.2178" x2="507.326" y2="47.2178" gradientUnits="userSpaceOnUse">
<stop stop-color="#FF66BA"/>
<stop offset="1" stop-color="#8A1988"/>
</linearGradient>
<linearGradient id="paint28_linear_4_686" x1="44.3532" y1="277.736" x2="52.3021" y2="277.736" gradientUnits="userSpaceOnUse">
<stop stop-color="#FF66BA"/>
<stop offset="1" stop-color="#8A1988"/>
</linearGradient>
<linearGradient id="paint29_linear_4_686" x1="124.669" y1="84.0774" x2="132.78" y2="84.0774" gradientUnits="userSpaceOnUse">
<stop stop-color="#78B0FA"/>
<stop offset="1" stop-color="#003780"/>
</linearGradient>
<linearGradient id="paint30_linear_4_686" x1="499.296" y1="175.994" x2="507.408" y2="175.994" gradientUnits="userSpaceOnUse">
<stop stop-color="#78B0FA"/>
<stop offset="1" stop-color="#003780"/>
</linearGradient>
<linearGradient id="paint31_linear_4_686" x1="76.3929" y1="481.585" x2="84.5045" y2="481.585" gradientUnits="userSpaceOnUse">
<stop stop-color="#78B0FA"/>
<stop offset="1" stop-color="#003780"/>
</linearGradient>
<clipPath id="clip0_4_686">
<rect width="657" height="525" fill="white"/>
</clipPath>
</defs>
</svg>
