<svg width="100" height="89" viewBox="0 0 100 89" fill="none" xmlns="http://www.w3.org/2000/svg">
<path d="M96.1932 35.9951C95.0463 36.0165 92.2833 36.1761 92.4201 37.7697C92.4706 38.1994 92.7772 38.5553 93.1947 38.6688C95.0616 38.963 96.9532 39.071 98.8417 38.9909C99.556 38.9118 100.071 38.2688 99.992 37.5545C99.9616 37.2798 99.8446 37.0221 99.6577 36.8182C98.6555 36.1 97.4112 35.8043 96.1932 35.9951Z" fill="#1A064F"/>
<path d="M91.8664 30.5757C93.2987 30.859 94.3844 29.4755 95.4671 28.7484C96.448 27.8792 97.848 27.2133 98.2878 25.9171C98.6059 24.5053 96.8135 24.2805 96.0044 25.0877C95.0452 25.9641 89.7871 29.3759 91.8664 30.5757Z" fill="#1A064F"/>
<path d="M92.421 45.0833C92.167 45.5485 92.2492 46.3844 92.9337 46.5241C93.6189 47.5623 94.542 48.422 95.6265 49.0316C96.6675 49.4573 97.7851 48.8458 97.4183 47.6372C97.2333 46.4427 96.1549 45.6475 95.3406 44.8442C94.5901 43.9567 92.7439 43.686 92.421 45.0833ZM92.4019 45.4226C92.3956 45.3893 92.391 45.3555 92.3885 45.3218C92.3912 45.3555 92.3956 45.3893 92.4019 45.4226ZM92.4256 45.6097L92.4267 45.617L92.4256 45.6097ZM92.6055 44.8206C92.572 44.8589 92.5435 44.9005 92.5135 44.9413C92.5407 44.8986 92.5716 44.8581 92.6055 44.8206Z" fill="#1A064F"/>
<path d="M9.49569 51.1387C10.8395 57.4611 13.9014 63.4021 15.9681 69.5438C18.0977 75.0106 19.9145 80.6614 22.3136 86.0015C21.7572 86.1701 21.4427 86.7577 21.6113 87.3143C21.7799 87.8707 22.3675 88.1853 22.9241 88.0167C22.987 87.9976 23.048 87.9726 23.1063 87.9422C30.953 84.8175 35.8175 78.5294 34.1318 69.8793C34.9954 70.4338 36.2791 69.8636 37.0974 69.419C40.1561 67.7206 42.1496 64.592 42.3973 61.1022C51.4764 63.2656 59.7165 68.0574 66.0872 74.8783C67.3094 76.1341 68.4435 77.9256 70.3257 78.0383C70.8112 78.0385 71.2243 77.6841 71.2979 77.204C74.5149 78.1005 77.8496 76.2194 78.7461 73.0024C78.8384 72.6715 78.9021 72.3334 78.937 71.9918C78.9317 71.5109 78.5377 71.1255 78.0568 71.1307C77.9089 71.1324 77.7638 71.1716 77.6353 71.2448C77.2358 71.5132 76.8795 71.8406 76.5781 72.2158C76.0133 70.6815 75.1627 69.2682 74.0716 68.0508C72.6472 66.2295 71.753 63.9474 70.194 62.2586C70.225 60.1201 70.2877 57.9821 70.3504 55.844C71.8883 58.6884 73.7528 61.3434 75.9064 63.7549C75.8099 65.9275 75.7791 68.0989 75.8837 70.2627C75.9364 71.353 77.6697 71.7244 77.892 70.5345C78.9533 63.4527 79.5676 56.3111 79.7307 49.1521C79.9725 51.4577 83.3225 49.8202 84.4539 49.078C94.024 43.5716 92.3194 28.8067 81.1381 26.8924C81.2044 19.5407 83.3707 11.7496 80.7334 4.66191C79.4808 0.946835 74.2048 -2.03467 71.3982 1.76052C70.6432 1.69006 70.6755 2.8416 70.4893 3.3577C59.0066 13.2738 44.5162 20.1858 29.1046 20.1166C28.2376 20.1126 27.5181 20.7856 27.4642 21.6506C25.7674 21.7137 26.187 24.2282 25.7586 25.4179C24.558 24.9045 23.2617 24.6537 21.9563 24.6825C14.4825 23.6138 4.52673 23.5628 1.09372 31.7194C-2.2336 39.4486 2.44931 47.5763 9.49569 51.1387ZM32.4159 75.8182C31.532 80.5125 27.9591 82.8816 24.1641 84.9857C19.9967 74.3817 15.3291 61.7886 10.6009 51.638C14.8597 53.3445 19.4858 53.9266 24.0347 53.3285C24.2948 54.8225 25.7106 61.8729 27.9446 59.4352C30.1257 64.435 33.4985 70.1205 32.4159 75.8182ZM23.8496 42.3315C23.6744 45.1077 23.6455 47.8913 23.7629 50.6706C20.9033 51.0166 18.0069 50.9114 15.18 50.359C18.2454 47.7692 21.1468 44.9913 23.8674 42.0415C23.863 42.1382 23.8535 42.2347 23.8496 42.3315ZM39.93 60.787C39.5305 63.0773 38.4039 65.1778 36.7172 66.7775C35.8561 67.6346 34.7054 68.0259 33.9718 68.9639C33.1915 65.628 31.8738 62.4414 30.0703 59.5287C33.401 59.6214 36.7193 59.9725 39.9954 60.5787C39.974 60.6482 39.9526 60.7161 39.93 60.787ZM70.8183 68.3327C71.9487 70.0064 73.4559 73.1972 75.6822 73.3134C74.27 75.2914 71.5032 75.7396 70.8003 73.0295C70.3121 71.0867 70.0852 69.0875 70.1256 67.0847C70.3454 67.506 70.5763 67.9219 70.8183 68.3327ZM78.1843 32.6801C78.0306 34.7777 77.8773 36.8752 77.7244 38.9728C75.7093 34.9666 73.6683 31.0089 71.2851 27.2068C71.3845 24.0848 71.4965 20.9634 71.6452 17.8435C72.6913 20.6817 73.9099 23.4657 75.0988 26.2499C75.591 27.6044 76.3422 28.8501 77.3102 29.9177C77.6109 30.1877 78.0578 30.2155 78.3898 29.9851C78.3214 30.8833 78.2501 31.7817 78.1843 32.6801ZM72.8037 34.889C74.2675 37.3576 75.3584 40.359 77.4815 42.2963C77.2406 45.528 77.0034 48.7599 76.7702 51.992C75.1552 47.863 73.1776 43.8853 70.8607 40.1052C70.954 37.1999 71.0477 34.2947 71.1415 31.3893C71.6658 32.5721 72.2112 33.7454 72.8037 34.889ZM74.1083 57.1384C72.9087 55.4036 71.7545 53.662 70.4524 52.0105C70.5339 49.6122 70.6178 47.2141 70.7036 44.8164C71.6723 46.9383 72.5946 49.0803 73.5639 51.2022C73.9449 52.5446 74.7154 53.7442 75.7778 54.6489C76.0198 54.7883 76.3181 54.7879 76.5599 54.6478C76.4108 56.4386 76.2581 58.2329 76.127 60.0289C75.4746 59.052 74.7765 58.1045 74.1083 57.1384ZM81.0567 28.1698C89.0347 31.6542 90.9924 42.082 83.1923 46.9207C82.1133 47.621 80.2638 47.7271 79.7381 49.0147C80.1627 42.0654 80.6203 35.1184 81.0567 28.1698ZM78.57 5.4907C79.5833 8.30422 79.9113 11.3187 79.5265 14.2842C79.2505 18.892 78.8887 23.4963 78.5337 28.1004C76.6477 23.3552 74.3948 18.7639 71.7954 14.3687C71.8612 11.9797 72.0766 9.74244 72.2083 7.25188C73.4297 9.63821 74.5563 11.9971 75.8657 14.3274C76.373 15.2453 76.8971 16.5479 77.9421 16.9354C80.1336 17.0665 78.4242 14.0707 77.8209 13.1847C76.7411 11.24 75.5482 9.36391 74.3765 7.47397C73.874 6.69635 73.2692 5.29085 72.2116 5.30595C72.1934 4.60508 72.1252 3.90632 72.0074 3.2151C74.3635 0.555508 77.4782 3.01671 78.57 5.4907ZM28.302 23.476C43.807 22.6283 58.5704 16.5661 70.1969 6.27315C69.6343 21.5342 69.0886 36.7408 68.4242 52.0421C68.3254 58.6926 67.3264 65.2612 67.9918 71.9356C57.2991 62.3972 42.2532 55.5616 27.6926 57.8602C26.8441 56.3021 26.2814 54.6044 26.0312 52.8479C26.4922 52.2592 26.3982 51.4103 25.8198 50.9365C25.7313 41.7234 26.5628 32.5241 28.302 23.476ZM25.5919 26.2914C24.7966 30.8252 24.2633 35.4009 23.994 39.996C23.7577 39.8001 23.4408 39.7313 23.1445 39.8118C21.9397 40.4831 20.867 41.3677 19.9787 42.4226C17.5487 44.7443 15.2809 47.23 13.1908 49.8622C11.6629 49.3985 10.2049 48.7297 8.85669 47.8741C12.9826 44.7128 16.8464 41.2236 20.4107 37.4406C20.8678 36.8545 25.983 32.5182 23.5494 32.7543C17.7685 36.9432 12.4405 41.7238 7.65189 47.0184C6.65134 46.2389 5.75922 45.3294 4.99922 44.314C8.52304 41.7527 11.7897 38.8547 14.7528 35.6612C17.521 32.7304 20.5405 30.0226 23.0518 26.8555C23.9288 26.8494 24.7945 26.6571 25.5919 26.2914ZM3.11599 33.3868C5.66212 26.1408 14.3382 26.1578 20.7489 26.8358C15.6298 32.6933 9.49296 37.5281 4.27444 43.2526C3.49158 41.9792 2.95534 40.57 2.69362 39.0982C4.84487 37.3368 6.76752 35.3307 8.885 33.5267C11.3548 31.6802 13.6828 29.6512 15.8498 27.457C16.1598 25.9921 13.7367 27.4779 13.2359 27.7644C9.18259 30.351 5.55999 33.5573 2.50027 37.2668C2.47384 35.9472 2.6823 34.6334 3.11599 33.3868Z" fill="#1A064F"/>
<path d="M25.4179 66.3765C26.6699 68.4059 27.2074 70.7954 26.9455 73.1654C27.2907 75.9758 29.6506 74.3379 29.3215 72.2135C29.3553 69.6921 28.3447 67.2691 26.5294 65.5188C26.2438 65.2495 25.794 65.2627 25.5247 65.5484C25.3137 65.7721 25.2705 66.1064 25.4179 66.3765Z" fill="#1A064F"/>
<path d="M27.5579 76.0093C26.7761 76.0365 26.1643 76.6923 26.1916 77.4741C26.2174 78.2178 26.8143 78.8146 27.5579 78.8404C28.3397 78.8132 28.9514 78.1574 28.9242 77.3756C28.8984 76.6321 28.3015 76.0353 27.5579 76.0093Z" fill="#1A064F"/>
<path d="M32.4888 28.6291C36.4897 30.444 42.1466 29.0177 45.4558 26.244C45.8834 25.7931 45.8644 25.081 45.4135 24.6534C45.0584 24.3168 44.5266 24.2482 44.0977 24.4837C40.9229 26.0251 37.5104 27.0185 34.0044 27.4222C33.8025 27.4365 32.9194 27.5914 33.0674 27.7145C32.9133 27.7391 32.7587 27.7607 32.6037 27.7796C32.3636 27.7877 32.1759 27.9891 32.1841 28.229C32.1904 28.4135 32.3127 28.574 32.4888 28.6291Z" fill="#1A064F"/>
<path d="M49.5212 23.9604C50.0618 24.4792 50.9208 24.4616 51.4396 23.921C51.9434 23.3959 51.9434 22.5669 51.4396 22.0419C50.899 21.5231 50.04 21.5407 49.5212 22.0814C49.0174 22.6065 49.0174 23.4355 49.5212 23.9604Z" fill="#1A064F"/>
</svg>
