<svg width="60" height="60" viewBox="0 0 60 60" fill="none" xmlns="http://www.w3.org/2000/svg">
<g clip-path="url(#clip0_4_573)">
<path d="M23.399 18.5271C19.4847 18.5271 16.3115 21.7003 16.3115 25.6146V28.4201C16.3115 32.3344 19.4847 35.5076 23.399 35.5076C27.3133 35.5076 30.4865 32.3344 30.4865 28.4201V25.6146C30.4865 21.7002 27.3133 18.5271 23.399 18.5271Z" fill="#FFCDAC"/>
<path d="M31.1707 1.17297H18.5179C17.2219 1.17297 16.1713 2.22356 16.1713 3.51954V24.3782C16.1713 23.0822 17.2219 22.0316 18.5179 22.0316H31.1707V1.17297Z" fill="#FFEFD5"/>
<path d="M1.17188 1.17297H13.8247C15.1207 1.17297 16.1713 2.22356 16.1713 3.51954V24.3782C16.1713 23.0822 15.1207 22.0316 13.8247 22.0316H1.17188V1.17297Z" fill="white"/>
<path d="M28.9062 35.5076H17.9291C12.1692 35.5076 7.49973 40.177 7.49973 45.9369V58.8271H39.3356V45.9369C39.3356 40.177 34.6661 35.5076 28.9062 35.5076Z" fill="#FFB954"/>
<path d="M54.8441 37.9685H29.5325C27.3321 37.9685 25.5482 39.7522 25.5482 41.9528V58.8272H58.8283V41.9528C58.8283 39.7523 57.0446 37.9685 54.8441 37.9685Z" fill="#C9F3FF"/>
<path d="M42.1886 51.3276C44.0008 51.3276 45.4698 49.8586 45.4698 48.0465C45.4698 46.2344 44.0008 44.7654 42.1886 44.7654C40.3765 44.7654 38.9075 46.2344 38.9075 48.0465C38.9075 49.8586 40.3765 51.3276 42.1886 51.3276Z" fill="#72D8FF"/>
<path d="M23.399 18.5271C19.4847 18.5271 16.3115 21.7003 16.3115 25.6146V28.4201C16.3115 32.3344 19.4847 35.5076 23.399 35.5076C27.3133 35.5076 30.4865 32.3344 30.4865 28.4201V25.6146C30.4865 21.7002 27.3133 18.5271 23.399 18.5271Z" fill="white"/>
<path d="M56.6023 7.50085H43.9446C42.7154 7.50085 41.7191 8.4973 41.7191 9.72636V21.3118L38.6554 24.3754L41.7191 27.439V28.7123C41.7191 29.9415 42.7155 30.9378 43.9446 30.9378H56.6023C57.8315 30.9378 58.8278 29.9413 58.8278 28.7123V9.72648C58.8278 8.4973 57.8315 7.50085 56.6023 7.50085Z" fill="#A0E557"/>
<path d="M42.1882 43.5933C39.7329 43.5933 37.7352 45.5908 37.7352 48.0463C37.7352 50.5017 39.7328 52.4993 42.1882 52.4993C44.6435 52.4993 46.6412 50.5017 46.6412 48.0463C46.6412 45.5908 44.6435 43.5933 42.1882 43.5933ZM42.1882 50.1555C41.0251 50.1555 40.079 49.2092 40.079 48.0463C40.079 46.8833 41.0253 45.937 42.1882 45.937C43.3513 45.937 44.2975 46.8833 44.2975 48.0463C44.2975 49.2092 43.3512 50.1555 42.1882 50.1555Z" fill="black"/>
<path d="M54.8438 36.7965H29.5323C26.6892 36.7965 24.3761 39.1094 24.3761 41.9527V57.6553H16.1712V51.3274C16.1712 50.6803 15.6465 50.1555 14.9994 50.1555C14.3523 50.1555 13.8275 50.6803 13.8275 51.3274V57.6553H8.6716V45.9369C8.6716 40.8322 12.8245 36.6794 17.9291 36.6794C18.5762 36.6794 19.1009 36.1547 19.1009 35.5076C19.1009 35.4944 19.0994 35.4817 19.0989 35.4685C20.3524 36.2361 21.825 36.6794 23.3994 36.6794C27.9536 36.6794 31.6587 32.9743 31.6587 28.4201V25.6146C31.6587 21.0603 27.9536 17.3553 23.3994 17.3553C18.8452 17.3553 15.1401 21.0605 15.1401 25.6146V28.4201C15.1401 30.7397 16.1027 32.8377 17.6476 34.3392C11.3802 34.4893 6.32785 39.6341 6.32785 45.9369V58.8271C6.32785 59.4742 6.85262 59.9989 7.49973 59.9989H58.8281C59.4752 59.9989 60 59.4742 60 58.8271V41.9527C60 39.1096 57.6869 36.7965 54.8438 36.7965ZM17.4836 28.42V25.6145C17.4836 22.3527 20.1373 19.699 23.3991 19.699C26.6609 19.699 29.3148 22.3527 29.3148 25.6145V28.42C29.3148 31.6818 26.6611 34.3356 23.3991 34.3356C20.1372 34.3356 17.4836 31.682 17.4836 28.42ZM39.3356 57.6552H26.7198V41.9527C26.7198 40.4019 27.9815 39.1403 29.5321 39.1403H54.8438C56.3946 39.1403 57.6562 40.402 57.6562 41.9527V52.9607H52.1778C51.5307 52.9607 51.0059 53.4854 51.0059 54.1325C51.0059 54.7796 51.5307 55.3044 52.1778 55.3044H57.6562V57.6554L39.3356 57.6552Z" fill="black"/>
<path d="M47.5219 52.9622C47.2136 52.9622 46.9112 53.0874 46.6934 53.3055C46.4754 53.5235 46.35 53.8257 46.35 54.134C46.35 54.4422 46.4753 54.7446 46.6934 54.9624C46.9112 55.1804 47.2136 55.3059 47.5219 55.3059C47.8313 55.3059 48.1324 55.1805 48.3503 54.9624C48.5694 54.7446 48.6938 54.4422 48.6938 54.134C48.6938 53.8257 48.5694 53.5235 48.3503 53.3055C48.1323 53.0875 47.8311 52.9622 47.5219 52.9622Z" fill="black"/>
<path d="M56.6026 6.3291H43.9449C42.0717 6.3291 40.5476 7.85312 40.5476 9.72648V20.8265L37.8272 23.5467C37.3695 24.0044 37.3695 24.7464 37.8272 25.2041L40.5476 27.9244V28.7123C40.5476 30.5855 42.0717 32.1096 43.9449 32.1096H56.6027C58.4758 32.1096 60 30.5855 60 28.7123V9.72648C60 7.85312 58.4758 6.3291 56.6026 6.3291ZM57.6563 28.7121C57.6563 29.2931 57.1837 29.7659 56.6027 29.7659H43.9449C43.3639 29.7659 42.8912 29.2931 42.8912 28.7121V27.4389C42.8912 27.1281 42.7677 26.83 42.5479 26.6103L40.3131 24.3754L42.5479 22.1405C42.7677 21.9208 42.8912 21.6226 42.8912 21.3119V9.72648C42.8912 9.14547 43.3639 8.67273 43.9449 8.67273H56.6027C57.1837 8.67273 57.6563 9.14547 57.6563 9.72648V28.7121Z" fill="black"/>
<path d="M31.1706 15.5864C30.8624 15.5864 30.5601 15.7118 30.3421 15.9298C30.1241 16.1478 29.9987 16.4501 29.9987 16.7583C29.9987 17.0665 30.124 17.3688 30.3421 17.5868C30.5602 17.8048 30.8624 17.9302 31.1706 17.9302C31.4788 17.9302 31.7812 17.8048 31.999 17.5868C32.217 17.3688 32.3425 17.0665 32.3425 16.7583C32.3425 16.4501 32.2171 16.1478 31.999 15.9298C31.7812 15.7118 31.4788 15.5864 31.1706 15.5864Z" fill="black"/>
<path d="M12.3043 22.0316C12.3043 21.3844 11.7796 20.8598 11.1325 20.8598H2.34363V2.34485H13.8247C14.4725 2.34485 14.9995 2.87184 14.9995 3.51965V18.5275C14.9995 19.1747 15.5243 19.6994 16.1714 19.6994C16.8185 19.6994 17.3433 19.1747 17.3433 18.5275V3.51965C17.3433 2.87184 17.8703 2.34485 18.5181 2.34485H29.9992V12.7757C29.9992 13.4229 30.5239 13.9476 31.1711 13.9476C31.8182 13.9476 32.3429 13.4229 32.3429 12.7757V1.17297C32.3429 0.525747 31.8182 0.00109863 31.1711 0.00109863H18.518C17.617 0.00109863 16.7944 0.34188 16.1714 0.900747C15.5483 0.341763 14.7257 0.00109863 13.8248 0.00109863H1.17187C0.524766 0.00109863 0 0.525747 0 1.17297V22.0316C0 22.6789 0.524766 23.2035 1.17187 23.2035H11.1325C11.7796 23.2035 12.3043 22.6789 12.3043 22.0316Z" fill="black"/>
<path d="M53.3463 12.8914H47.449C46.8019 12.8914 46.2772 13.416 46.2772 14.0632C46.2772 14.7105 46.8019 15.2351 47.449 15.2351H53.3463C53.9934 15.2351 54.5181 14.7105 54.5181 14.0632C54.5181 13.416 53.9935 12.8914 53.3463 12.8914Z" fill="black"/>
<path d="M53.3463 18.0472H47.449C46.8019 18.0472 46.2772 18.5719 46.2772 19.2191C46.2772 19.8663 46.8019 20.391 47.449 20.391H53.3463C53.9934 20.391 54.5181 19.8663 54.5181 19.2191C54.5181 18.5719 53.9935 18.0472 53.3463 18.0472Z" fill="black"/>
<path d="M53.3463 23.2034H47.449C46.8019 23.2034 46.2772 23.728 46.2772 24.3752C46.2772 25.0225 46.8019 25.5471 47.449 25.5471H53.3463C53.9934 25.5471 54.5181 25.0225 54.5181 24.3752C54.5181 23.728 53.9935 23.2034 53.3463 23.2034Z" fill="black"/>
<path d="M11.3838 5.27441H5.48645C4.83934 5.27441 4.31458 5.79906 4.31458 6.44629C4.31458 7.09352 4.83934 7.61817 5.48645 7.61817H11.3837C12.0308 7.61817 12.5556 7.09352 12.5556 6.44629C12.5556 5.79906 12.031 5.27441 11.3838 5.27441Z" fill="black"/>
<path d="M11.3838 10.4305H5.48645C4.83934 10.4305 4.31458 10.9552 4.31458 11.6024C4.31458 12.2496 4.83934 12.7743 5.48645 12.7743H11.3837C12.0308 12.7743 12.5556 12.2496 12.5556 11.6024C12.5556 10.9552 12.031 10.4305 11.3838 10.4305Z" fill="black"/>
<path d="M11.3838 15.5864H5.48645C4.83934 15.5864 4.31458 16.1111 4.31458 16.7583C4.31458 17.4055 4.83934 17.9302 5.48645 17.9302H11.3837C12.0308 17.9302 12.5556 17.4055 12.5556 16.7583C12.5556 16.1111 12.031 15.5864 11.3838 15.5864Z" fill="black"/>
<path d="M26.3832 5.27441H20.486C19.8389 5.27441 19.3141 5.79906 19.3141 6.44629C19.3141 7.09352 19.8389 7.61817 20.486 7.61817H26.3832C27.0304 7.61817 27.5551 7.09352 27.5551 6.44629C27.5551 5.79906 27.0304 5.27441 26.3832 5.27441Z" fill="black"/>
<path d="M26.3832 10.4305H20.486C19.8389 10.4305 19.3141 10.9552 19.3141 11.6024C19.3141 12.2496 19.8389 12.7743 20.486 12.7743H26.3832C27.0304 12.7743 27.5551 12.2496 27.5551 11.6024C27.5551 10.9552 27.0304 10.4305 26.3832 10.4305Z" fill="black"/>
</g>
<defs>
<clipPath id="clip0_4_573">
<rect width="60" height="60" fill="white"/>
</clipPath>
</defs>
</svg>
